<svg width="90" height="70" viewBox="0 0 90 70" fill="none" xmlns="http://www.w3.org/2000/svg">
<path opacity="0.2" d="M40.6621 61.7109L39.8931 61.0717L39.8907 61.0746L40.6621 61.7109ZM6.9707 8.88281L6.20169 8.24357L6.19933 8.24643L6.9707 8.88281ZM40.6621 8.92773L39.8911 9.56462L40.6621 8.92773ZM29.6562 16.8789L28.7711 17.3442L28.7736 17.3489L29.6562 16.8789ZM18.1113 16.6094L17.2371 16.1237L17.232 16.1331L18.1113 16.6094ZM16.2246 26.4023L15.2248 26.3818L15.2246 26.3921V26.4023H16.2246ZM18.0664 53.8496L17.1863 54.3244L17.189 54.3293L18.0664 53.8496ZM29.6113 53.9395L30.4832 54.4292L30.486 54.4241L29.6113 53.9395ZM31.498 43.5625L32.498 43.5689V43.5625H31.498ZM45.6367 41.2715C45.6367 49.9686 43.6753 56.5217 39.8931 61.0717L41.4311 62.3502C45.6151 57.3168 47.6367 50.2436 47.6367 41.2715H45.6367ZM39.8907 61.0746C36.1594 65.5974 30.8791 67.8984 23.9062 67.8984V69.8984C31.3683 69.8984 37.2585 67.4079 41.4335 62.3473L39.8907 61.0746ZM23.9062 67.8984C16.8727 67.8984 11.5475 65.5819 7.78659 61.0291L6.24466 62.3029C10.4499 67.3934 16.3851 69.8984 23.9062 69.8984V67.8984ZM7.78659 61.0291C4.00135 56.447 2.04102 49.9062 2.04102 41.2715H0.0410156C0.0410156 50.1862 2.06376 57.2418 6.24466 62.3029L7.78659 61.0291ZM2.04102 41.2715V29.3223H0.0410156V41.2715H2.04102ZM2.04102 29.3223C2.04102 20.6236 3.98819 14.0694 7.74208 9.5192L6.19933 8.24643C2.04697 13.2796 0.0410156 20.3517 0.0410156 29.3223H2.04102ZM7.73971 9.52205C11.5008 4.99747 16.8122 2.69531 23.8164 2.69531V0.695312C16.3258 0.695312 10.4068 3.18482 6.20169 8.24357L7.73971 9.52205ZM23.8164 2.69531C30.8184 2.69531 36.1294 5.01087 39.8911 9.56462L41.4331 8.29085C37.2287 3.20137 31.3092 0.695312 23.8164 0.695312V2.69531ZM39.8911 9.56462C43.6759 14.1462 45.6367 20.7015 45.6367 29.3672H47.6367C47.6367 20.4235 45.6144 13.3525 41.4331 8.29085L39.8911 9.56462ZM45.6367 29.3672V41.2715H47.6367V29.3672H45.6367ZM32.498 27.3906C32.498 22.6366 31.8832 18.9336 30.5389 16.4089L28.7736 17.3489C29.885 19.4362 30.498 22.741 30.498 27.3906H32.498ZM30.5414 16.4136C29.8563 15.1102 28.9444 14.0862 27.7899 13.3935C26.6359 12.7011 25.2984 12.375 23.8164 12.375V14.375C24.9998 14.375 25.9683 14.6329 26.7609 15.1085C27.553 15.5837 28.2284 16.3117 28.7711 17.3442L30.5414 16.4136ZM23.8164 12.375C22.374 12.375 21.0706 12.6743 19.9429 13.3137C18.8123 13.9546 17.9136 14.9061 17.2372 16.1237L18.9855 17.095C19.5069 16.1564 20.1581 15.4907 20.9292 15.0535C21.7032 14.6147 22.6533 14.375 23.8164 14.375V12.375ZM17.232 16.1331C15.9499 18.5001 15.3157 21.9566 15.2248 26.3818L17.2244 26.4229C17.3132 22.1033 17.9368 19.0312 18.9906 17.0857L17.232 16.1331ZM15.2246 26.4023V43.1133H17.2246V26.4023H15.2246ZM15.2246 43.1133C15.2246 48.0378 15.837 51.8232 17.1863 54.3244L18.9465 53.3748C17.8401 51.324 17.2246 47.9518 17.2246 43.1133H15.2246ZM17.189 54.3293C17.8784 55.5905 18.7941 56.5772 19.9475 57.2427C21.0989 57.9069 22.4309 58.2188 23.9062 58.2188V56.2188C22.7162 56.2188 21.7423 55.9691 20.947 55.5103C20.1538 55.0527 19.4822 54.3548 18.9439 53.3699L17.189 54.3293ZM23.9062 58.2188C25.3382 58.2188 26.6355 57.9137 27.7625 57.2659C28.8909 56.6173 29.7939 55.6565 30.4832 54.4291L28.7394 53.4498C28.2009 54.4086 27.5391 55.0874 26.7658 55.5319C25.9911 55.9772 25.0498 56.2188 23.9062 56.2188V58.2188ZM30.486 54.4241C31.8383 51.9835 32.4678 48.3175 32.498 43.5689L30.4981 43.5561C30.4684 48.2112 29.8401 51.4631 28.7366 53.4548L30.486 54.4241ZM32.498 43.5625V27.3906H30.498V43.5625H32.498ZM88.0547 68V69H89.0547V68H88.0547ZM72.8711 68H71.8711V69H72.8711V68ZM72.8711 19.6641H73.8711V18.3301L72.5907 18.7042L72.8711 19.6641ZM57.957 24.0215H56.957V25.3555L58.2375 24.9814L57.957 24.0215ZM57.957 12.5215L57.6302 11.5764L56.957 11.8092V12.5215H57.957ZM86.6621 2.59375V1.59375H86.4941L86.3353 1.64868L86.6621 2.59375ZM88.0547 2.59375H89.0547V1.59375H88.0547V2.59375ZM88.0547 67H72.8711V69H88.0547V67ZM73.8711 68V19.6641H71.8711V68H73.8711ZM72.5907 18.7042L57.6766 23.0616L58.2375 24.9814L73.1515 20.6239L72.5907 18.7042ZM58.957 24.0215V12.5215H56.957V24.0215H58.957ZM58.2839 13.4666L86.989 3.53882L86.3353 1.64868L57.6302 11.5764L58.2839 13.4666ZM86.6621 3.59375H88.0547V1.59375H86.6621V3.59375ZM87.0547 2.59375V68H89.0547V2.59375H87.0547Z" fill="#3562FF"/>
</svg>
