<svg width="102" height="70" viewBox="0 0 102 70" fill="none" xmlns="http://www.w3.org/2000/svg">
<path opacity="0.2" d="M40.6621 61.7109L39.8931 61.0717L39.8907 61.0746L40.6621 61.7109ZM6.9707 8.88281L6.20169 8.24357L6.19933 8.24643L6.9707 8.88281ZM40.6621 8.92773L39.8911 9.56462L40.6621 8.92773ZM29.6562 16.8789L28.7711 17.3442L28.7736 17.3489L29.6562 16.8789ZM18.1113 16.6094L17.2371 16.1237L17.232 16.1331L18.1113 16.6094ZM16.2246 26.4023L15.2248 26.3818L15.2246 26.3921V26.4023H16.2246ZM18.0664 53.8496L17.1863 54.3244L17.189 54.3293L18.0664 53.8496ZM29.6113 53.9395L30.4832 54.4292L30.486 54.4241L29.6113 53.9395ZM31.498 43.5625L32.498 43.5689V43.5625H31.498ZM45.6367 41.2715C45.6367 49.9686 43.6753 56.5217 39.8931 61.0717L41.4311 62.3502C45.6151 57.3168 47.6367 50.2436 47.6367 41.2715H45.6367ZM39.8907 61.0746C36.1594 65.5974 30.8791 67.8984 23.9062 67.8984V69.8984C31.3683 69.8984 37.2585 67.4079 41.4335 62.3473L39.8907 61.0746ZM23.9062 67.8984C16.8727 67.8984 11.5475 65.5819 7.78659 61.0291L6.24466 62.3029C10.4499 67.3934 16.3851 69.8984 23.9062 69.8984V67.8984ZM7.78659 61.0291C4.00135 56.447 2.04102 49.9062 2.04102 41.2715H0.0410156C0.0410156 50.1862 2.06376 57.2418 6.24466 62.3029L7.78659 61.0291ZM2.04102 41.2715V29.3223H0.0410156V41.2715H2.04102ZM2.04102 29.3223C2.04102 20.6236 3.98819 14.0694 7.74208 9.5192L6.19933 8.24643C2.04697 13.2796 0.0410156 20.3517 0.0410156 29.3223H2.04102ZM7.73971 9.52205C11.5008 4.99747 16.8122 2.69531 23.8164 2.69531V0.695312C16.3258 0.695312 10.4068 3.18482 6.20169 8.24357L7.73971 9.52205ZM23.8164 2.69531C30.8184 2.69531 36.1294 5.01087 39.8911 9.56462L41.4331 8.29085C37.2287 3.20137 31.3092 0.695312 23.8164 0.695312V2.69531ZM39.8911 9.56462C43.6759 14.1462 45.6367 20.7015 45.6367 29.3672H47.6367C47.6367 20.4235 45.6144 13.3525 41.4331 8.29085L39.8911 9.56462ZM45.6367 29.3672V41.2715H47.6367V29.3672H45.6367ZM32.498 27.3906C32.498 22.6366 31.8832 18.9336 30.5389 16.4089L28.7736 17.3489C29.885 19.4362 30.498 22.741 30.498 27.3906H32.498ZM30.5414 16.4136C29.8563 15.1102 28.9444 14.0862 27.7899 13.3935C26.6359 12.7011 25.2984 12.375 23.8164 12.375V14.375C24.9998 14.375 25.9683 14.6329 26.7609 15.1085C27.553 15.5837 28.2284 16.3117 28.7711 17.3442L30.5414 16.4136ZM23.8164 12.375C22.374 12.375 21.0706 12.6743 19.9429 13.3137C18.8123 13.9546 17.9136 14.9061 17.2372 16.1237L18.9855 17.095C19.5069 16.1564 20.1581 15.4907 20.9292 15.0535C21.7032 14.6147 22.6533 14.375 23.8164 14.375V12.375ZM17.232 16.1331C15.9499 18.5001 15.3157 21.9566 15.2248 26.3818L17.2244 26.4229C17.3132 22.1033 17.9368 19.0312 18.9906 17.0857L17.232 16.1331ZM15.2246 26.4023V43.1133H17.2246V26.4023H15.2246ZM15.2246 43.1133C15.2246 48.0378 15.837 51.8232 17.1863 54.3244L18.9465 53.3748C17.8401 51.324 17.2246 47.9518 17.2246 43.1133H15.2246ZM17.189 54.3293C17.8784 55.5905 18.7941 56.5772 19.9475 57.2427C21.0989 57.9069 22.4309 58.2188 23.9062 58.2188V56.2188C22.7162 56.2188 21.7423 55.9691 20.947 55.5103C20.1538 55.0527 19.4822 54.3548 18.9439 53.3699L17.189 54.3293ZM23.9062 58.2188C25.3382 58.2188 26.6355 57.9137 27.7625 57.2659C28.8909 56.6173 29.7939 55.6565 30.4832 54.4291L28.7394 53.4498C28.2009 54.4086 27.5391 55.0874 26.7658 55.5319C25.9911 55.9772 25.0498 56.2188 23.9062 56.2188V58.2188ZM30.486 54.4241C31.8383 51.9835 32.4678 48.3175 32.498 43.5689L30.4981 43.5561C30.4684 48.2112 29.8401 51.4631 28.7366 53.4548L30.486 54.4241ZM32.498 43.5625V27.3906H30.498V43.5625H32.498ZM100.139 68V69H101.139V68H100.139ZM54.498 68H53.498V69H54.498V68ZM54.498 58.1172L53.7735 57.428L53.498 57.7175V58.1172H54.498ZM75.5215 36.0156L76.246 36.7048L76.2598 36.6904L76.2729 36.6755L75.5215 36.0156ZM70.4902 16.2949L71.2947 16.889L71.299 16.8831L70.4902 16.2949ZM68.334 23.6172V24.6172H69.334V23.6172H68.334ZM53.1504 23.6172H52.1504V24.6172H53.1504V23.6172ZM56.1602 12.5215L57.0203 13.0315L57.0223 13.0282L56.1602 12.5215ZM92.7715 6.54688L92.1202 7.30572L92.1231 7.30823L92.7715 6.54688ZM97.084 28.1543L98.014 28.5217L98.0156 28.5178L97.084 28.1543ZM92.5918 35.8359L91.7939 35.2331L91.7929 35.2345L92.5918 35.8359ZM82.8438 46.5723L82.1366 45.8652L82.1114 45.8904L82.0879 45.9175L82.8438 46.5723ZM74.3984 56.3203L73.6426 55.6655L72.209 57.3203H74.3984V56.3203ZM100.139 56.3203H101.139V55.3203H100.139V56.3203ZM100.139 67H54.498V69H100.139V67ZM55.498 68V58.1172H53.498V68H55.498ZM55.2226 58.8064L76.246 36.7048L74.7969 35.3264L53.7735 57.428L55.2226 58.8064ZM76.2729 36.6755C78.891 33.6941 80.8832 30.9876 82.2253 28.5594C83.562 26.1411 84.293 23.9288 84.293 21.9551H82.293C82.293 23.4553 81.7287 25.3234 80.4749 27.5919C79.2265 29.8506 77.3329 32.4374 74.7701 35.3558L76.2729 36.6755ZM84.293 21.9551C84.293 19.0127 83.6534 16.6049 82.2181 14.8895L80.6842 16.173C81.7046 17.3925 82.293 19.2673 82.293 21.9551H84.293ZM82.2181 14.8895C80.7586 13.1452 78.6658 12.3301 76.1055 12.3301V14.3301C78.217 14.3301 79.688 14.9824 80.6842 16.173L82.2181 14.8895ZM76.1055 12.3301C73.4577 12.3301 71.294 13.4896 69.6815 15.7067L71.299 16.8831C72.5615 15.1471 74.1412 14.3301 76.1055 14.3301V12.3301ZM69.6858 15.7009C68.0962 17.8535 67.334 20.515 67.334 23.6172H69.334C69.334 20.8496 70.0093 18.6295 71.2947 16.889L69.6858 15.7009ZM68.334 22.6172H53.1504V24.6172H68.334V22.6172ZM54.1504 23.6172C54.1504 19.7799 55.1073 16.258 57.0203 13.0315L55.3 12.0115C53.2 15.5532 52.1504 19.4285 52.1504 23.6172H54.1504ZM57.0223 13.0282C58.9339 9.7756 61.5831 7.23801 64.9893 5.4061L64.042 3.64468C60.3206 5.6461 57.3994 8.43925 55.298 12.0148L57.0223 13.0282ZM64.9893 5.4061C68.3949 3.5745 72.2129 2.65039 76.4648 2.65039V0.650391C71.9121 0.650391 67.7639 1.64295 64.042 3.64468L64.9893 5.4061ZM76.4648 2.65039C83.3906 2.65039 88.5602 4.25028 92.1202 7.30571L93.4228 5.78804C89.376 2.31482 83.6745 0.650391 76.4648 0.650391V2.65039ZM92.1231 7.30823C95.686 10.3422 97.5215 14.7226 97.5215 20.6074H99.5215C99.5215 14.2735 97.5236 9.28016 93.4198 5.78552L92.1231 7.30823ZM97.5215 20.6074C97.5215 23.0556 97.0666 25.4481 96.1524 27.7908L98.0156 28.5178C99.018 25.949 99.5215 23.3103 99.5215 20.6074H97.5215ZM96.1539 27.7869C95.2369 30.1081 93.791 32.5899 91.7939 35.2331L93.3897 36.4388C95.4655 33.6913 97.0144 31.0521 98.014 28.5217L96.1539 27.7869ZM91.7929 35.2345C89.8293 37.8428 86.6197 41.3822 82.1366 45.8652L83.5509 47.2794C88.0522 42.778 91.3413 39.1598 93.3907 36.4374L91.7929 35.2345ZM82.0879 45.9175L73.6426 55.6655L75.1542 56.9751L83.5996 47.2271L82.0879 45.9175ZM74.3984 57.3203H100.139V55.3203H74.3984V57.3203ZM99.1387 56.3203V68H101.139V56.3203H99.1387Z" fill="#3562FF"/>
</svg>
