<svg width="102" height="70" viewBox="0 0 102 70" fill="none" xmlns="http://www.w3.org/2000/svg">
<path opacity="0.2" d="M40.6621 61.7109L39.8931 61.0717L39.8907 61.0746L40.6621 61.7109ZM6.9707 8.88281L6.20169 8.24357L6.19933 8.24643L6.9707 8.88281ZM40.6621 8.92773L39.8911 9.56462L40.6621 8.92773ZM29.6562 16.8789L28.7711 17.3442L28.7736 17.3489L29.6562 16.8789ZM18.1113 16.6094L17.2371 16.1237L17.232 16.1331L18.1113 16.6094ZM16.2246 26.4023L15.2248 26.3818L15.2246 26.3921V26.4023H16.2246ZM18.0664 53.8496L17.1863 54.3244L17.189 54.3293L18.0664 53.8496ZM29.6113 53.9395L30.4832 54.4292L30.486 54.4241L29.6113 53.9395ZM31.498 43.5625L32.498 43.5689V43.5625H31.498ZM45.6367 41.2715C45.6367 49.9686 43.6753 56.5217 39.8931 61.0717L41.4311 62.3502C45.6151 57.3168 47.6367 50.2436 47.6367 41.2715H45.6367ZM39.8907 61.0746C36.1594 65.5974 30.8791 67.8984 23.9062 67.8984V69.8984C31.3683 69.8984 37.2585 67.4079 41.4335 62.3473L39.8907 61.0746ZM23.9062 67.8984C16.8727 67.8984 11.5475 65.5819 7.78659 61.0291L6.24466 62.3029C10.4499 67.3934 16.3851 69.8984 23.9062 69.8984V67.8984ZM7.78659 61.0291C4.00135 56.447 2.04102 49.9062 2.04102 41.2715H0.0410156C0.0410156 50.1862 2.06376 57.2418 6.24466 62.3029L7.78659 61.0291ZM2.04102 41.2715V29.3223H0.0410156V41.2715H2.04102ZM2.04102 29.3223C2.04102 20.6236 3.98819 14.0694 7.74208 9.5192L6.19933 8.24643C2.04697 13.2796 0.0410156 20.3517 0.0410156 29.3223H2.04102ZM7.73971 9.52205C11.5008 4.99747 16.8122 2.69531 23.8164 2.69531V0.695312C16.3258 0.695312 10.4068 3.18482 6.20169 8.24357L7.73971 9.52205ZM23.8164 2.69531C30.8184 2.69531 36.1294 5.01087 39.8911 9.56462L41.4331 8.29085C37.2287 3.20137 31.3092 0.695312 23.8164 0.695312V2.69531ZM39.8911 9.56462C43.6759 14.1462 45.6367 20.7015 45.6367 29.3672H47.6367C47.6367 20.4235 45.6144 13.3525 41.4331 8.29085L39.8911 9.56462ZM45.6367 29.3672V41.2715H47.6367V29.3672H45.6367ZM32.498 27.3906C32.498 22.6366 31.8832 18.9336 30.5389 16.4089L28.7736 17.3489C29.885 19.4362 30.498 22.741 30.498 27.3906H32.498ZM30.5414 16.4136C29.8563 15.1102 28.9444 14.0862 27.7899 13.3935C26.6359 12.7011 25.2984 12.375 23.8164 12.375V14.375C24.9998 14.375 25.9683 14.6329 26.7609 15.1085C27.553 15.5837 28.2284 16.3117 28.7711 17.3442L30.5414 16.4136ZM23.8164 12.375C22.374 12.375 21.0706 12.6743 19.9429 13.3137C18.8123 13.9546 17.9136 14.9061 17.2372 16.1237L18.9855 17.095C19.5069 16.1564 20.1581 15.4907 20.9292 15.0535C21.7032 14.6147 22.6533 14.375 23.8164 14.375V12.375ZM17.232 16.1331C15.9499 18.5001 15.3157 21.9566 15.2248 26.3818L17.2244 26.4229C17.3132 22.1033 17.9368 19.0312 18.9906 17.0857L17.232 16.1331ZM15.2246 26.4023V43.1133H17.2246V26.4023H15.2246ZM15.2246 43.1133C15.2246 48.0378 15.837 51.8232 17.1863 54.3244L18.9465 53.3748C17.8401 51.324 17.2246 47.9518 17.2246 43.1133H15.2246ZM17.189 54.3293C17.8784 55.5905 18.7941 56.5772 19.9475 57.2427C21.0989 57.9069 22.4309 58.2188 23.9062 58.2188V56.2188C22.7162 56.2188 21.7423 55.9691 20.947 55.5103C20.1538 55.0527 19.4822 54.3548 18.9439 53.3699L17.189 54.3293ZM23.9062 58.2188C25.3382 58.2188 26.6355 57.9137 27.7625 57.2659C28.8909 56.6173 29.7939 55.6565 30.4832 54.4291L28.7394 53.4498C28.2009 54.4086 27.5391 55.0874 26.7658 55.5319C25.9911 55.9772 25.0498 56.2188 23.9062 56.2188V58.2188ZM30.486 54.4241C31.8383 51.9835 32.4678 48.3175 32.498 43.5689L30.4981 43.5561C30.4684 48.2112 29.8401 51.4631 28.7366 53.4548L30.486 54.4241ZM32.498 43.5625V27.3906H30.498V43.5625H32.498ZM68.334 28.9629V27.9629H67.334V28.9629H68.334ZM81.9453 15.3965L81.2304 16.0958L81.2382 16.1036L81.9453 15.3965ZM70.9844 15.082L70.3693 14.2935L70.3616 14.2996L70.9844 15.082ZM68.7832 19.4395V20.4395H69.7832V19.4395H68.7832ZM53.6445 19.4395H52.6445V20.4395H53.6445V19.4395ZM64.4707 3.94141L64.8753 4.85589L64.8791 4.85423L64.4707 3.94141ZM92.8613 6.63672L92.2373 7.41814L92.8613 6.63672ZM96.5 28.334L95.6771 27.7658L95.6757 27.7679L96.5 28.334ZM88.998 34.3984L88.5707 33.4944L86.399 34.521L88.6576 35.3387L88.998 34.3984ZM97.1738 40.1484L96.3805 40.7573L96.384 40.7617L97.1738 40.1484ZM63.752 66.4727L63.341 67.3843L63.35 67.3883L63.752 66.4727ZM55.4414 59.6895L54.6028 60.2341L54.6054 60.2381L55.4414 59.6895ZM52.6113 49.8066V48.8066H51.6113V49.8066H52.6113ZM67.8398 49.8066H68.8398V48.8066H67.8398V49.8066ZM82.6191 55.0176L83.298 55.7519L83.3054 55.745L82.6191 55.0176ZM68.334 40.2383H67.334V41.2383H68.334V40.2383ZM68.334 29.9629H75.4766V27.9629H68.334V29.9629ZM75.4766 29.9629C78.4555 29.9629 80.8744 29.2339 82.5437 27.5999C84.2171 25.962 84.9668 23.5822 84.9668 20.6523H82.9668C82.9668 23.2629 82.3015 25.0384 81.1447 26.1706C79.984 27.3068 78.1578 27.9629 75.4766 27.9629V29.9629ZM84.9668 20.6523C84.9668 18.2688 84.2129 16.2498 82.6524 14.6894L81.2382 16.1036C82.3731 17.2385 82.9668 18.7233 82.9668 20.6523H84.9668ZM82.6601 14.6972C81.0762 13.078 78.8873 12.3301 76.2402 12.3301V14.3301C78.5046 14.3301 80.1191 14.9597 81.2305 16.0958L82.6601 14.6972ZM76.2402 12.3301C74.0244 12.3301 72.0528 12.9804 70.3693 14.2935L71.5994 15.8705C72.9107 14.8477 74.443 14.3301 76.2402 14.3301V12.3301ZM70.3616 14.2996C68.6776 15.6399 67.7832 17.371 67.7832 19.4395H69.7832C69.7832 18.034 70.3562 16.8601 71.6071 15.8645L70.3616 14.2996ZM68.7832 18.4395H53.6445V20.4395H68.7832V18.4395ZM54.6445 19.4395C54.6445 16.194 55.5434 13.3287 57.3345 10.81L55.7046 9.65095C53.6623 12.5228 52.6445 15.7969 52.6445 19.4395H54.6445ZM57.3345 10.81C59.135 8.27806 61.6356 6.2894 64.8753 4.85588L64.0661 3.02693C60.5376 4.5882 57.7374 6.79225 55.7046 9.65095L57.3345 10.81ZM64.8791 4.85423C68.1536 3.38931 71.7563 2.65039 75.7012 2.65039V0.650391C71.5002 0.650391 67.6159 1.43882 64.0623 3.02859L64.8791 4.85423ZM75.7012 2.65039C82.8341 2.65039 88.3069 4.27944 92.2373 7.41814L93.4853 5.8553C89.0902 2.34556 83.1229 0.650391 75.7012 0.650391V2.65039ZM92.2373 7.41814C96.1389 10.5338 98.1055 14.8006 98.1055 20.3379H100.105C100.105 14.2554 97.9093 9.38811 93.4853 5.8553L92.2373 7.41814ZM98.1055 20.3379C98.1055 22.9324 97.3092 25.4021 95.6771 27.7658L97.3229 28.9022C99.1648 26.2346 100.105 23.3735 100.105 20.3379H98.1055ZM95.6757 27.7679C94.0877 30.0802 91.7384 31.9969 88.5707 33.4944L89.4254 35.3025C92.8463 33.6854 95.4982 31.5592 97.3243 28.9001L95.6757 27.7679ZM88.6576 35.3387C91.9775 36.5407 94.5356 38.3533 96.3805 40.7573L97.9671 39.5396C95.8589 36.7925 92.9665 34.7718 89.3385 33.4582L88.6576 35.3387ZM96.384 40.7617C98.2019 43.1031 99.1387 46.0361 99.1387 49.627H101.139C101.139 45.6709 100.099 42.285 97.9637 39.5351L96.384 40.7617ZM99.1387 49.627C99.1387 55.1677 97.0276 59.5451 92.7854 62.8541L94.0154 64.4311C98.7576 60.7322 101.139 55.7659 101.139 49.627H99.1387ZM92.7854 62.8541C88.5133 66.1863 82.8493 67.8984 75.7012 67.8984V69.8984C83.1676 69.8984 89.3031 68.1067 94.0154 64.4311L92.7854 62.8541ZM75.7012 67.8984C71.5479 67.8984 67.7028 67.115 64.1539 65.557L63.35 67.3883C67.1683 69.0647 71.2893 69.8984 75.7012 69.8984V67.8984ZM64.1629 65.561C60.6534 63.9788 58.0436 61.832 56.2775 59.1408L54.6054 60.2381C56.6127 63.2969 59.5432 65.6722 63.341 67.3843L64.1629 65.561ZM56.28 59.1448C54.5054 56.4124 53.6113 53.3098 53.6113 49.8066H51.6113C51.6113 53.6707 52.6039 57.1566 54.6028 60.2341L56.28 59.1448ZM52.6113 50.8066H67.8398V48.8066H52.6113V50.8066ZM66.8398 49.8066C66.8398 52.122 67.7882 54.1199 69.5936 55.7581L70.9376 54.277C69.5087 52.9804 68.8398 51.5043 68.8398 49.8066H66.8398ZM69.5936 55.7581C71.4108 57.4071 73.6484 58.2188 76.2402 58.2188V56.2188C74.1003 56.2188 72.3548 55.563 70.9376 54.277L69.5936 55.7581ZM76.2402 58.2188C79.0958 58.2188 81.4853 57.4277 83.298 55.7519L81.9403 54.2833C80.5785 55.5423 78.7154 56.2188 76.2402 56.2188V58.2188ZM83.3054 55.745C85.1053 54.0469 86 51.8763 86 49.3125H84C84 51.3607 83.3075 52.9934 81.9329 54.2902L83.3054 55.745ZM86 49.3125C86 45.8815 85.1442 43.188 83.1709 41.5376L81.8877 43.0718C83.2087 44.1765 84 46.155 84 49.3125H86ZM83.1709 41.5376C81.2891 39.9638 78.7578 39.2383 75.7012 39.2383V41.2383C78.4545 41.2383 80.4753 41.8904 81.8877 43.0718L83.1709 41.5376ZM75.7012 39.2383H68.334V41.2383H75.7012V39.2383ZM69.334 40.2383V28.9629H67.334V40.2383H69.334Z" fill="#3562FF"/>
</svg>
