<?xml version="1.0" encoding="utf-8"?>
<!-- Generator: Adobe Illustrator 19.1.1, SVG Export Plug-In . SVG Version: 6.00 Build 0)  -->
<svg version="1.1" id="Слой_1" xmlns="http://www.w3.org/2000/svg" xmlns:xlink="http://www.w3.org/1999/xlink" x="0px" y="0px"
	 viewBox="0 0 17 17" style="enable-background:new 0 0 17 17;" xml:space="preserve">
<style type="text/css">
	.st0{fill:#CDCCCC;}
</style>
<path class="st0" d="M12,17H2.4C1.1,17,0,15.9,0,14.6V5c0-1.3,1.1-2.4,2.4-2.4h5.2c0.4,0,0.7,0.3,0.7,0.7S8,4,7.6,4H2.4
	c-0.6,0-1,0.5-1,1v9.5c0,0.6,0.5,1,1,1H12c0.6,0,1-0.5,1-1V9.4c0-0.4,0.3-0.7,0.7-0.7s0.7,0.3,0.7,0.7v5.2C14.4,15.9,13.3,17,12,17z
	"/>
<path class="st0" d="M16.3,6.6c-0.4,0-0.7-0.3-0.7-0.7V1.4h-4.5c-0.4,0-0.7-0.3-0.7-0.7S10.7,0,11.1,0h5.2C16.7,0,17,0.3,17,0.7v5.2
	C17,6.3,16.7,6.6,16.3,6.6z"/>
<path class="st0" d="M6.8,10.9c-0.2,0-0.4-0.1-0.5-0.2C6,10.5,6,10,6.3,9.8l9.5-9.5c0.3-0.3,0.7-0.3,1,0c0.3,0.3,0.3,0.7,0,1
	l-9.5,9.5C7.1,10.9,6.9,10.9,6.8,10.9z"/>
</svg>
