<svg xmlns="http://www.w3.org/2000/svg"
 xmlns:xlink="http://www.w3.org/1999/xlink"
 width="51px" height="43px"  viewBox="0 0 51 43">
<path fill-rule="evenodd"  fill="$color_svg$"
 d="M21.077148,30.523804 C18.76892,32.797394 18.76892,36.48407 21.077148,38.75949 C23.385254,41.03308 27.127686,41.03308 29.435669,38.75949 C31.74414,36.48407 31.74414,32.797394 29.435669,30.523804 C27.127686,28.248383 23.385376,28.248383 21.077148,30.523804 ZM10.475952,24.995209 C9.699463,26.157776 9.855957,27.704163 10.855347,28.68753 C12.203735,30.016174 14.385254,29.710297 15.444946,28.14795 C20.088379,21.301971 30.33545,21.173431 35.06787,28.14795 C36.127808,29.710297 38.308838,30.016174 39.657837,28.68753 C40.65686,27.704163 40.81311,26.157776 40.036865,24.995209 C33.129517,14.63797 17.381348,14.641724 10.475952,24.995209 ZM48.31726,16.427368 C36.50122,1.9424133 14.11853,1.8110352 2.1959229,16.427368 C1.2403564,17.598389 1.314331,19.287354 2.3927002,20.349579 C2.3927002,20.349579 2.3952637,20.35141 2.3952637,20.35141 C3.6607666,21.59848 5.7058105,21.423004 6.827881,20.04837 C16.279175,8.475037 34.261353,8.507904 43.684326,20.047394 C44.806885,21.422089 46.85205,21.59848 48.118164,20.35141 C48.118164,20.35141 48.120117,20.349579 48.120117,20.349579 C49.19873,19.287354 49.272827,17.598389 48.31726,16.427368 Z"/>
</svg>