<svg width="35" height="33" viewBox="0 0 35 33" fill="none" xmlns="http://www.w3.org/2000/svg"><path d="M17.511 12.375l8.542 8.542h-5.125v6.833h-6.834v-6.833H8.97l8.542-8.542zM14.094.417h6.834a3.417 3.417 0 013.416 3.417V7.25h6.834a3.417 3.417 0 013.416 3.417v18.792a3.417 3.417 0 01-3.416 3.416H3.844A3.416 3.416 0 01.428 29.46V10.667A3.405 3.405 0 013.844 7.25h6.834V3.834A3.405 3.405 0 0114.094.417zm6.834 6.833V3.834h-6.834V7.25h6.834zM3.844 10.667v18.792h27.334V10.667H3.844z" fill="#fff"/></svg>