<svg xmlns="http://www.w3.org/2000/svg">
    <defs>
        <symbol id="angle-right" viewBox="0 0 10 20">
            <path d="M9.640,10.986 L2.093,19.585 C1.612,20.132 0.834,20.132 0.354,19.585 C-0.126,19.038 -0.126,18.152 0.354,17.605 L7.033,9.996 L0.355,2.387 C-0.125,1.840 -0.125,0.953 0.355,0.407 C0.834,-0.141 1.613,-0.141 2.093,0.407 L9.640,9.006 C9.880,9.280 10.000,9.638 10.000,9.996 C10.000,10.354 9.880,10.713 9.640,10.986 Z" />
        </symbol>
        <symbol id="drop" viewBox="0 0 20 20">
            <path d="M10,20c4.1,0,7.5-3.3,7.5-7.3c0-3.8-6.2-11.5-6.9-12.4C10.5,0.1,10.2,0,10,0C9.8,0,9.5,0.1,9.4,0.3
	C8.7,1.2,2.5,8.9,2.5,12.7C2.5,16.7,5.9,20,10,20z M10,2.1c2.1,2.7,5.9,8.2,5.9,10.6c0,3.2-2.6,5.8-5.9,5.8c-3.3,0-5.9-2.6-5.9-5.8
	C4.1,10.2,7.9,4.8,10,2.1z" />
            <path d="M10,16.9c0.4,0,0.8-0.3,0.8-0.8c0-0.4-0.4-0.8-0.8-0.8c-1.5,0-2.7-1.2-2.7-2.6c0-0.4-0.4-0.8-0.8-0.8
	c-0.4,0-0.8,0.3-0.8,0.8C5.7,15,7.6,16.9,10,16.9z" />
        </symbol>
        <symbol id="phone" viewBox="0 0 20 20">
            <path d="M15.1,20c-0.3,0-0.7,0-1.3-0.1c-0.6-0.1-1.3-0.3-2.2-0.7c-0.9-0.4-1.8-0.9-2.9-1.6c-1.1-0.7-2.2-1.7-3.4-2.9
	c-0.9-0.9-1.8-1.9-2.4-2.7c-0.6-0.9-1.1-1.7-1.5-2.4C1,8.8,0.7,8.2,0.5,7.6C0.3,6.9,0.2,6.4,0.1,6C0,5.5,0,5.1,0,4.9
	c0-0.2,0-0.3,0-0.4c0-0.3,0.1-0.5,0.2-0.8c0.1-0.3,0.3-0.5,0.5-0.6l2.7-2.7c0.5-0.5,1.2-0.6,1.7-0.2c0.2,0.1,0.3,0.3,0.5,0.5
	l2.2,4.1c0.2,0.3,0.2,0.7,0.1,1C7.8,6.2,7.7,6.5,7.4,6.8L6.5,7.7c0.1,0.2,0.2,0.5,0.3,0.7c0.2,0.3,0.4,0.7,0.7,1.1
	c0.3,0.4,0.8,1,1.4,1.5c0.6,0.6,1.1,1.1,1.6,1.4c0.4,0.3,0.8,0.6,1.1,0.7c0.4,0.2,0.5,0.2,0.6,0.2l0.1,0l1.1-1.1
	c0.4-0.3,0.7-0.5,1.2-0.5c0.3,0,0.5,0,0.7,0.1h0l0.1,0.1l3.9,2.3c0.4,0.3,0.6,0.6,0.7,1l0,0c0.1,0.5-0.1,0.9-0.4,1.2l-2.7,2.7
	c-0.1,0.2-0.4,0.3-0.6,0.4c-0.2,0.1-0.5,0.2-0.7,0.2l-0.2-0.5l0,0.5C15.3,20,15.2,20,15.1,20z M1,4.6c0,0,0,0.1,0,0.4
	c0,0.2,0,0.5,0.1,0.9c0.1,0.4,0.2,0.9,0.4,1.4c0.2,0.6,0.5,1.2,0.8,1.9c0.4,0.7,0.9,1.5,1.5,2.3C4.3,12.3,5,13.1,6,14
	c1.2,1.2,2.3,2.1,3.3,2.8c1,0.7,1.9,1.2,2.7,1.5c0.8,0.3,1.5,0.5,2,0.6c1.1,0.2,1.2,0.1,1.4,0.1c0.1,0,0.1,0,0.2,0
	c0.1,0,0.2-0.1,0.4-0.1c0.1-0.1,0.2-0.1,0.3-0.2l2.7-2.7c0.1-0.1,0.2-0.2,0.1-0.4c0-0.1-0.1-0.2-0.3-0.3l-3.9-2.3
	c-0.1,0-0.5-0.1-0.8,0.1l-1.1,1.1c-0.1,0.1-0.2,0.1-0.3,0.2c-0.1,0-0.2,0.1-0.3,0.1L12,14.4c-0.2,0-0.5-0.2-0.8-0.3
	c-0.3-0.2-0.8-0.4-1.2-0.8c-0.5-0.4-1.1-0.9-1.7-1.5c-0.6-0.6-1.1-1.2-1.5-1.7C6.4,9.7,6.1,9.2,5.9,8.9C5.7,8.5,5.6,8.1,5.5,7.8
	c0-0.2,0-0.3,0-0.4c0-0.1,0.1-0.2,0.2-0.3l1-1C6.8,6,6.9,5.9,6.9,5.7c0-0.1,0-0.3-0.1-0.4L4.7,1.2c0-0.1-0.1-0.1-0.2-0.2
	C4.4,0.9,4.3,0.8,4,1.1L1.4,3.8C1.3,3.9,1.2,4,1.1,4.1C1,4.3,1,4.4,1,4.6C1,4.6,1,4.6,1,4.6z" />
        </symbol>
    </defs>
</svg>