<?xml version="1.0" encoding="utf-8"?>
<!-- Generator: Adobe Illustrator 21.0.0, SVG Export Plug-In . SVG Version: 6.00 Build 0)  -->
<svg version="1.1" id="Слой_1" xmlns="http://www.w3.org/2000/svg" xmlns:xlink="http://www.w3.org/1999/xlink" x="0px" y="0px"
	 viewBox="0 0 60 60" style="enable-background:new 0 0 60 60;" xml:space="preserve">
<style type="text/css">
	.st0{fill:#FFFFFF;}
</style>
<path class="st0" d="M7.8,38h15.7c2,0,3.6-1.6,3.6-3.6v-8.7c0-2-1.6-3.6-3.6-3.6H7.8c-2,0-3.6,1.6-3.6,3.6v8.7
	C4.1,36.4,5.8,38,7.8,38z M8.8,24h13.7c1.5,0,2.6,1.2,2.6,2.6v6.7c0,1.5-1.2,2.6-2.6,2.6H8.8c-1.5,0-2.6-1.2-2.6-2.6v-6.7
	C6.1,25.2,7.3,24,8.8,24z"/>
<path class="st0" d="M18.8,29.1l-5-3c-0.3-0.2-0.7-0.2-1,0c-0.3,0.2-0.5,0.5-0.5,0.9v6c0,0.4,0.2,0.7,0.5,0.9
	c0.2,0.1,0.3,0.1,0.5,0.1c0.2,0,0.4,0,0.5-0.1l5-3c0.3-0.2,0.5-0.5,0.5-0.9S19.1,29.3,18.8,29.1z M14.2,31.2v-2.5l2.1,1.2L14.2,31.2
	z"/>
<path class="st0" d="M39,30c0-7.2-5.8-13-13-13v2c6.1,0,11,4.9,11,11s-4.9,11-11,11v2C33.2,43,39,37.2,39,30z"/>
<path class="st0" d="M31,49v-2.8c1-0.3,2-0.7,2.9-1.2l2,2c0.2,0.2,0.4,0.3,0.7,0.3s0.5-0.1,0.7-0.3l5.7-5.7c0.2-0.2,0.3-0.4,0.3-0.7
	s-0.1-0.5-0.3-0.7l-2-2c0.5-0.9,0.9-1.9,1.2-2.9H45c0.6,0,1-0.4,1-1v-8c0-0.6-0.4-1-1-1h-2.8c-0.3-1-0.7-2-1.2-2.9l2-2
	c0.2-0.2,0.3-0.4,0.3-0.7s-0.1-0.5-0.3-0.7L37.3,13c-0.4-0.4-1-0.4-1.4,0l-2,2C33,14.5,32,14.1,31,13.8V11c0-0.6-0.4-1-1-1h-4v2h3
	v2.5c0,0.5,0.3,0.9,0.8,1c1.4,0.4,2.7,0.9,3.9,1.6c0.4,0.2,0.9,0.2,1.2-0.2l1.8-1.8l4.2,4.2l-1.8,1.8c-0.3,0.3-0.4,0.8-0.2,1.2
	c0.7,1.2,1.2,2.5,1.6,3.9c0.1,0.4,0.5,0.8,1,0.8H44v6h-2.5c-0.5,0-0.9,0.3-1,0.8c-0.3,1.4-0.9,2.7-1.6,3.9c-0.2,0.4-0.2,0.9,0.2,1.2
	l1.8,1.8l-4.2,4.2l-1.8-1.8c-0.3-0.3-0.8-0.4-1.2-0.2c-1.2,0.7-2.5,1.2-3.9,1.6c-0.4,0.1-0.8,0.5-0.8,1V48h-3v2h4
	C30.6,50,31,49.6,31,49z"/>
<path class="st0" d="M8.4,17.4h6c2.2,0,4-1.8,4-4v-6c0-2.2-1.8-4-4-4h-6c-2.2,0-4,1.8-4,4v6C4.4,15.6,6.2,17.4,8.4,17.4z M6.4,7.4
	c0-1.1,0.9-2,2-2h6c1.1,0,2,0.9,2,2v6c0,1.1-0.9,2-2,2h-6c-1.1,0-2-0.9-2-2V7.4z"/>
<path class="st0" d="M11.4,13.4c1.7,0,3-1.3,3-3s-1.3-3-3-3s-3,1.3-3,3S9.7,13.4,11.4,13.4z M11.4,9.4c0.6,0,1,0.4,1,1s-0.4,1-1,1
	s-1-0.4-1-1S10.8,9.4,11.4,9.4z"/>
<path class="st0" d="M57,0c-1.3,0-2.4,0.8-2.8,2H46c-0.6,0-1,0.4-1,1v10h-4v2h5c0.6,0,1-0.4,1-1V4h7.2c0.4,1.2,1.5,2,2.8,2
	c1.7,0,3-1.3,3-3S58.7,0,57,0z M57,4c-0.6,0-1-0.4-1-1s0.4-1,1-1s1,0.4,1,1S57.6,4,57,4z"/>
<path class="st0" d="M57,27c-1.3,0-2.4,0.8-2.8,2H48v2h6.2c0.4,1.2,1.5,2,2.8,2c1.7,0,3-1.3,3-3S58.7,27,57,27z M57,31
	c-0.6,0-1-0.4-1-1s0.4-1,1-1s1,0.4,1,1C58,30.6,57.6,31,57,31z"/>
<path class="st0" d="M57,47c-1.3,0-2.4,0.8-2.8,2H49v-5c0-0.6-0.4-1-1-1h-4v2h3v5c0,0.6,0.4,1,1,1h6.2c0.4,1.2,1.5,2,2.8,2
	c1.7,0,3-1.3,3-3S58.7,47,57,47z M57,51c-0.6,0-1-0.4-1-1s0.4-1,1-1s1,0.4,1,1S57.6,51,57,51z"/>
<path class="st0" d="M28,4h2.2c0.4,1.2,1.5,2,2.8,2c1.7,0,3-1.3,3-3s-1.3-3-3-3c-1.3,0-2.4,0.8-2.8,2H27c-0.6,0-1,0.4-1,1v5h2V4z
	 M33,2c0.6,0,1,0.4,1,1s-0.4,1-1,1s-1-0.4-1-1S32.4,2,33,2z"/>
<path class="st0" d="M27,58h11.2c0.4,1.2,1.5,2,2.8,2c1.7,0,3-1.3,3-3s-1.3-3-3-3c-1.3,0-2.4,0.8-2.8,2H28v-4h-2v5
	C26,57.6,26.4,58,27,58z M41,56c0.6,0,1,0.4,1,1s-0.4,1-1,1s-1-0.4-1-1S40.4,56,41,56z"/>
<path class="st0" d="M22.4,46.8c0-2.2-1.8-4-4-4h-10c-2.2,0-4,1.8-4,4v1c0,0.4,0.1,0.8,0.2,1.2c0,0,0,0,0,0
	c-0.1,0.3-0.2,0.7-0.2,1.1v1c0,2.2,1.8,4,4,4h10c2.2,0,4-1.8,4-4v-1c0-0.4-0.1-0.7-0.2-1.1c0,0,0,0,0,0c0.1-0.4,0.2-0.8,0.2-1.2
	V46.8z M6.4,46.8c0-1.1,0.9-2,2-2h10c1.1,0,2,0.9,2,2v1c0,1.1-0.9,2-2,2h-10c-1.1,0-2-0.9-2-2V46.8z M18.4,52.9h-10
	c-1,0-1.8-0.8-2-1.7c0.6,0.3,1.3,0.5,2,0.5h10c0.7,0,1.4-0.2,2-0.5C20.2,52.2,19.4,52.9,18.4,52.9z"/>
</svg>
