<?xml version="1.0" encoding="utf-8"?>
<!-- Generator: Adobe Illustrator 21.0.0, SVG Export Plug-In . SVG Version: 6.00 Build 0)  -->
<svg version="1.1" id="Слой_1" xmlns="http://www.w3.org/2000/svg" xmlns:xlink="http://www.w3.org/1999/xlink" x="0px" y="0px"
	 viewBox="0 0 60 56" style="enable-background:new 0 0 60 56;" xml:space="preserve">
<style type="text/css">
	.st0{fill:#FFFFFF;}
</style>
<path class="st0" d="M57,44.1L56,17.8c1.1-0.4,2-1.5,2-2.8c0-1.7-1.3-3-3-3c-0.8,0-1.6,0.3-2.1,0.9L27.9,3.3C27.6,1.4,26,0,24,0
	c-2,0-3.6,1.4-3.9,3.3L5.1,8.9C4.6,8.3,3.8,8,3,8c-1.7,0-3,1.3-3,3c0,1.3,0.9,2.5,2.1,2.9l3.8,24.6C5.3,39.2,5,40,5,41
	c0,2.2,1.8,4,4,4c0.8,0,1.5-0.2,2.1-0.6L22,52.5c0,0.2,0,0.3,0,0.5c0,1.7,1.3,3,3,3c1.3,0,2.5-0.9,2.9-2.1l24.7-3.8
	c0.7,1.2,2,1.9,3.4,1.9c2.2,0,4-1.8,4-4C60,46.1,58.7,44.6,57,44.1z M48,41.4c0-0.1,0-0.3,0-0.4c0-0.8-0.3-1.6-0.9-2.1l7-19.2
	L55,44.2c-0.6,0.2-1.2,0.5-1.6,0.9L48,41.4z M42.2,40H26.8c-0.4-1.2-1.5-2-2.8-2c-0.1,0-0.3,0-0.4,0l-1.5-2.8l6.5-3.8
	c0.9,1.6,2.5,2.6,4.4,2.6c1.3,0,2.4-0.5,3.3-1.3l6.4,6.4C42.5,39.4,42.3,39.7,42.2,40z M7.7,37.2L4.3,14.7l7,7
	C11.1,22.1,11,22.5,11,23c0,1.4,0.7,2.6,1.8,3.4L9.3,37c-0.1,0-0.2,0-0.3,0C8.6,37,8.1,37.1,7.7,37.2z M27.7,5.4L50.2,14H35.8
	c-0.4-1.2-1.5-2-2.8-2c-0.2,0-0.4,0-0.6,0.1l-5.9-5C27.1,6.6,27.5,6,27.7,5.4z M37.5,31.1c0.3-0.6,0.5-1.4,0.5-2.1
	c0-0.9-0.3-1.8-0.7-2.6l15.6-9.2L45.3,38c-0.1,0-0.2,0-0.3,0c-0.2,0-0.4,0-0.5,0.1L37.5,31.1z M13,23c0-1.1,0.9-2,2-2s2,0.9,2,2
	s-0.9,2-2,2S13,24.1,13,23z M18.4,25.1l9.8,2.7C28.1,28.2,28,28.6,28,29c0,0.1,0,0.3,0,0.4l-6.9,4.1l-3.9-7.2
	C17.7,26,18.1,25.6,18.4,25.1z M29,26L19,23.2c0-0.1,0-0.2,0-0.2c0-0.1,0-0.2,0-0.3l11.9-5.5c0.3,0.3,0.7,0.5,1.1,0.7v6.3
	C30.8,24.3,29.8,25,29,26z M35.8,16H51l-15.2,8.9c-0.6-0.4-1.2-0.7-1.9-0.8v-6.3C34.8,17.5,35.5,16.8,35.8,16z M33,16
	c-0.6,0-1-0.4-1-1s0.4-1,1-1s1,0.4,1,1S33.6,16,33,16z M33,26c1.7,0,3,1.3,3,3s-1.3,3-3,3s-3-1.3-3-3S31.3,26,33,26z M18.3,20.8
	C17.6,19.7,16.4,19,15,19c-1,0-1.9,0.4-2.6,1l-6.9-6.9l23.6,2.7L18.3,20.8z M14.7,27c0.1,0,0.2,0,0.3,0c0.1,0,0.3,0,0.4,0l4,7.5
	l-7.2,4.2c-0.3-0.4-0.7-0.8-1.1-1L14.7,27z M13,40.6l7.4-4.4l1.5,2.7C21.3,39.5,21,40.2,21,41c0,1.3,0.9,2.5,2.1,2.8l0.8,6.4
	c-0.3,0.1-0.6,0.3-0.9,0.5l-10.5-7.9c0.3-0.6,0.5-1.2,0.5-1.9C13,40.9,13,40.7,13,40.6z M24,42c-0.6,0-1-0.4-1-1s0.4-1,1-1
	s1,0.4,1,1S24.6,42,24,42z M45,40c0.6,0,1,0.4,1,1s-0.4,1-1,1s-1-0.4-1-1S44.4,40,45,40z M55,14c0.6,0,1,0.4,1,1s-0.4,1-1,1
	s-1-0.4-1-1S54.4,14,55,14z M24,2c1.1,0,2,0.9,2,2s-0.9,2-2,2s-2-0.9-2-2S22.9,2,24,2z M20.3,5.3C20.8,6.9,22.3,8,24,8
	c0.2,0,0.4,0,0.6-0.1l6.1,5.2c-0.2,0.2-0.3,0.5-0.4,0.7L6,11.1c0,0,0-0.1,0-0.1c0-0.1,0-0.2,0-0.3L20.3,5.3z M3,10c0.6,0,1,0.4,1,1
	s-0.4,1-1,1s-1-0.4-1-1S2.4,10,3,10z M7,41c0-1.1,0.9-2,2-2s2,0.9,2,2s-0.9,2-2,2S7,42.1,7,41z M25,54c-0.6,0-1-0.4-1-1s0.4-1,1-1
	s1,0.4,1,1S25.6,54,25,54z M27.8,51.9c-0.3-0.8-1-1.4-1.9-1.7l-0.8-6.4c0.8-0.3,1.4-1,1.7-1.8h15.4c0.4,1.2,1.5,2,2.8,2
	c0.8,0,1.5-0.3,2-0.8l5.2,3.5C52.1,47.1,52,47.5,52,48c0,0,0,0.1,0,0.1L27.8,51.9z M56,50c-1.1,0-2-0.9-2-2s0.9-2,2-2s2,0.9,2,2
	S57.1,50,56,50z"/>
</svg>
