<?xml version="1.0" encoding="utf-8"?>
<!-- Generator: Adobe Illustrator 21.0.0, SVG Export Plug-In . SVG Version: 6.00 Build 0)  -->
<svg version="1.1" id="Слой_1" xmlns="http://www.w3.org/2000/svg" xmlns:xlink="http://www.w3.org/1999/xlink" x="0px" y="0px"
	 viewBox="0 0 58.7 60" style="enable-background:new 0 0 58.7 60;" xml:space="preserve">
<style type="text/css">
	.st0{fill:#FFFFFF;}
</style>
<path class="st0" d="M40.7,17c0-3.4-1.5-6.7-4-8.9c-2.5-2.3-6-3.4-9.4-3c-5.3,0.6-9.7,4.8-10.5,10c-0.5,3.4,0.3,6.7,2.4,9.3
	c2.2,2.9,3.4,6.1,3.4,9.3V34c0,0.6,0.4,1,1,1h10c0.6,0,1-0.4,1-1v-0.3c0-3.4,1.1-6.6,3.1-9C39.7,22.6,40.7,19.8,40.7,17z M32.7,33
	h-8c-0.2-3.5-1.5-6.8-3.8-9.8c-1.7-2.2-2.4-5-2-7.8c0.7-4.3,4.3-7.8,8.7-8.3c2.9-0.3,5.7,0.6,7.8,2.5c2.1,1.9,3.3,4.6,3.3,7.5
	c0,2.4-0.8,4.7-2.4,6.5C34.1,26,32.8,29.4,32.7,33z"/>
<rect x="24.7" y="36" class="st0" width="8" height="2"/>
<rect x="27.7" class="st0" width="2" height="3"/>
<rect x="42.7" y="16" class="st0" width="3" height="2"/>
<rect x="11.7" y="16" class="st0" width="3" height="2"/>
<rect x="38.6" y="26.5" transform="matrix(0.7071 -0.7071 0.7071 0.7071 -8.1628 36.2137)" class="st0" width="2" height="3"/>
<rect x="16.7" y="4.5" transform="matrix(0.7071 -0.7071 0.7071 0.7071 0.9171 14.2939)" class="st0" width="2" height="3"/>
<rect x="38.1" y="5" transform="matrix(0.7071 -0.7071 0.7071 0.7071 7.337 29.7939)" class="st0" width="3" height="2"/>
<rect x="16.2" y="27" transform="matrix(0.7071 -0.7071 0.7071 0.7071 -14.5827 20.7138)" class="st0" width="3" height="2"/>
<path class="st0" d="M28.1,14h1.2c0.8,0,1.4,0.5,1.4,1h2c0-1.5-1.3-2.8-3-3v-2h-2v2c-1.7,0.2-3,1.4-3,3v1c0,1.7,1.5,3,3.4,3h1.2
	c0.8,0,1.4,0.5,1.4,1v1c0,0.5-0.6,1-1.4,1h-1.2c-0.8,0-1.4-0.5-1.4-1h-2c0,1.5,1.3,2.8,3,3v2h2v-2c1.7-0.2,3-1.4,3-3v-1
	c0-1.7-1.5-3-3.4-3h-1.2c-0.8,0-1.4-0.5-1.4-1v-1C26.7,14.5,27.3,14,28.1,14z"/>
<path class="st0" d="M33.1,47.2c0.5-1,0.7-2.2,0.4-3.5c-0.4-1.8-1.9-3.2-3.7-3.7c-1.5-0.3-3.1,0-4.3,1c-1.2,1-1.9,2.4-1.9,3.9
	c0,0.8,0.2,1.6,0.5,2.2c-2,0.6-3.5,2.5-3.5,4.8v8h2v-8c0-1.6,1.3-2.9,2.8-3l1.8,0.6l-1.6,4c-0.1,0.2-0.1,0.5,0,0.7l2,5
	c0.2,0.4,0.5,0.6,0.9,0.6s0.8-0.2,0.9-0.6l2-5c0.1-0.2,0.1-0.5,0-0.7l-1.6-4l1.8-0.6c1.6,0.1,2.8,1.4,2.8,3v8h2v-8
	C36.7,49.8,35.2,47.9,33.1,47.2z M26.8,42.7c0.7-0.6,1.6-0.8,2.6-0.6c1.1,0.2,1.9,1.1,2.2,2.2c0.3,1.1-0.1,2.3-1,3l0,0l-2,0.7
	l-2-0.7l0,0c-0.7-0.6-1.1-1.4-1.1-2.3C25.7,44.1,26.1,43.2,26.8,42.7z M28.7,56.3L27.8,54l0.9-2.3l0.9,2.3L28.7,56.3z"/>
<path class="st0" d="M1.3,57.7l10.4-9.5l5.4,3.6l1.1-1.7l-6-4c-0.4-0.3-0.9-0.2-1.2,0.1l-11,10L1.3,57.7z"/>
<path class="st0" d="M57.7,33h-5v2h2.6l-8.6,8.6l-3.3-3.3c-0.2-0.2-0.5-0.3-0.8-0.3c-0.3,0-0.5,0.1-0.7,0.4l-5,6l1.5,1.3l4.3-5.2
	l3.2,3.2c0.4,0.4,1,0.4,1.4,0l9.3-9.3V39h2v-5C58.7,33.4,58.2,33,57.7,33z"/>
<rect x="53.7" y="45" class="st0" width="2" height="15"/>
<rect x="47.7" y="48" class="st0" width="2" height="12"/>
<rect x="41.7" y="46" class="st0" width="2" height="10"/>
<rect x="13.7" y="53" class="st0" width="2" height="7"/>
<rect x="7.7" y="54" class="st0" width="2" height="6"/>
<rect x="41.7" y="58" class="st0" width="2" height="2"/>
<rect x="53.7" y="41" class="st0" width="2" height="2"/>
</svg>
