<?xml version="1.0" encoding="utf-8"?>
<!-- Generator: Adobe Illustrator 21.0.0, SVG Export Plug-In . SVG Version: 6.00 Build 0)  -->
<svg version="1.1" id="Слой_1" xmlns="http://www.w3.org/2000/svg" xmlns:xlink="http://www.w3.org/1999/xlink" x="0px" y="0px"
	 viewBox="0 0 200 185.3" style="enable-background:new 0 0 200 185.3;" xml:space="preserve">
<style type="text/css">
	.st0{fill:#FFFFFF;}
</style>
<g>
	<path class="st0" d="M138.9,40.2c0.7-0.7,1.9-0.7,2.6,0l3.5,3.6c0.4,0.4,0.5,0.8,0.5,1.3c0,0.5-0.2,1-0.5,1.3l-4.4,4.4l4.5,4.5
		l4.4-4.4c1.5-1.5,2.4-3.6,2.4-5.8c0-2.2-0.9-4.2-2.4-5.8l-3.6-3.6c-1.5-1.5-3.6-2.4-5.8-2.4c-2.2,0-4.2,0.9-5.8,2.4l-4.4,4.4
		l4.5,4.5L138.9,40.2z"/>
	<path class="st0" d="M11.9,55.3l4.5-4.5l-4.4-4.4c-0.4-0.4-0.5-0.8-0.5-1.3c0-0.5,0.2-1,0.5-1.3l3.6-3.5c0.7-0.7,1.9-0.7,2.6,0
		l4.4,4.4l4.5-4.5l-4.4-4.4c-1.5-1.5-3.6-2.4-5.8-2.4c-2.2,0-4.2,0.9-5.8,2.4l-3.6,3.6c-1.5,1.5-2.4,3.6-2.4,5.8
		c0,2.2,0.9,4.2,2.4,5.8L11.9,55.3z"/>
	<rect x="75.4" y="43.4" class="st0" width="6.3" height="7.8"/>
	<rect x="45.6" y="51.3" transform="matrix(0.866 -0.5001 0.5001 0.866 -21.0855 31.7806)" class="st0" width="6.3" height="7.8"/>
	<rect x="23.8" y="73.1" transform="matrix(0.5001 -0.866 0.866 0.5001 -53.2133 61.8551)" class="st0" width="6.3" height="7.8"/>
	<rect x="15.1" y="103.6" class="st0" width="7.8" height="6.3"/>
	
		<rect x="23.1" y="133.4" transform="matrix(0.8661 -0.4999 0.4999 0.8661 -64.6431 31.7649)" class="st0" width="7.8" height="6.3"/>
	
		<rect x="44.9" y="155.2" transform="matrix(0.5001 -0.866 0.866 0.5001 -112.7317 121.3727)" class="st0" width="7.8" height="6.3"/>
	<rect x="75.4" y="162.4" class="st0" width="6.3" height="7.8"/>
	
		<rect x="105.1" y="154.4" transform="matrix(0.8661 -0.4999 0.4999 0.8661 -64.6457 75.3274)" class="st0" width="6.3" height="7.8"/>
	
		<rect x="126.9" y="132.6" transform="matrix(0.5002 -0.8659 0.8659 0.5002 -53.2209 180.8561)" class="st0" width="6.3" height="7.8"/>
	
		<rect x="126.2" y="73.9" transform="matrix(0.8661 -0.4999 0.4999 0.8661 -21.0831 75.3272)" class="st0" width="7.8" height="6.3"/>
	<rect x="104.4" y="52.1" transform="matrix(0.5 -0.866 0.866 0.5 6.3108 121.3791)" class="st0" width="7.8" height="6.3"/>
	<path class="st0" d="M196.9,109.9v-6.3h-7.5L200,92.3h-31.2l-10.6,11.3h-1.2c-1.6-40.8-34.5-73.7-75.3-75.3v-3.2h6.3
		c3.4,0,6.5-1.3,8.9-3.7c2.4-2.4,3.7-5.5,3.7-8.9c0-3.4-1.3-6.5-3.7-8.9C94.5,1.3,91.3,0,87.9,0H69.1c-3.4,0-6.5,1.3-8.9,3.7
		c-2.4,2.4-3.7,5.5-3.7,8.9c0,3.4,1.3,6.5,3.7,8.9c2.4,2.4,5.5,3.7,8.9,3.7h6.3v3.2C33.5,30,0,64.5,0,106.8
		c0,43.3,35.2,78.5,78.5,78.5c42.2,0,76.8-33.5,78.4-75.4h1.2l10.6,11.3H200l-10.6-11.3H196.9z M69.1,18.8c-1.7,0-3.2-0.7-4.4-1.8
		c-1.2-1.2-1.8-2.8-1.8-4.4c0-1.7,0.7-3.2,1.8-4.4c1.2-1.2,2.8-1.8,4.4-1.8v0h18.8c1.7,0,3.2,0.7,4.4,1.8c1.2,1.2,1.8,2.8,1.8,4.4
		s-0.7,3.2-1.8,4.4c-1.2,1.2-2.8,1.8-4.4,1.8h-6.3v-6.3h-6.3v6.3H69.1z M171.5,98.7h13.9l-4.7,5h-13.9L171.5,98.7z M78.5,179
		c-39.8,0-72.2-32.4-72.2-72.2s32.4-72.2,72.2-72.2c38.7,0,70.5,30.7,72.1,69h-8.7h-7.8h-8.9c-1.6-24.4-22-43.7-46.7-43.7
		c-25.8,0-46.8,21-46.8,46.8c0,25.8,21,46.8,46.8,46.8c24.8,0,45.1-19.3,46.7-43.7h8.9h7.8h8.7C149,148.3,117.3,179,78.5,179z
		 M93.3,103.6c-1.5-6.8-7.5-11.9-14.8-11.9c-8.3,0-15.1,6.8-15.1,15.1c0,8.3,6.8,15.1,15.1,15.1c7.2,0,13.3-5.1,14.8-11.9h25.6
		c-1.6,20.9-19.1,37.4-40.4,37.4c-22.3,0-40.5-18.2-40.5-40.5c0-22.3,18.2-40.5,40.5-40.5c21.3,0,38.8,16.5,40.4,37.4H93.3z
		 M86.7,109.9c-1.3,3.3-4.5,5.6-8.2,5.6c-4.8,0-8.8-3.9-8.8-8.8s3.9-8.8,8.8-8.8c3.7,0,6.9,2.3,8.2,5.6h-8.2v6.3H86.7z M185.4,114.9
		h-13.9l-4.7-5h13.9L185.4,114.9z"/>
</g>
</svg>
