<svg id="Слой_1" data-name="Слой 1" xmlns="http://www.w3.org/2000/svg" viewBox="0 0 64 64"><defs><style>.cls-1{fill:#ff6f61;}</style></defs><title>Referral</title><path class="cls-1" d="M42,2V6a1,1,0,0,0,.17.55L44,9.3V18a2,2,0,0,1-2,2V17H40v4a2,2,0,0,1-2,2V19H36v5a2,2,0,0,1-2,2V21H32V33a1,1,0,0,1-2,0V15H28v3.24a3.38,3.38,0,0,1-1-2.4V8.53l2.56-1.7A1,1,0,0,0,30,6V2H28V5.47l-2.56,1.7A1,1,0,0,0,25,8v7.84a5.37,5.37,0,0,0,3,4.82V33a3,3,0,0,0,6,0V28a4,4,0,0,0,3.87-3H38a4,4,0,0,0,3.87-3H42a4,4,0,0,0,4-4V9a1,1,0,0,0-.17-.56L44,5.7V2Z"/><path class="cls-1" d="M25,62H37a1,1,0,0,0,1-1V52.38a4.39,4.39,0,0,0-2.6-4,5,5,0,0,0-3.24-7.25,5,5,0,0,0-4.27,1,5,5,0,0,0-1.27,6.28,4.39,4.39,0,0,0-2.61,4V61A1,1,0,0,0,25,62Zm4.13-18.35A3,3,0,0,1,33,48.24l-2,1.51-2-1.5A3,3,0,0,1,28,46,3,3,0,0,1,29.13,43.65Zm2.72,10.42L31,55.76l-.85-1.69L31,52.8ZM26,52.38A2.38,2.38,0,0,1,28.08,50l1.57,1.19-1.48,2.22a1,1,0,0,0-.06,1l2,4a1,1,0,0,0,1.79,0l2-4a1,1,0,0,0-.06-1l-1.48-2.22L33.92,50A2.38,2.38,0,0,1,36,52.38V60H26Z"/><path class="cls-1" d="M59.4,48.38a5,5,0,0,0-3.24-7.25,5,5,0,0,0-4.27,1,5,5,0,0,0-1.27,6.28,4.39,4.39,0,0,0-2.61,4V61a1,1,0,0,0,1,1H61a1,1,0,0,0,1-1V52.38A4.39,4.39,0,0,0,59.4,48.38Zm-6.26-4.72A3,3,0,0,1,57,48.24l-2,1.51-2-1.5A3,3,0,0,1,52,46,3,3,0,0,1,53.13,43.65Zm2.72,10.42L55,55.76l-.85-1.69L55,52.8ZM60,60H50V52.38A2.38,2.38,0,0,1,52.08,50l1.57,1.19-1.48,2.22a1,1,0,0,0-.06,1l2,4a1,1,0,0,0,1.79,0l2-4a1,1,0,0,0-.06-1l-1.48-2.22L57.92,50A2.38,2.38,0,0,1,60,52.38Z"/><path class="cls-1" d="M2,61a1,1,0,0,0,1,1H15a1,1,0,0,0,1-1V52.38a4.39,4.39,0,0,0-2.6-4,5,5,0,0,0-3.24-7.25,5,5,0,0,0-4.27,1,5,5,0,0,0-1.27,6.28,4.39,4.39,0,0,0-2.61,4ZM7.13,43.65A3,3,0,0,1,11,48.24L9,49.74l-2-1.5A3,3,0,0,1,6,46,3,3,0,0,1,7.13,43.65ZM9.85,54.07,9,55.76l-.85-1.69L9,52.8ZM4,52.38A2.38,2.38,0,0,1,6.08,50l1.57,1.19L6.17,53.45a1,1,0,0,0-.06,1l2,4a1,1,0,0,0,1.79,0l2-4a1,1,0,0,0-.06-1l-1.48-2.22L11.92,50A2.38,2.38,0,0,1,14,52.38V60H4Z"/><rect class="cls-1" x="35.56" y="38.06" width="3" height="2" transform="translate(-16.77 37.65) rotate(-45)"/><rect class="cls-1" x="24.06" y="37.56" width="2" height="3" transform="translate(-20.28 29.16) rotate(-45)"/><rect class="cls-1" x="37.94" y="43.02" width="2" height="3" transform="translate(-15.76 67.03) rotate(-71.2)"/><rect class="cls-1" x="21.5" y="43.36" width="3" height="2" transform="translate(-16.86 14.23) rotate(-25.51)"/><rect class="cls-1" x="2" y="2" width="18" height="2"/><rect class="cls-1" x="7" y="6" width="15" height="2"/><rect class="cls-1" x="48" y="6" width="10" height="2"/><rect class="cls-1" x="49" y="2" width="13" height="2"/></svg>