<svg id="Слой_1" data-name="Слой 1" xmlns="http://www.w3.org/2000/svg" viewBox="0 0 64 64"><defs><style>.cls-1{fill:#ff6f61;}</style></defs><title>Referral</title><path class="cls-1" d="M55.79,47.5a8,8,0,1,0-11.59,0,12.06,12.06,0,0,0-6,8.32l2,.36a10,10,0,0,1,5.78-7.3,7.94,7.94,0,0,0,2.4.94l-2.2,3.66a1,1,0,0,0,0,1l3,6a1,1,0,0,0,1.79,0l3-6a1,1,0,0,0,0-1l-2.2-3.66a8,8,0,0,0,2.4-.95A9.92,9.92,0,0,1,60,58v4h2V58a11.92,11.92,0,0,0-3.51-8.49A12.06,12.06,0,0,0,55.79,47.5ZM51.86,54,50,57.76,48.14,54,50,50.94ZM50,48a6,6,0,1,1,6-6A6,6,0,0,1,50,48Z"/><path class="cls-1" d="M17,32H4V4H24V25h2V3a1,1,0,0,0-1-1H3A1,1,0,0,0,2,3V33a1,1,0,0,0,1,1H17Z"/><path class="cls-1" d="M22,21V7a1,1,0,0,0-1-1H7A1,1,0,0,0,6,7V21a1,1,0,0,0,1,1H21A1,1,0,0,0,22,21Zm-6-1H12V18a2,2,0,0,1,4,0Zm-3-7a1,1,0,1,1,1,1A1,1,0,0,1,13,13Zm7,7H18V18a4,4,0,0,0-1.62-3.19A3,3,0,0,0,17,13a3,3,0,0,0-6,0,3,3,0,0,0,.62,1.81A4,4,0,0,0,10,18v2H8V8H20Z"/><rect class="cls-1" x="6" y="24" width="10" height="2"/><rect class="cls-1" x="18" y="24" width="4" height="2"/><rect class="cls-1" x="8" y="28" width="7" height="2"/><path class="cls-1" d="M23.67,41.28a8,8,0,0,0,2.19.64l.28-2a5.93,5.93,0,0,1-1.64-.48Z"/><path class="cls-1" d="M28.14,41.92a7.9,7.9,0,0,0,2.19-.64l-.83-1.82a5.93,5.93,0,0,1-1.64.48Z"/><path class="cls-1" d="M23.68,26.72A8,8,0,0,0,21.76,28l1.31,1.51a6,6,0,0,1,1.44-.92Z"/><path class="cls-1" d="M34.68,31.75a8,8,0,0,0-.95-2.07L32,30.76a6,6,0,0,1,.71,1.55Z"/><path class="cls-1" d="M27.86,28.06l.28-2a8.23,8.23,0,0,0-2.27,0l.28,2A6.16,6.16,0,0,1,27.86,28.06Z"/><path class="cls-1" d="M32.24,28a8,8,0,0,0-1.92-1.23l-.83,1.82a6,6,0,0,1,1.44.92Z"/><path class="cls-1" d="M35,34H33a6,6,0,0,1-.24,1.69l1.92.56A8,8,0,0,0,35,34Z"/><path class="cls-1" d="M33.73,38.33,32,37.24a6,6,0,0,1-1.12,1.29L32.24,40A8,8,0,0,0,33.73,38.33Z"/><path class="cls-1" d="M22,30.76l-1.68-1.08a8,8,0,0,0-.95,2.07l1.92.56A6,6,0,0,1,22,30.76Z"/><path class="cls-1" d="M21.24,35.69A6,6,0,0,1,21,34H19a8,8,0,0,0,.32,2.25Z"/><path class="cls-1" d="M23.07,38.53A6,6,0,0,1,22,37.24l-1.68,1.08A8,8,0,0,0,21.76,40Z"/><path class="cls-1" d="M29.22,30.38l-3.3,4.13-1.21-1.21-1.41,1.41,2,2A1,1,0,0,0,26,37h.06a1,1,0,0,0,.73-.37l4-5Z"/><path class="cls-1" d="M13,50V45.3l2.17,3.25,1.66-1.11-4-6a1,1,0,0,0-1.66,0l-4,6,1.66,1.11L11,45.3V50A11,11,0,0,0,22,61H41V59H22A9,9,0,0,1,13,50Z"/></svg>