<svg id="Слой_1" data-name="Слой 1" xmlns="http://www.w3.org/2000/svg" viewBox="0 0 64 64"><defs><style>.cls-1{fill:#ff6f61;}</style></defs><title>Referral</title><path class="cls-1" d="M6.91,28.25a3.46,3.46,0,0,0-4.73,3.56l1.7,16.76A5,5,0,0,0,5,51.29l5.78,6.85L9.1,61.55l1.79.9,2-4a1,1,0,0,0-.13-1.09L6.56,50a3,3,0,0,1-.69-1.63L4.17,31.61A1.46,1.46,0,0,1,5,30.16,1.46,1.46,0,0,1,7,31l3.9,10.91a3.1,3.1,0,0,0,.49,2l3.79,5.69,1.66-1.11L13,42.77A1.11,1.11,0,0,1,13,41.61a1.16,1.16,0,0,1,1.88-.17l4.69,5.86C21,49.17,21.78,54.47,21.49,57L20,61.7l1.91.59,1.47-4.76a1.11,1.11,0,0,0,0-.17c.36-2.88-.4-8.87-2.35-11.31l-4.69-5.86a3.12,3.12,0,0,0-4.23-.61L8.87,30.3A3.46,3.46,0,0,0,6.91,28.25Z"/><path class="cls-1" d="M60.28,48.57,62,31.81a3.46,3.46,0,0,0-6.7-1.51L52,39.59a3.12,3.12,0,0,0-4.23.61l-4.69,5.86c-2,2.45-2.71,8.43-2.35,11.31a1,1,0,0,0,0,.17l1.47,4.76,1.91-.59L42.67,57c-.29-2.56.45-7.87,1.94-9.73l4.69-5.86a1.16,1.16,0,0,1,1.88.17,1.11,1.11,0,0,1-.06,1.16l-3.79,5.69L49,49.57l3.79-5.69a3.1,3.1,0,0,0,.49-2L57.17,31a1.46,1.46,0,0,1,2-.81,1.47,1.47,0,0,1,.8,1.45l-1.7,16.76A3,3,0,0,1,57.6,50l-6.2,7.35a1,1,0,0,0-.13,1.09l2,4,1.79-.9-1.71-3.41,5.78-6.85A5,5,0,0,0,60.28,48.57Z"/><path class="cls-1" d="M24.65,3.32a20.74,20.74,0,0,0-2,.85L23.58,6a18.83,18.83,0,0,1,1.76-.76Z"/><path class="cls-1" d="M37.2,2.65a20.94,20.94,0,0,0-2.08-.42l-.29,2a19.22,19.22,0,0,1,1.88.38Z"/><path class="cls-1" d="M29.14,41.79l-.3,2c.7.1,1.41.18,2.11.21l.1-2A19.13,19.13,0,0,1,29.14,41.79Z"/><path class="cls-1" d="M32.9,4,33,2,32,2c-.39,0-.76,0-1.13,0L31,4l1,0Z"/><path class="cls-1" d="M28.76,2.25a20.47,20.47,0,0,0-2.08.43l.51,1.94a18.79,18.79,0,0,1,1.88-.39Z"/><path class="cls-1" d="M34.9,41.78A18.63,18.63,0,0,1,33,42l.1,2a20.94,20.94,0,0,0,2.12-.22Z"/><path class="cls-1" d="M17.6,35.4a19,19,0,0,1-1.18-1.52L14.78,35a21.22,21.22,0,0,0,1.31,1.68Z"/><path class="cls-1" d="M11.11,25.17l2-.2A19.19,19.19,0,0,1,13,23H11C11,23.75,11,24.47,11.11,25.17Z"/><path class="cls-1" d="M20.39,38a19.17,19.17,0,0,1-1.46-1.25l-1.38,1.45a21.1,21.1,0,0,0,1.61,1.38Z"/><path class="cls-1" d="M15.4,32.25a19,19,0,0,1-.85-1.73l-1.84.79a21.06,21.06,0,0,0,.94,1.91Z"/><path class="cls-1" d="M49.44,15.44a18.86,18.86,0,0,1,.67,1.8l1.91-.6a20.77,20.77,0,0,0-.75-2Z"/><path class="cls-1" d="M20.92,40.84a21,21,0,0,0,1.86,1l.88-1.8A18.87,18.87,0,0,1,22,39.14Z"/><path class="cls-1" d="M20.84,5.21A21.24,21.24,0,0,0,19.1,6.43L20.33,8a18.91,18.91,0,0,1,1.58-1.1Z"/><path class="cls-1" d="M25.42,40.83l-.69,1.88a21,21,0,0,0,2,.63l.5-1.94A19,19,0,0,1,25.42,40.83Z"/><path class="cls-1" d="M11.43,27.27A20.89,20.89,0,0,0,12,29.33l1.91-.6a19.11,19.11,0,0,1-.48-1.86Z"/><path class="cls-1" d="M45,9.18a18.77,18.77,0,0,1,1.33,1.39l1.51-1.31a21.1,21.1,0,0,0-1.47-1.54Z"/><path class="cls-1" d="M39.23,3.28l-.69,1.88c.6.22,1.2.47,1.77.75l.88-1.8A20.84,20.84,0,0,0,39.23,3.28Z"/><path class="cls-1" d="M44.8,6.35A21.23,21.23,0,0,0,43,5.14L42,6.84c.54.34,1.08.7,1.58,1.1Z"/><path class="cls-1" d="M43.64,38l1.23,1.58a21.07,21.07,0,0,0,1.61-1.39L45.1,36.76C44.63,37.21,44.14,37.63,43.64,38Z"/><path class="cls-1" d="M16,9.36l1.52,1.3c.42-.49.86-1,1.32-1.4L17.49,7.82A21.12,21.12,0,0,0,16,9.36Z"/><path class="cls-1" d="M50.6,19.1a18.93,18.93,0,0,1,.3,1.9l2-.21a21.15,21.15,0,0,0-.33-2.1Z"/><path class="cls-1" d="M51,23a19.14,19.14,0,0,1-.1,1.92l2,.2q.1-1,.11-2.14l-.61,0Z"/><path class="cls-1" d="M47.56,12.09a18.71,18.71,0,0,1,1,1.63l1.74-1a21.14,21.14,0,0,0-1.13-1.8Z"/><path class="cls-1" d="M46.42,35.37l1.52,1.3c.46-.54.9-1.1,1.3-1.68L47.6,33.85A19.26,19.26,0,0,1,46.42,35.37Z"/><path class="cls-1" d="M52.57,27.22l-2-.4c-.13.62-.29,1.25-.48,1.86l1.91.6A21.23,21.23,0,0,0,52.57,27.22Z"/><path class="cls-1" d="M11.1,20.92l2,.2c.06-.64.16-1.28.28-1.9l-2-.4C11.28,19.51,11.17,20.22,11.1,20.92Z"/><path class="cls-1" d="M48.62,32.22l1.75,1c.34-.62.66-1.26.94-1.91l-1.84-.79C49.22,31.07,48.93,31.66,48.62,32.22Z"/><path class="cls-1" d="M13.61,12.85l1.75,1c.31-.56.65-1.11,1-1.63L14.73,11A20.94,20.94,0,0,0,13.61,12.85Z"/><path class="cls-1" d="M11.94,16.76l1.91.59c.19-.6.41-1.21.66-1.81l-1.84-.78C12.4,15.42,12.15,16.09,11.94,16.76Z"/><path class="cls-1" d="M38.62,40.82a19,19,0,0,1-1.83.58l.5,1.94a20.8,20.8,0,0,0,2-.64Z"/><path class="cls-1" d="M43.12,40.82l-1.06-1.69a19.14,19.14,0,0,1-1.68.94l.88,1.79A21.1,21.1,0,0,0,43.12,40.82Z"/><path class="cls-1" d="M23.87,31.63a5,5,0,0,0,7.07,0l2.12-2.12L31.65,28.1l-2.12,2.12A3,3,0,0,1,25.28,26l2.83-2.83a3,3,0,0,1,4.24,0l1.41-1.41a5,5,0,0,0-7.07,0l-2.83,2.83A5,5,0,0,0,23.87,31.63Z"/><path class="cls-1" d="M34.47,16.78A3,3,0,0,1,38.72,21l-2.83,2.83a3,3,0,0,1-4.24,0l-1.41,1.41a5,5,0,0,0,7.07,0l2.83-2.83a5,5,0,0,0-7.07-7.07l-2.12,2.12,1.41,1.41Z"/></svg>