<?xml version="1.0" encoding="utf-8"?>
<!-- Generator: Adobe Illustrator 21.0.0, SVG Export Plug-In . SVG Version: 6.00 Build 0)  -->
<svg version="1.1" id="Слой_1" xmlns="http://www.w3.org/2000/svg" xmlns:xlink="http://www.w3.org/1999/xlink" x="0px" y="0px"
	 viewBox="0 0 250 250" style="enable-background:new 0 0 250 250;" xml:space="preserve">
<style type="text/css">
	.st0{fill:#FF6F61;}
</style>
<g>
	<path class="st0" d="M97.1,108.6c-0.8,0.2-1.3,0.9-1.3,1.7v1.1c0,4.7,3.6,7.5,9.4,7.5c3.2,0,5.6,2.4,5.6,5.6v9.4h0.1
		c-9,7.8-14,20-14,35.3h3.8c0-25.6,15.2-41.4,39.5-41.4v-3.8c-10.1,0-18.7,2.5-25.6,7.1v-6.6c0-5.3-4.1-9.4-9.4-9.4
		c-5.1,0-5.6-2.3-5.6-3.4c7.2-3,11.5-10.2,11.3-17.9c0-0.4,0-1.1,0-1.3c0-9.4-7.5-16.9-16.9-16.9H71.3c-1.1,0-1.9,0.8-1.9,1.9
		c0,4.3,1.7,8.5,4.5,11.5c-0.4,1.9-0.8,3.6-0.8,5.5c0,7.5,4.5,14.3,11.3,17.3c0,1.1-0.6,3.4-5.6,3.4c-5.3,0-9.4,4.1-9.4,9.4v9.4h3.8
		v-9.4c0-3.2,2.4-5.6,5.6-5.6c5.8,0,9.4-2.8,9.4-7.5v-0.9c0-0.8-0.6-1.5-1.3-1.7c-6-2.3-10-7.9-10-14.3c0-0.9,0-1.9,0.2-2.6
		c2.6,1.7,5.8,2.6,9.2,2.6h20.7C107.1,100.9,103.1,106.5,97.1,108.6z M86.3,90.7c-6.6,0-12.1-4.9-13-11.3h20.5
		c6.6,0,12.1,4.9,13,11.3H86.3z"/>
	<path class="st0" d="M75,64.3h22.6c5.3,0,9.4,4.1,9.4,9.4h3.8c0-7.3-5.8-13.2-13.2-13.2H75V36.1h37.7c2.1,0,3.8,1.7,3.8,3.8v32
		c0.2,4-0.9,7.7-3.4,10.9l2.8,2.4c3-3.8,4.5-8.5,4.1-13.4v-32c0.2-4.1-3.2-7.5-7.3-7.5H75v-3.8c0-4.1-3.4-7.5-7.5-7.5H14.8
		c-4.1,0-7.5,3.4-7.5,7.5V70c0,7.9,2.8,13.6,8.5,16.9l1.9-3.2C13.3,80.9,11,76.6,11,70V28.6c0-2.1,1.7-3.8,3.8-3.8h52.7
		c2.1,0,3.8,1.7,3.8,3.8v35.8c0,2.1-1.7,3.8-3.8,3.8H34c-5.8,0-10.9,4.3-11.7,10.2c0,0.4,0,0.8,0,1.1h3.8c0-0.2,0-0.6,0-0.8
		c0.6-4,4-6.8,7.9-6.8h33.5C71.7,71.9,75,68.5,75,64.3z"/>
	<path class="st0" d="M54.3,117.1c-3,0-5.5-2.3-5.6-5.3c9.6-4.1,13.9-15.3,9.8-24.9c-4.1-9.6-15.3-13.9-24.9-9.8
		C24,81.3,19.7,92.4,23.8,102c1.9,4.3,5.5,7.9,9.8,9.8c-0.2,3-2.6,5.3-5.6,5.3c-5.3,0-9.4,4.1-9.4,9.4v7.5h3.8v-7.5
		c0-3.2,2.4-5.6,5.6-5.6c5.3,0,9.4-4.1,9.4-9.4v-0.9c0-0.8-0.6-1.5-1.3-1.7c-5.3-1.9-9.2-6.6-10-12.2h5.6c0.4,0,0.8-0.2,1.1-0.4
		l4.5-3l4.5,3c0.4,0.2,0.8,0.4,1.1,0.4h13c-0.8,5.6-4.5,10.4-10,12.2c-0.8,0.2-1.3,0.9-1.3,1.7v0.9c0,5.3,4.1,9.4,9.4,9.4
		c3.2,0,5.6,2.4,5.6,5.6v7.5h3.8v-7.5C63.7,121.2,59.6,117.1,54.3,117.1z M43.6,92.6l-5.1-3.4c-0.6-0.4-1.5-0.4-2.1,0l-5.3,3.4h-4.9
		c0.9-8.3,8.5-14.1,16.8-13c6.8,0.9,12.2,6.2,13,13H43.6z"/>
	<rect x="16.7" y="30.4" class="st0" width="39.5" height="3.8"/>
	<rect x="16.7" y="38" class="st0" width="11.3" height="3.8"/>
	<rect x="31.7" y="38" class="st0" width="28.2" height="3.8"/>
	<rect x="16.7" y="45.5" class="st0" width="3.8" height="3.8"/>
	<rect x="24.2" y="45.5" class="st0" width="15.1" height="3.8"/>
	<rect x="43" y="45.5" class="st0" width="16.9" height="3.8"/>
	<rect x="86.3" y="43.6" class="st0" width="26.4" height="3.8"/>
	<rect x="78.8" y="51.2" class="st0" width="13.2" height="3.8"/>
	<rect x="95.8" y="51.2" class="st0" width="16.9" height="3.8"/>
	<rect x="78.8" y="43.6" class="st0" width="3.8" height="3.8"/>
	<path class="st0" d="M209.6,142.9c-2.1-14.4-15.5-24.4-29.9-22.3c-6.5,1-12.4,4.3-16.6,9.4c-3.3,4.2-8.7,6.1-13.9,4.8
		c-4.3-1.2-8.9-1.5-13.4-1c-15.1,2-27.1,13.9-29.3,29c-0.9,6.7,0.2,13.6,3.2,19.7c-7.3,0.1-13.1,6.1-13,13.4c0.1,6.5,5,12,11.5,12.9
		l2,20.8c0,2.1,1.7,3.8,3.8,3.8h11c1.1,0,2.1-0.5,2.9-1.3c0.7-0.9,1-2.1,0.8-3.2l-5-20h0.9c2.1,0,4.2,0.2,6.2,0.4
		c6.8,14.7,21.4,24,37.6,24c1.2,0,2.5-0.1,3.8-0.2c20-2,35.7-17.9,37.5-37.9c0.7-8.9-1.4-17.7-6.2-25.3c-1.3-2.1-1.2-4.8,0.4-6.7
		C208.6,157.6,210.7,150.2,209.6,142.9z M108.2,204.9c-5.1-1-8.4-6-7.4-11.1c0.8-3.7,3.6-6.6,7.4-7.4V204.9z M125.1,229.6l-11-0.2
		l-2-20.5h7.8L125.1,229.6z M111.9,205.1v-18.8h3.8v18.8H111.9z M124.7,205.1h-5.2v-18.8h5.2c5.5,0,10.9-0.9,16.1-2.6l8.8-2.9v29.9
		l-8.8-2.9C135.6,206,130.2,205.1,124.7,205.1z M200.4,172c4.3,6.9,6.3,14.9,5.6,23c-1.7,20.7-19.8,36.1-40.5,34.5
		c-12.6-1-23.8-8.3-29.9-19.3c1.4,0.3,2.7,0.7,4,1.1l20.7,6.9c0.2,0.1,0.4,0.1,0.6,0.1c1,0,1.9-0.8,1.9-1.9V207
		c4.2,0,7.5-3.4,7.5-7.5v-7.5c0-4.2-3.4-7.5-7.5-7.5V175c0-1-0.8-1.9-1.9-1.9c-0.2,0-0.4,0-0.6,0.1l-20.7,6.9
		c-4.8,1.6-9.8,2.4-14.9,2.4h-10.6c-3.4-5.8-4.7-12.6-3.8-19.2c2.3-16.5,17.5-28,33.9-25.7c1.3,0.2,2.6,0.5,3.9,0.8
		c6.6,1.7,13.6-0.7,17.8-6c7.9-9.7,22.1-11.1,31.8-3.2c9.7,7.9,11.1,22.1,3.2,31.8C198.5,164.1,198.2,168.5,200.4,172z M153.4,211.9
		v-32.4l5.6-1.9v36.2L153.4,211.9z M162.8,203.2v-15.1c2.1,0,3.8,1.7,3.8,3.8v7.5C166.5,201.5,164.9,203.2,162.8,203.2z"/>
	<rect x="123.2" y="197.6" class="st0" width="7.5" height="3.8"/>
	<rect x="123.2" y="190" class="st0" width="7.5" height="3.8"/>
	<path class="st0" d="M192.1,145.1l-11.3-7.5c-0.9-0.6-2-0.3-2.6,0.5c-0.2,0.3-0.3,0.7-0.3,1v15.1c0,0.7,0.4,1.3,1,1.7
		c0.6,0.3,1.4,0.3,1.9-0.1l11.3-7.5c0.9-0.6,1.1-1.7,0.5-2.6C192.4,145.5,192.3,145.3,192.1,145.1z M181.6,150.7v-8l6,4L181.6,150.7
		z"/>
	<path class="st0" d="M183.5,129.8c-9.4,0-16.9,7.6-16.9,16.9c0,9.4,7.6,16.9,16.9,16.9c9.4,0,16.9-7.6,16.9-16.9
		C200.4,137.4,192.8,129.8,183.5,129.8z M183.5,159.9c-7.3,0-13.2-5.9-13.2-13.2c0-7.3,5.9-13.2,13.2-13.2c7.3,0,13.2,5.9,13.2,13.2
		S190.8,159.9,183.5,159.9z"/>
	<path class="st0" d="M145.8,154.2h-1.9c-1,0-1.9-0.8-1.9-1.9v-5.6c0-3.1-2.5-5.6-5.6-5.6c-3.1,0-5.6,2.5-5.6,5.6v5.6
		c0,1-0.8,1.9-1.9,1.9c0-1-0.8-1.9-1.9-1.9h-7.5c-1,0-1.9,0.8-1.9,1.9V175c0,1,0.8,1.9,1.9,1.9h7.5c1,0,1.9-0.8,1.9-1.9h16.9
		c3.1,0,5.6-2.5,5.6-5.6v-9.4C151.5,156.8,148.9,154.2,145.8,154.2z M125.1,173.1h-3.8v-16.9h3.8V173.1z M147.7,169.3
		c0,1-0.8,1.9-1.9,1.9h-16.9V158c3.1,0,5.6-2.5,5.6-5.6v-5.6c0-1,0.8-1.9,1.9-1.9c1,0,1.9,0.8,1.9,1.9v5.6c0,3.1,2.5,5.6,5.6,5.6
		h1.9c1,0,1.9,0.8,1.9,1.9V169.3z"/>
	<path class="st0" d="M192.7,187.2l-2,1.4l-2-1.4c-2.2-1.5-5.2-1.2-7.1,0.7l-0.8,0.8c-2.2,2.2-2.2,5.8,0,8l8.6,8.6
		c0.7,0.7,1.9,0.7,2.7,0l8.6-8.6c2.2-2.2,2.2-5.8,0-8l-0.8-0.8C197.9,186,195,185.7,192.7,187.2z M197.2,190.6L197.2,190.6l0.8,0.8
		c0.7,0.7,0.7,1.9,0,2.7c0,0,0,0,0,0l-7.3,7.3l-7.3-7.3c-0.7-0.7-0.7-1.9,0-2.7l0.8-0.8c0.6-0.6,1.6-0.7,2.4-0.2l3.1,2.1
		c0.6,0.4,1.5,0.4,2.1,0l3.1-2.1C195.6,189.8,196.6,189.9,197.2,190.6z"/>
	
		<rect x="167.4" y="173.1" transform="matrix(0.2428 -0.9701 0.9701 0.2428 -40.0534 298.6096)" class="st0" width="7.8" height="3.8"/>
	
		<rect x="173.6" y="178.7" transform="matrix(0.8944 -0.4472 0.4472 0.8944 -61.9952 98.597)" class="st0" width="8.4" height="3.8"/>
	
		<rect x="169.4" y="214.4" transform="matrix(0.9701 -0.2425 0.2425 0.9701 -47.8243 48.0486)" class="st0" width="3.8" height="7.8"/>
	
		<rect x="176" y="208.4" transform="matrix(0.4472 -0.8944 0.8944 0.4472 -91.8663 276.5956)" class="st0" width="3.8" height="8.4"/>
	<rect x="144.7" y="95.9" class="st0" width="15.1" height="3.8"/>
	<path class="st0" d="M152.3,112.9c3.1,0,5.6-2.5,5.6-5.6v-1.9h1.9v-3.8h-15.1v3.8h1.9v1.9C146.6,110.4,149.2,112.9,152.3,112.9z
		 M150.4,105.4h3.8v1.9c0,1-0.8,1.9-1.9,1.9s-1.9-0.8-1.9-1.9V105.4z"/>
	<path class="st0" d="M146.5,71.8l4.7,3.2c0.6,0.4,1.5,0.4,2.1,0l4.7-3.2l6.6,3.3l1.7-3.4l-7.5-3.8c-0.6-0.3-1.3-0.3-1.9,0.1
		l-4.6,3.1l-4.6-3.1c-0.6-0.4-1.3-0.4-1.9-0.1l-7.5,3.8l1.7,3.4L146.5,71.8z"/>
	<path class="st0" d="M149.9,93.9c0.8,0.1,1.6,0.1,2.4,0.1c4,0,7.9-1.1,11.3-3.1c0,0.4,0,0.8,0,1.2c0,11.4,9.3,20.7,20.7,20.7h22.6
		c1,0,1.9-0.8,1.9-1.9v-9.4c0-1-0.8-1.9-1.9-1.9h-22.6c-4.2,0-7.5-3.4-7.5-7.5c0-4.2,3.4-7.5,7.5-7.5h20.9c0.9,5.4,5.6,9.4,11.1,9.4
		h15.1v-3.8h-6.7c1.4-1.6,2.4-3.5,2.7-5.6h7.7v-3.8h-7.7c-1-6.1-6.8-10.3-13-9.3c-2.1,0.4-4.1,1.3-5.7,2.7v-1c0-1-0.8-1.9-1.9-1.9
		h-22.6c-3.3,0-6.6,0.8-9.5,2.4c1.3-12.4-7.7-23.5-20.1-24.8c-12.4-1.3-23.5,7.7-24.8,20.1C128.5,81.5,137.5,92.6,149.9,93.9z
		 M216.3,75.2c4.2,0,7.5,3.4,7.5,7.5s-3.4,7.5-7.5,7.5c-4.2,0-7.5-3.4-7.5-7.5S212.1,75.2,216.3,75.2z M201.2,103.5h3.8v5.6h-3.8
		V103.5z M201.2,75.2h3.8v5.6h-3.8V75.2z M184.3,75.2h13.2v5.6h-13.2c-6.2,0-11.3,5.1-11.3,11.3s5.1,11.3,11.3,11.3h13.2v5.6h-13.2
		c-9.4,0-16.9-7.6-16.9-16.9c0-1.5,0.2-3,0.6-4.5c2.5-2.4,4.4-5.3,5.5-8.5C176.5,76.6,180.3,75.2,184.3,75.2z M134.2,66.2
		c2.9-10,13.4-15.7,23.4-12.8c10,2.9,15.7,13.4,12.8,23.4c-1.8,6.1-6.6,11-12.8,12.8l2.2-12.1l-3.7-0.7l-2.4,13.5
		c-0.4,0-0.9,0.1-1.4,0.1s-0.9,0-1.3-0.1l-2.4-13.5l-3.7,0.7l2.2,12.1C137,86.6,131.3,76.1,134.2,66.2z"/>
	<rect x="152.3" y="35.7" class="st0" width="3.8" height="7.5"/>
	<rect x="180.5" y="62.1" class="st0" width="7.5" height="3.8"/>
	
		<rect x="177.1" y="49.4" transform="matrix(0.8533 -0.5214 0.5214 0.8533 -0.2093 101.8347)" class="st0" width="7.5" height="3.8"/>
	
		<rect x="166.2" y="40.9" transform="matrix(0.4639 -0.8859 0.8859 0.4639 53.1826 173.4711)" class="st0" width="7.5" height="3.8"/>
	<path class="st0" d="M189.9,41.3h3.8v-2.2c2.9-1,4.5-4.3,3.4-7.2c-0.8-2.3-2.9-3.8-5.3-3.8c-1,0-1.9-0.8-1.9-1.9s0.8-1.9,1.9-1.9
		h5.6v-3.8h-3.8v-1.9h-3.8V21c-2.9,1-4.5,4.3-3.4,7.2c0.8,2.3,2.9,3.8,5.3,3.8c1,0,1.9,0.8,1.9,1.9s-0.8,1.9-1.9,1.9h-5.6v3.8h3.8
		V41.3z"/>
	<path class="st0" d="M221.7,50.6l-0.1,1c-0.8,6.1-4.7,11.3-10.3,13.8l1.5,3.4c6.8-3,11.6-9.4,12.5-16.8l0.4-3.2
		c5.1-3.6,6.4-10.6,2.8-15.8c-3.6-5.1-10.6-6.4-15.8-2.8c-5.1,3.6-6.4,10.6-2.8,15.8C212.6,49.7,217.3,51.6,221.7,50.6z M211.9,38.6
		c0.5-4.1,4.3-7.1,8.4-6.5c4.1,0.5,7.1,4.3,6.5,8.4c-0.5,4.1-4.3,7.1-8.4,6.5C214.3,46.5,211.3,42.7,211.9,38.6z"/>
	<rect x="238.9" y="80.9" class="st0" width="3.8" height="3.8"/>
	<path class="st0" d="M213.9,110.1l-1.5,3.5c5.7,2.4,9.6,7.6,10.5,13.7l0.6,4l3.7-0.5l-0.6-4C225.6,119.3,220.8,113,213.9,110.1z"/>
	<rect x="235.1" y="90.3" class="st0" width="3.8" height="3.8"/>
	<path class="st0" d="M238.9,47v-1.9h-3.8v2.2c-2.9,1-4.5,4.3-3.4,7.2c0.8,2.3,2.9,3.8,5.3,3.8c1,0,1.9,0.8,1.9,1.9
		c0,1-0.8,1.9-1.9,1.9h-5.6v3.8h3.8v1.9h3.8v-2.2c2.9-1,4.5-4.3,3.4-7.2c-0.8-2.3-2.9-3.8-5.3-3.8c-1,0-1.9-0.8-1.9-1.9
		c0-1,0.8-1.9,1.9-1.9h5.6V47H238.9z"/>
	<path class="st0" d="M238.9,99.7h-3.8v2.2c-2.9,1-4.5,4.3-3.4,7.2c0.8,2.3,2.9,3.8,5.3,3.8c1,0,1.9,0.8,1.9,1.9s-0.8,1.9-1.9,1.9
		h-5.6v3.8h3.8v1.9h3.8v-2.2c2.9-1,4.5-4.3,3.4-7.2c-0.8-2.3-2.9-3.8-5.3-3.8c-1,0-1.9-0.8-1.9-1.9s0.8-1.9,1.9-1.9h5.6v-3.8h-3.8
		V99.7z"/>
	<path class="st0" d="M216.3,83.7c0.5,0,0.9,0.4,0.9,0.9c0,0.5-0.4,0.9-0.9,0.9h-1.9v1.9h0.9v0.9h1.9v-1.1c1.5-0.5,2.2-2.2,1.7-3.6
		c-0.4-1.1-1.4-1.8-2.6-1.9c-0.5,0-0.9-0.4-0.9-0.9c0-0.5,0.4-0.9,0.9-0.9h1.9v-1.9h-0.9v-0.9h-1.9v1.1c-1.5,0.5-2.2,2.2-1.7,3.6
		C214.1,83,215.1,83.7,216.3,83.7z"/>
	<path class="st0" d="M219.3,40.4c0.5,0,0.9,0.4,0.9,0.9c0,0.5-0.4,0.9-0.9,0.9h-1.9v1.9h0.9v0.9h1.9V44c1.5-0.5,2.2-2.2,1.7-3.6
		c-0.4-1.1-1.4-1.8-2.6-1.9c-0.5,0-0.9-0.4-0.9-0.9c0-0.5,0.4-0.9,0.9-0.9h1.9v-1.9h-0.9v-0.9h-1.9v1.1c-1.5,0.5-2.2,2.2-1.7,3.6
		C217.1,39.6,218.1,40.4,219.3,40.4z"/>
</g>
</svg>
