<svg id="Слой_1" data-name="Слой 1" xmlns="http://www.w3.org/2000/svg" viewBox="0 0 64 64"><defs><style>.cls-1{fill:#ff6f61;}</style></defs><title>Referral</title><path class="cls-1" d="M53,27A10,10,0,1,0,63,37,10,10,0,0,0,53,27Zm0,18a8,8,0,1,1,8-8A8,8,0,0,1,53,45Z"/><path class="cls-1" d="M54,32.18V31H52v1.18A3,3,0,0,0,53,38a1,1,0,1,1-1,1v-.4H50V39a3,3,0,0,0,2,2.82V43h2V41.82A3,3,0,0,0,53,36a1,1,0,1,1,1-1v.4h2V35A3,3,0,0,0,54,32.18Z"/><path class="cls-1" d="M53,1A10,10,0,1,0,63,11,10,10,0,0,0,53,1Zm0,18a8,8,0,1,1,8-8A8,8,0,0,1,53,19Z"/><path class="cls-1" d="M51.85,12.64,48.6,10.2l-1.2,1.6,4,3a1,1,0,0,0,1.36-.15l6-7-1.52-1.3Z"/><path class="cls-1" d="M21,17a9,9,0,1,0,9,9A9,9,0,0,0,21,17Zm0,16a7,7,0,1,1,7-7A7,7,0,0,1,21,33Z"/><path class="cls-1" d="M36.31,29.45a1,1,0,0,0,.69-1v-5a1,1,0,0,0-.69-.95l-2.78-.92a13.34,13.34,0,0,0-.58-1.4l1.17-2.48a1,1,0,0,0-.09-1A16,16,0,0,0,30.26,13a1,1,0,0,0-1-.09l-2.48,1.18a13,13,0,0,0-1.4-.58l-.92-2.78a1,1,0,0,0-.95-.69h-5a1,1,0,0,0-.95.69l-.94,2.83-1.34.56-2.52-1.19a1,1,0,0,0-1,.09A16,16,0,0,0,8,16.74a1,1,0,0,0-.09,1l1.2,2.52-.56,1.34-2.83.94a1,1,0,0,0-.69.95v5a1,1,0,0,0,.69.95l2.83.94.56,1.34-1.2,2.52a1,1,0,0,0,.09,1A16,16,0,0,0,11.74,39a1,1,0,0,0,1,.09l2.52-1.19,1.34.56.94,2.83a1,1,0,0,0,.95.69h5a1,1,0,0,0,.95-.69l.92-2.78a13.13,13.13,0,0,0,1.4-.58l2.48,1.17a1,1,0,0,0,1-.09A16,16,0,0,0,34,35.25a1,1,0,0,0,.09-1L33,31.77a13.34,13.34,0,0,0,.58-1.4Zm-3.89-.82a1,1,0,0,0-.64.66,11.26,11.26,0,0,1-.83,2,1,1,0,0,0,0,.9l1.13,2.38a14,14,0,0,1-2.5,2.5l-2.38-1.13a1,1,0,0,0-.9,0,11.21,11.21,0,0,1-2,.83,1,1,0,0,0-.66.64L22.78,40H19.22l-.85-2.58a1,1,0,0,0-.57-.61l-2.17-.9a1,1,0,0,0-.81,0l-2.38,1.13a14,14,0,0,1-2.5-2.5l1.13-2.37a1,1,0,0,0,0-.81l-.9-2.17a1,1,0,0,0-.61-.57L7,27.78V24.22l2.58-.85a1,1,0,0,0,.61-.57l.9-2.17a1,1,0,0,0,0-.81L9.94,17.44a14.06,14.06,0,0,1,2.5-2.5l2.38,1.13a1,1,0,0,0,.81,0l2.17-.9a1,1,0,0,0,.57-.61L19.22,12h3.57l.85,2.58a1,1,0,0,0,.66.64,11.11,11.11,0,0,1,2,.83,1,1,0,0,0,.9,0l2.38-1.13a14,14,0,0,1,2.5,2.5l-1.13,2.38a1,1,0,0,0,0,.9,11.23,11.23,0,0,1,.83,2,1,1,0,0,0,.64.66l2.58.85v3.57Z"/><path class="cls-1" d="M2,59H6a1,1,0,0,0,1-1H8.93l10.8,4.91a1,1,0,0,0,.95-.07l19-12.11A2.54,2.54,0,0,0,38.46,46h-.15L18.77,48.88,14.7,46.17a1,1,0,0,0-.55-.17H7a1,1,0,0,0-1-1H2a1,1,0,0,0-1,1V58A1,1,0,0,0,2,59ZM13.85,48,18,50.75h0l2.43,1.63a1.48,1.48,0,0,1,.37,2.13,1.55,1.55,0,0,1-2,.35l-4-2.69L13.6,53.83l4,2.7a3.51,3.51,0,0,0,4.74-.82A3.51,3.51,0,0,0,23,53a3.45,3.45,0,0,0-1.51-2.3l-.26-.18L38.52,48a.51.51,0,0,1,.46.4.53.53,0,0,1-.28.63L20.07,60.87,9.56,56.09A1,1,0,0,0,9.15,56H7V48ZM3,47H5V57H3Z"/><rect class="cls-1" x="31" y="8" width="2" height="2"/><rect class="cls-1" x="35" y="8" width="2" height="2"/><rect class="cls-1" x="39" y="8" width="2" height="2"/><rect class="cls-1" x="40" y="42" width="2" height="2"/><rect class="cls-1" x="36" y="42" width="2" height="2"/><rect class="cls-1" x="32" y="42" width="2" height="2"/></svg>