<?xml version="1.0" encoding="utf-8"?>
<!-- Generator: Adobe Illustrator 21.0.0, SVG Export Plug-In . SVG Version: 6.00 Build 0)  -->
<svg version="1.1" id="Слой_1" xmlns="http://www.w3.org/2000/svg" xmlns:xlink="http://www.w3.org/1999/xlink" x="0px" y="0px"
	 viewBox="0 0 64 64.2" style="enable-background:new 0 0 64 64.2;" xml:space="preserve">
<style type="text/css">
	.st0{fill:#FFFFFF;}
</style>
<g>
	<path class="st0" d="M1,49.1h7.5c0.6,0,1-0.4,1-1V29.6c0-0.6-0.4-1-1-1H1c-0.6,0-1,0.4-1,1v18.5C0,48.7,0.4,49.1,1,49.1z M2,30.6
		h5.5v16.5H2V30.6z"/>
	<path class="st0" d="M16,18.2c-0.6,0-1,0.4-1,1v29c0,0.6,0.4,1,1,1h7.5c0.6,0,1-0.4,1-1v-29c0-0.6-0.4-1-1-1H16z M22.5,47.1H17
		V20.2h5.5V47.1z"/>
	<path class="st0" d="M38.4,27.7h-7.5c-0.6,0-1,0.4-1,1v19.4c0,0.6,0.4,1,1,1h7.5c0.6,0,1-0.4,1-1V28.7C39.4,28.1,39,27.7,38.4,27.7
		z M37.4,47.1h-5.5V29.7h5.5V47.1z"/>
	<path class="st0" d="M49.7,10.2L49.7,10.2c2.3,0,4.1-1.5,4.6-3.5c0.4-1.5,0.1-3-0.8-4.2c-2.4-3.1-7.3-2.2-8.3,1.6
		c-0.3,1.2-0.2,2.4,0.3,3.4l-7.7,6.2c-1.7-1.4-4.1-1.5-5.9-0.1L24,7c0.9-1.8,0.7-4-0.8-5.6c-1.8-1.8-4.8-1.9-6.7,0
		c-1.5,1.5-1.7,3.7-0.9,5.5l-7.9,6.3c-1.2-0.9-2.7-1.3-4.3-0.9C0.2,13.2-1,17.2,1,19.8c1.2,1.5,3.1,2.2,5,1.7
		c1.6-0.4,2.9-1.7,3.3-3.3C9.6,17,9.5,15.8,9,14.8l7.7-6.2c1.7,1.4,4.1,1.4,5.9,0.1l7.9,6.6c-0.2,0.3-0.3,0.6-0.4,0.9
		c-0.4,1.5-0.1,3,0.8,4.2c2.4,3.1,7.3,2.2,8.3-1.6c0.3-1.2,0.2-2.4-0.3-3.4l7.7-6.2C47.5,9.8,48.5,10.2,49.7,10.2z M47,4.7
		c0.6-2.1,3.4-2.7,4.8-0.9c0.5,0.7,0.7,1.6,0.5,2.4c-0.3,1.1-1.3,2-2.6,2l0,0c-0.9,0-1.7-0.4-2.2-1C46.9,6.5,46.8,5.6,47,4.7z
		 M7.4,17.7c-0.2,0.9-1,1.6-1.9,1.9c-1.2,0.3-2.3-0.1-2.9-1c-1.2-1.5-0.4-3.8,1.4-4.3C6.1,13.7,7.9,15.6,7.4,17.7z M17.8,6.9
		c-1.1-1.1-1.1-2.8,0-3.9s2.8-1,3.9,0c1.1,1.1,1.1,2.8,0,3.9C20.6,7.9,18.8,7.9,17.8,6.9z M37.3,18.2c-0.6,2.1-3.4,2.7-4.8,0.9
		c-0.5-0.7-0.7-1.6-0.5-2.4c0.6-2.1,3.4-2.7,4.8-0.9C37.4,16.5,37.6,17.3,37.3,18.2z"/>
	<path class="st0" d="M62.3,38.2c-2.7,2.7-5.2,3-7.9,1v-21c0-0.6-0.4-1-1-1h-7.5c-0.6,0-1,0.4-1,1v21.6c-0.7-0.4-1.3-0.9-2-1.6
		c-0.6-0.6-1.7-0.2-1.7,0.7v12.6c0,6.6,10.5,12.3,10.9,12.6c0.1,0.1,0.3,0.1,0.5,0.1s0.3,0,0.5-0.1c0.4-0.2,10.9-6,10.9-12.6V38.9
		C64,38,62.9,37.6,62.3,38.2z M46.9,19.2h5.5V38c-0.7,0.1-2.5,2.8-5.5,2.5V19.2z M62,51.5c0,4.2-6.4,8.8-9.4,10.5
		c-3-1.7-9.4-6.3-9.4-10.5V41.1c3.1,2.2,6.3,1.9,9.4-0.8c3.1,2.7,6.3,3,9.4,0.8V51.5z"/>
	<path class="st0" d="M53.4,47.1C53.1,47,52.9,47,52.6,47c-1.6,0-2.9,1.3-2.9,2.9c0,1.3,0.8,2.3,1.9,2.8v1.4c0,0.6,0.4,1,1,1
		s1-0.4,1-1v-1.4c0.5-0.2,0.9-0.5,1.3-0.9c0.6-0.7,0.8-1.6,0.6-2.4C55.3,48.3,54.5,47.4,53.4,47.1z M52.6,49c0.1,0,0.2,0,0.3,0
		c0.3,0.1,0.6,0.4,0.6,0.7c0.1,0.4-0.1,0.7-0.2,0.8c-0.2,0.2-0.4,0.3-0.7,0.3c-0.5,0-0.9-0.4-0.9-0.9S52.1,49,52.6,49z"/>
</g>
</svg>
