<svg id="Слой_1" data-name="Слой 1" xmlns="http://www.w3.org/2000/svg" viewBox="0 0 64 64"><defs><style>.cls-1{fill:#fff;}</style></defs><title>Social-Media-White</title><path class="cls-1" d="M14.46.1A14.36,14.36,0,0,0,.09,14.46V64.1H49.73A14.36,14.36,0,0,0,64.09,49.74V.1Zm10.1,48.06H17.88V26.71h6.68ZM25,20.86A3.87,3.87,0,1,1,21.22,16,3.84,3.84,0,0,1,25,20.86Zm24.57,27.3H42.88V37.73c0-2.49,0-5.69-3.47-5.69s-4,2.71-4,5.51V48.16H28.74V26.71h6.4v2.93h.09a7,7,0,0,1,6.31-3.47c6.75,0,8,4.44,8,10.22Z"/></svg>