<svg id="Слой_1" data-name="Слой 1" xmlns="http://www.w3.org/2000/svg" viewBox="0 0 64 64"><defs><style>.cls-1{fill:#fff;}</style></defs><title>Social-Media-White</title><path class="cls-1" d="M39.71,17.19H24.31A7.12,7.12,0,0,0,17.2,24.3V39.7a7.12,7.12,0,0,0,7.11,7.11h15.4a7.12,7.12,0,0,0,7.11-7.11V24.3A7.12,7.12,0,0,0,39.71,17.19Zm-7.7,24A9.15,9.15,0,1,1,41.16,32,9.16,9.16,0,0,1,32,41.15Zm9.55-16.63a2.2,2.2,0,1,1,2.2-2.2A2.2,2.2,0,0,1,41.55,24.52Z"/><circle class="cls-1" cx="32.01" cy="32" r="6.09"/><path class="cls-1" d="M14.37,0A14.36,14.36,0,0,0,0,14.34V64H49.64A14.36,14.36,0,0,0,64,49.61V0ZM49.88,39.7A10.19,10.19,0,0,1,39.71,49.88H24.31A10.19,10.19,0,0,1,14.13,39.7V24.3A10.19,10.19,0,0,1,24.31,14.13h15.4A10.19,10.19,0,0,1,49.88,24.3Z"/></svg>