<svg id="Слой_1" data-name="Слой 1" xmlns="http://www.w3.org/2000/svg" viewBox="0 0 64 64"><defs><style>.cls-1{fill:#fff;}</style></defs><title>Social-Media-White</title><path class="cls-1" d="M64,.06H14.41A14.36,14.36,0,0,0,.05,14.42V64.06H49.69A14.36,14.36,0,0,0,64.05,49.7V.06Zm-23,20.58h-.44c-1.08,0-2.15,0-3.22,0-1.47.05-2.56.61-2.61,2.45,0,1.34-.05,4.43-.05,4.43h6.15c-.28,2.14-.54,4.19-.82,6.27H34.81V49.45H28.32V33.77H23V27.54h5.34v-.47c0-1.25,0-2.51,0-3.76a16.38,16.38,0,0,1,.19-2.4,7,7,0,0,1,2.81-4.66A8.1,8.1,0,0,1,36,14.8c1.1,0,2.21,0,3.31.08.6,0,1.2.11,1.77.17Z"/></svg>