<?xml version="1.0" encoding="utf-8"?>
<!-- Generator: Adobe Illustrator 21.0.0, SVG Export Plug-In . SVG Version: 6.00 Build 0)  -->
<svg version="1.1" id="Слой_1" xmlns="http://www.w3.org/2000/svg" xmlns:xlink="http://www.w3.org/1999/xlink" x="0px" y="0px"
	 viewBox="0 0 64 64" style="enable-background:new 0 0 64 64;" xml:space="preserve">
<style type="text/css">
	.st0{fill:#FFFFFF;}
</style>
<path class="st0" d="M14.4,0C6.4,0,0,6.4,0,14.3V64h49.6C57.6,64,64,57.5,64,49.6V0H14.4z M44.9,42.5c-2,2.7-4.7,4.4-8,5.2
	c-1.7,0.5-3.5,0.6-5.3,0.5c-3.2-0.2-6.1-1.2-8.7-3.1c-3.3-2.4-5.4-5.7-6.3-9.7c-0.3-1.4-0.4-2.9-0.3-4.4c0.2-3.5,1.4-6.6,3.6-9.3
	c2.3-2.8,5.2-4.7,8.7-5.6c0.9-0.2,1.8-0.4,2.7-0.4c0.5,0,1-0.1,1.6,0c2.7,0,5.3,0.7,7.7,2.1c1.6,0.9,2.5,1.8,2.9,2.1
	c-1.6,1.6-3.2,3.2-4.7,4.7c-1.2-1-2.5-2-4.8-2.3c-5.1-0.8-9.6,2.7-10.7,7.5c-0.2,1-0.3,2-0.2,2.9c0.4,4,3.1,7.3,6.7,8.4
	c1.1,0.4,2.3,0.5,3.5,0.4c1.7-0.1,3.3-0.6,4.7-1.5c2.4-1.6,3.2-4.2,3.2-4.9c-0.4,0-8.7,0-8.7,0s0-4.3,0-6.3c0-0.1,0-0.2,0-0.3
	c5.1,0,10.2,0,15.3,0C48.5,33.6,47.8,38.6,44.9,42.5z"/>
</svg>
