<svg id="Слой_1" data-name="Слой 1" xmlns="http://www.w3.org/2000/svg" viewBox="0 0 64 64"><defs><style>.cls-1{fill:#fff;}</style></defs><title>Social-Media-White</title><path class="cls-1" d="M14.36.1A14.36,14.36,0,0,0,0,14.46V64.1H49.63A14.36,14.36,0,0,0,64,49.74V.1Zm35.5,22.16a14.28,14.28,0,0,1-2.66,2.53.26.26,0,0,0-.1.22A20.16,20.16,0,0,1,47,28.23a21.42,21.42,0,0,1-1.88,6.48,20.92,20.92,0,0,1-3.93,5.74,19.45,19.45,0,0,1-10,5.57,21.83,21.83,0,0,1-4.21.49,15.2,15.2,0,0,1-5.58-1c-6.44-2.38-5.57-1.92-6.07-2.25a14.71,14.71,0,0,0,7.28-1,14.47,14.47,0,0,0,3.46-2,7.3,7.3,0,0,1-6.77-5.05,7.22,7.22,0,0,0,3.12-.09l.1,0a7.27,7.27,0,0,1-4.73-3.34,7.06,7.06,0,0,1-1.07-3.87,7.17,7.17,0,0,0,3.24.88,7.31,7.31,0,0,1-3-4.41A7.2,7.2,0,0,1,17.71,19a20.82,20.82,0,0,0,15,7.6c0-.29-.09-.54-.12-.8a7.08,7.08,0,0,1,1.31-5.12,7.36,7.36,0,0,1,5.1-3,7.07,7.07,0,0,1,6,2.09.43.43,0,0,0,.39.12,14.64,14.64,0,0,0,4.23-1.63l.1,0h0a7.45,7.45,0,0,1-3.12,4,14,14,0,0,0,4.05-1.09l0,0C50.42,21.53,50.15,21.9,49.87,22.26Z"/></svg>