<?xml version="1.0" encoding="utf-8"?>
<!-- Generator: Adobe Illustrator 21.0.0, SVG Export Plug-In . SVG Version: 6.00 Build 0)  -->
<svg version="1.1" id="Слой_1" xmlns="http://www.w3.org/2000/svg" xmlns:xlink="http://www.w3.org/1999/xlink" x="0px" y="0px"
	 viewBox="0 0 60 60" style="enable-background:new 0 0 60 60;" xml:space="preserve">
<style type="text/css">
	.st0{fill:#FFFFFF;}
</style>
<title>information-analysis-knowledge-data-statistic</title>
<path class="st0" d="M16,25c5,0,9-4,9-9s-4-9-9-9s-9,4-9,9C7,21,11,25,16,25z M16,9c3.9,0,7,3.1,7,7s-3.1,7-7,7s-7-3.1-7-7
	C9,12.1,12.1,9,16,9z"/>
<path class="st0" d="M0.7,19.5l2.8,0.9l0.6,1.3l-1.2,2.5c-0.2,0.3-0.1,0.7,0.1,1C4,26.7,5.3,28,6.7,29c0.3,0.2,0.7,0.2,1,0.1
	l2.5-1.2l1.3,0.6l0.9,2.8c0.1,0.4,0.5,0.7,0.9,0.7h5c0.4,0,0.8-0.3,0.9-0.7l0.9-2.8c0.5-0.2,0.9-0.4,1.4-0.6l2.5,1.2
	c0.3,0.2,0.7,0.1,1-0.1c1.5-1,2.7-2.3,3.8-3.8c0.2-0.3,0.2-0.7,0.1-1L28,21.8c0.2-0.5,0.4-0.9,0.6-1.4l2.8-0.9
	c0.4-0.1,0.7-0.5,0.7-0.9v-5c0-0.4-0.3-0.8-0.7-0.9l-2.8-0.9c-0.2-0.5-0.4-0.9-0.6-1.4l1.2-2.5c0.2-0.3,0.1-0.7-0.1-1
	C28,5.3,26.7,4,25.3,3c-0.3-0.2-0.7-0.2-1-0.1L21.8,4c-0.5-0.2-0.9-0.4-1.4-0.6l-0.9-2.8C19.3,0.3,18.9,0,18.5,0h-5
	c-0.4,0-0.8,0.3-0.9,0.7l-0.9,2.8l-1.3,0.6L7.8,2.9C7.4,2.7,7,2.8,6.7,3C5.3,4,4,5.3,3,6.7C2.8,7,2.7,7.4,2.9,7.8l1.2,2.5l-0.6,1.3
	l-2.8,0.9C0.3,12.7,0,13.1,0,13.5v5C0,18.9,0.3,19.3,0.7,19.5z M2,14.2l2.6-0.9c0.3-0.1,0.5-0.3,0.6-0.6l0.9-2.2
	c0.1-0.3,0.1-0.6,0-0.8L4.9,7.4c0.7-0.9,1.6-1.8,2.5-2.5l2.4,1.1c0.3,0.1,0.6,0.1,0.8,0l2.2-0.9c0.3-0.1,0.5-0.3,0.6-0.6L14.2,2h3.6
	l0.9,2.6c0.1,0.3,0.3,0.5,0.7,0.6c0.7,0.2,1.4,0.5,2,0.8c0.3,0.1,0.6,0.2,0.9,0l2.4-1.1c0.9,0.7,1.8,1.6,2.5,2.5l-1.1,2.4
	c-0.1,0.3-0.1,0.6,0,0.9c0.3,0.6,0.6,1.3,0.8,2c0.1,0.3,0.3,0.6,0.6,0.7l2.6,0.9v3.6l-2.6,0.9c-0.3,0.1-0.5,0.3-0.6,0.7
	c-0.2,0.7-0.5,1.4-0.8,2c-0.1,0.3-0.2,0.6,0,0.9l1.1,2.4c-0.7,0.9-1.6,1.8-2.5,2.5l-2.4-1.1c-0.3-0.1-0.6-0.1-0.9,0
	c-0.6,0.3-1.3,0.6-2,0.8c-0.3,0.1-0.6,0.3-0.7,0.6L17.8,30h-3.6l-0.9-2.6c-0.1-0.3-0.3-0.5-0.6-0.6l-2.2-0.9c-0.3-0.1-0.6-0.1-0.8,0
	l-2.4,1.1c-0.9-0.7-1.8-1.6-2.5-2.5l1.1-2.4c0.1-0.3,0.1-0.6,0-0.8l-0.9-2.2c-0.1-0.3-0.3-0.5-0.6-0.6L2,17.8V14.2z"/>
<path class="st0" d="M59,0H22v2h36v56H9V31H7v28c0,0.6,0.4,1,1,1c0,0,0,0,0,0h51c0.6,0,1-0.4,1-1c0,0,0,0,0,0V1C60,0.4,59.6,0,59,0
	C59,0,59,0,59,0z"/>
<path class="st0" d="M12,48c-0.6,0-1,0.4-1,1c0,0,0,0,0,0v6c0,0.6,0.4,1,1,1c0,0,0,0,0,0h4c0.6,0,1-0.4,1-1c0,0,0,0,0,0v-6
	c0-0.6-0.4-1-1-1c0,0,0,0,0,0H12z M15,54h-2v-4h2V54z"/>
<path class="st0" d="M24,41h-4c-0.6,0-1,0.4-1,1c0,0,0,0,0,0v13c0,0.6,0.4,1,1,1c0,0,0,0,0,0h4c0.6,0,1-0.4,1-1c0,0,0,0,0,0V42
	C25,41.4,24.6,41,24,41C24,41,24,41,24,41z M23,54h-2V43h2V54z"/>
<path class="st0" d="M28,33c-0.6,0-1,0.4-1,1c0,0,0,0,0,0v21c0,0.6,0.4,1,1,1c0,0,0,0,0,0h4c0.6,0,1-0.4,1-1c0,0,0,0,0,0V34
	c0-0.6-0.4-1-1-1c0,0,0,0,0,0H28z M31,54h-2V35h2V54z"/>
<path class="st0" d="M46,43c0.1,0,0.2,0,0.2,0c0.3-0.1,0.6-0.3,0.7-0.7l0.8-2.3H49c2.8,0,5-2.3,5-5V30c0-2.8-2.3-5-5-5H41
	c-2.8,0-5,2.3-5,5V35c0,2.8,2.3,5,5,5h1.5l2.7,2.7C45.5,42.9,45.7,43,46,43z M43,38h-2c-1.7,0-3-1.4-3-3V30c0-1.7,1.4-3,3-3H49
	c1.7,0,3,1.4,3,3V35c0,1.7-1.4,3-3,3h-2c-0.4,0-0.8,0.3-0.9,0.7l-0.5,1.5l-1.9-1.9C43.5,38.1,43.3,38,43,38z"/>
<rect x="40" y="29" class="st0" width="6" height="2"/>
<rect x="40" y="33" class="st0" width="5" height="2"/>
<rect x="48" y="29" class="st0" width="2" height="2"/>
<rect x="47" y="33" class="st0" width="3" height="2"/>
<path class="st0" d="M35.7,23.7l5.7-5.7H47c0.3,0,0.6-0.1,0.7-0.3l6.3-7V13h2V8c0-0.6-0.4-1-1-1c0,0,0,0,0,0h-5v2h2.8l-6.2,7H41
	c-0.3,0-0.5,0.1-0.7,0.3l-6,6L35.7,23.7z"/>
<path class="st0" d="M46,56h9c0.6,0,1-0.4,1-1c0,0,0,0,0,0v-4.2c0-1.5-0.8-2.8-2.1-3.4c0.1-0.3,0.1-0.6,0.1-0.9
	c0-1.9-1.6-3.5-3.5-3.5S47,44.6,47,46.5c0,0.3,0,0.6,0.1,0.9c-1.3,0.6-2.1,2-2.1,3.4V55C45,55.6,45.4,56,46,56C46,56,46,56,46,56z
	 M47,50.8c0-0.9,0.7-1.7,1.6-1.8c0.5-0.1,0.9-0.6,0.9-1.1c0-0.2-0.1-0.4-0.2-0.5c-0.5-0.6-0.4-1.6,0.2-2.1c0.6-0.5,1.6-0.4,2.1,0.2
	c0.4,0.5,0.4,1.3,0,1.9c-0.3,0.4-0.3,1.1,0.2,1.4c0.1,0.1,0.3,0.2,0.5,0.2c0.9,0.1,1.6,0.9,1.6,1.8V54h-7V50.8z"/>
<rect x="39" y="8" class="st0" width="2" height="2"/>
<rect x="35" y="4" class="st0" width="2" height="2"/>
<rect x="35" y="8" class="st0" width="2" height="2"/>
<rect x="43" y="8" class="st0" width="2" height="2"/>
<rect x="39" y="4" class="st0" width="2" height="2"/>
</svg>
