<?xml version="1.0" encoding="utf-8"?>
<!-- Generator: Adobe Illustrator 21.0.0, SVG Export Plug-In . SVG Version: 6.00 Build 0)  -->
<svg version="1.1" id="Слой_1" xmlns="http://www.w3.org/2000/svg" xmlns:xlink="http://www.w3.org/1999/xlink" x="0px" y="0px"
	 viewBox="0 0 64 64" style="enable-background:new 0 0 64 64;" xml:space="preserve">
<style type="text/css">
	.st0{fill:#FFFFFF;}
</style>
<path class="st0" d="M40,16h-0.1c-0.5-2.3-2.5-4-4.9-4c-0.6,0-1,0.4-1,1c0,1.1-0.9,2-2,2h-4c-2.1,0-4.1,0.8-5.7,2.3
	C20.8,18.9,20,20.9,20,23v7.4l1,1c0.1,4,1.4,8,4,10.6v3.5l-3.6,2.7l1.2,1.6l3.3-2.5l6.1,6.1l6.1-6.1l3.3,2.5l1.2-1.6L39,45.5V42
	c2.5-2.6,3.9-6.6,4-10.6l1-1V23v-3c0-1.1-0.4-2.1-1.2-2.8C42.1,16.4,41.1,16,40,16z M27,45.6v-1.9c1.4,0.9,3.1,1.4,5,1.4
	c1.9,0,3.6-0.5,5-1.4v1.9l-5,5L27,45.6z M42,29.6l-1,1V31c0,4.8-2.4,12-9,12c-6.6,0-9-7.2-9-12v-0.4l-1-1V23c0-1.6,0.6-3.1,1.8-4.2
	c1.1-1.1,2.6-1.8,4.2-1.8h4c1.8,0,3.4-1.2,3.8-2.9c1.2,0.4,2.2,1.5,2.2,2.9c0,0.6,0.4,1,1,1h1c0.5,0,1,0.2,1.4,0.6S42,19.5,42,20v3
	V29.6z"/>
<path class="st0" d="M38,24h-6c-1.1,0-2-0.9-2-2c0-0.4-0.3-0.8-0.7-1c-0.4-0.1-0.9,0-1.1,0.4L26.5,24H26c-0.8,0-1.6,0.3-2.1,0.9
	C23.3,25.4,23,26.2,23,27v2h2v-2c0-0.3,0.1-0.5,0.3-0.7S25.7,26,26,26h1c0.3,0,0.6-0.2,0.8-0.4l0.9-1.3c0.7,1.1,1.9,1.7,3.3,1.7h6
	c0.3,0,0.5,0.1,0.7,0.3c0.2,0.2,0.3,0.4,0.3,0.7v2h2v-2c0-0.8-0.3-1.6-0.9-2.1S38.8,24,38,24z"/>
<path class="st0" d="M4,34.9l-2,0.2C3.4,49.2,14.8,60.5,28.9,62l0.2-2C15.9,58.6,5.3,48.1,4,34.9z"/>
<path class="st0" d="M29.1,4l-0.2-2C14.8,3.5,3.4,14.8,2,28.9l2,0.2C5.3,15.9,15.9,5.4,29.1,4z"/>
<path class="st0" d="M34.9,60l0.2,2C49.2,60.5,60.6,49.2,62,35.1l-2-0.2C58.7,48.1,48.1,58.6,34.9,60z"/>
<path class="st0" d="M60,29.1l2-0.2C60.6,14.8,49.2,3.5,35.1,2l-0.2,2C48.1,5.4,58.7,15.9,60,29.1z"/>
<path class="st0" d="M58,31C57.5,17.5,46.5,6.5,33,6V0h-2v6C17.5,6.5,6.5,17.5,6,31H0v2h6c0.5,13.5,11.4,24.5,25,25v6h2v-6
	c13.5-0.5,24.5-11.4,25-25h6v-2H58z M32,56C18.8,56,8,45.2,8,32C8,18.8,18.8,8,32,8c13.2,0,24,10.8,24,24C56,45.2,45.2,56,32,56z"/>
</svg>
