<?xml version="1.0" encoding="utf-8"?>
<!-- Generator: Adobe Illustrator 21.0.0, SVG Export Plug-In . SVG Version: 6.00 Build 0)  -->
<svg version="1.1" id="Слой_1" xmlns="http://www.w3.org/2000/svg" xmlns:xlink="http://www.w3.org/1999/xlink" x="0px" y="0px"
	 viewBox="0 0 62 64" style="enable-background:new 0 0 62 64;" xml:space="preserve">
<style type="text/css">
	.st0{fill:#FFFFFF;}
</style>
<title>Shape</title>
<desc>Created with Sketch.</desc>
<g id="Page-1">
	<g id="icons8-cheap">
		<path id="Shape" class="st0" d="M25,0C11.2,0,0,11.2,0,25c0,9.1,4.9,17.1,12.2,21.5c-0.4,2.4-0.2,4.9,0.5,7.3
			c1.3,3.8,3.9,6.9,7.5,8.7c2.1,1.1,4.4,1.6,6.7,1.6c5.4,0,10.6-2.9,13.3-8c0.2,0,0.5,0,0.7,0c11.6,0,21-9.4,21-21
			c0-9.1-5.9-16.9-14-19.8C44.2,6.3,35.3,0,25,0z M25,2c12.7,0,23,10.3,23,23S37.7,48,25,48S2,37.7,2,25S12.3,2,25,2z M25,5
			C14,5,5,14,5,25s9,20,20,20s20-9,20-20c0-5.6-2.4-11.1-6.6-14.8c-0.4-0.4-1-0.3-1.4,0.1c-0.4,0.4-0.3,1,0.1,1.4
			C40.8,15,43,19.9,43,25c0,9.9-8.1,18-18,18S7,34.9,7,25S15.1,7,25,7c1,0,2,0.1,3,0.2c0.5,0.1,1.1-0.3,1.2-0.8
			c0.1-0.5-0.3-1.1-0.8-1.2C27.2,5.1,26.1,5,25,5z M31.9,6.3c-0.4,0-0.8,0.2-0.9,0.6c-0.2,0.5,0.1,1.1,0.6,1.3
			C32.4,8.6,33.2,9,34,9.4c0.2,0.1,0.3,0.1,0.5,0.1c0.3,0,0.7-0.2,0.9-0.5C35.7,8.6,35.5,8,35,7.7c-0.9-0.5-1.8-0.9-2.7-1.3
			C32.2,6.3,32.1,6.3,31.9,6.3z M25.1,14c-0.3,0-0.6,0.1-0.8,0.3l-4,4c-0.4,0.4-0.4,1,0,1.4s1,0.4,1.4,0l2.3-2.3V32h-2
			c-0.6,0-1,0.4-1,1s0.4,1,1,1h6c0.6,0,1-0.4,1-1s-0.4-1-1-1h-2V15c0-0.4-0.2-0.8-0.6-0.9C25.3,14,25.2,14,25.1,14z M48.9,17.8
			C55.5,20.8,60,27.4,60,35c0,10.5-8.5,19-19,19c-4.6,0-8.7-1.6-12-4.3C40.9,47.8,50,37.4,50,25C50,22.5,49.6,20.1,48.9,17.8z
			 M11.4,27.2c-0.1,0-0.3,0-0.4,0c-0.5,0.1-0.9,0.7-0.8,1.2c0.9,4,3.5,7.6,7.1,9.7c0.2,0.1,0.3,0.1,0.5,0.1c0.3,0,0.7-0.2,0.9-0.5
			c0.3-0.5,0.1-1.1-0.4-1.4c-3.1-1.8-5.4-4.9-6.2-8.4C12.1,27.6,11.8,27.3,11.4,27.2z M54,28.8c-0.1,0-0.3,0-0.4,0.1l-1.9,0.8
			c-0.5,0.2-0.8,0.8-0.6,1.3c0.2,0.4,0.5,0.6,0.9,0.6c0.1,0,0.3,0,0.4-0.1l1.9-0.8c0.5-0.2,0.8-0.8,0.6-1.3
			C54.8,29,54.4,28.8,54,28.8z M53,34c-0.6,0-1,0.4-1,1s0.4,1,1,1h2c0.6,0,1-0.4,1-1s-0.4-1-1-1H53z M52,38.7
			c-0.4,0-0.8,0.2-0.9,0.6c-0.2,0.5,0,1.1,0.5,1.3l1.8,0.8c0.1,0.1,0.3,0.1,0.4,0.1c0.4,0,0.8-0.2,0.9-0.6c0.2-0.5,0-1.1-0.5-1.3
			l-1.8-0.8C52.3,38.7,52.2,38.7,52,38.7z M49.5,42.5c-0.3,0-0.5,0.1-0.7,0.3c-0.4,0.4-0.4,1,0,1.4l1.4,1.4c0.2,0.2,0.4,0.3,0.7,0.3
			s0.5-0.1,0.7-0.3c0.4-0.4,0.4-1,0-1.4l-1.4-1.4C50,42.6,49.7,42.5,49.5,42.5z M45.5,45.1c-0.1,0-0.3,0-0.4,0.1
			c-0.5,0.2-0.8,0.8-0.6,1.3l0.8,1.9c0.2,0.4,0.5,0.6,0.9,0.6c0.1,0,0.2,0,0.4-0.1c0.5-0.2,0.8-0.8,0.6-1.3l-0.8-1.9
			C46.3,45.4,45.9,45.1,45.5,45.1z M41,46c-0.6,0-1,0.4-1,1v2c0,0.6,0.4,1,1,1s1-0.4,1-1v-2C42,46.4,41.6,46,41,46z M14.1,47.5
			c3.3,1.6,7,2.5,10.9,2.5c0.4,0,0.9,0,1.3,0c3.1,3.1,7.2,5.2,11.8,5.8c-3.5,5.7-10.8,7.9-16.9,4.8c-3.1-1.6-5.4-4.2-6.5-7.5
			C14.1,51.3,13.9,49.4,14.1,47.5z M18.2,52.9c-0.1,0-0.3,0.1-0.4,0.1c-0.5,0.3-0.6,0.9-0.4,1.4c1.1,1.9,2.7,3.4,4.7,4.4
			c1.1,0.5,2.2,0.9,3.4,1.1c0.1,0,0.1,0,0.1,0c0.5,0,0.9-0.4,1-0.9c0.1-0.5-0.3-1.1-0.9-1.1c-1-0.1-1.9-0.4-2.8-0.9
			c-1.6-0.8-2.9-2.1-3.8-3.6C19,53.1,18.6,52.9,18.2,52.9z M32.4,56.3c-0.1,0-0.2,0.1-0.4,0.2c-0.7,0.5-1.5,0.9-2.3,1.1
			c-0.5,0.2-0.8,0.7-0.6,1.3c0.1,0.4,0.5,0.7,1,0.7c0.1,0,0.2,0,0.3-0.1c1-0.3,1.9-0.8,2.8-1.4c0.5-0.3,0.6-0.9,0.3-1.4
			C33.2,56.4,32.8,56.2,32.4,56.3z"/>
	</g>
</g>
</svg>
