<?xml version="1.0" encoding="utf-8"?>
<!-- Generator: Adobe Illustrator 21.0.0, SVG Export Plug-In . SVG Version: 6.00 Build 0)  -->
<svg version="1.1" id="Слой_1" xmlns="http://www.w3.org/2000/svg" xmlns:xlink="http://www.w3.org/1999/xlink" x="0px" y="0px"
	 viewBox="0 0 60 53" style="enable-background:new 0 0 60 53;" xml:space="preserve">
<style type="text/css">
	.st0{fill:#FFFFFF;}
</style>
<title>Shape</title>
<desc>Created with Sketch.</desc>
<g id="Page-1">
	<g id="icons8-area_chart">
		<path id="Shape" class="st0" d="M57.7,0.2c-0.4,0.1-0.7,0.2-1,0.5l-16,13.8c-0.3,0.2-0.6,0.3-0.9,0.2l-13.4-3.8
			c-1-0.3-2.1,0-2.9,0.7L10.3,24.2c-0.3,0.3-0.7,0.4-1.1,0.2l-6.4-2.7c-0.6-0.3-1.3-0.2-1.9,0.2c-0.6,0.4-0.9,1-0.9,1.7V50
			c0,1.7,1.3,3,3,3h54c1.7,0,3-1.3,3-3V2.2c0-0.8-0.4-1.5-1.2-1.8C58.5,0.2,58.1,0.1,57.7,0.2z M58,2.2v21.2l-12,5.3
			c-0.3,0.1-0.6,0.1-0.8,0l-11.4-5.4c-1.2-0.5-2.5-0.3-3.4,0.6L20,34.3c-0.2,0.2-0.6,0.4-0.9,0.3l-6.6-1.3c-0.5-0.1-1.1,0.2-1.2,0.8
			c-0.1,0.5,0.2,1.1,0.8,1.2l6.6,1.3c0.2,0,0.4,0.1,0.6,0.1c0.8,0,1.6-0.3,2.1-0.9l10.2-10.5c0.3-0.3,0.8-0.4,1.1-0.2l11.4,5.4
			c0.8,0.4,1.7,0.4,2.5,0L58,25.5V50c0,0.6-0.4,1-1,1H3c-0.6,0-1-0.4-1-1V23.5l6.4,2.7c1.1,0.5,2.4,0.2,3.2-0.6L24.9,13
			c0.3-0.2,0.6-0.3,1-0.2l13.4,3.8c1,0.3,2,0,2.8-0.6L58,2.2z M6.2,32c-0.5-0.1-1.1,0.2-1.2,0.8s0.2,1.1,0.8,1.2l2.3,0.5
			c0.1,0,0.1,0,0.2,0c0.5,0,0.9-0.3,1-0.8c0.1-0.5-0.2-1.1-0.8-1.2L6.2,32z M5,45c-0.6,0-1,0.4-1,1v2c0,0.6,0.4,1,1,1s1-0.4,1-1v-2
			C6,45.4,5.6,45,5,45z M10,45c-0.6,0-1,0.4-1,1v2c0,0.6,0.4,1,1,1s1-0.4,1-1v-2C11,45.4,10.6,45,10,45z M15,45c-0.6,0-1,0.4-1,1v2
			c0,0.6,0.4,1,1,1s1-0.4,1-1v-2C16,45.4,15.6,45,15,45z M20,45c-0.6,0-1,0.4-1,1v2c0,0.6,0.4,1,1,1s1-0.4,1-1v-2
			C21,45.4,20.6,45,20,45z M25,45c-0.6,0-1,0.4-1,1v2c0,0.6,0.4,1,1,1s1-0.4,1-1v-2C26,45.4,25.6,45,25,45z M30,45c-0.6,0-1,0.4-1,1
			v2c0,0.6,0.4,1,1,1s1-0.4,1-1v-2C31,45.4,30.6,45,30,45z M35,45c-0.6,0-1,0.4-1,1v2c0,0.6,0.4,1,1,1s1-0.4,1-1v-2
			C36,45.4,35.6,45,35,45z M40,45c-0.6,0-1,0.4-1,1v2c0,0.6,0.4,1,1,1s1-0.4,1-1v-2C41,45.4,40.6,45,40,45z M45,45c-0.6,0-1,0.4-1,1
			v2c0,0.6,0.4,1,1,1s1-0.4,1-1v-2C46,45.4,45.6,45,45,45z M50,45c-0.6,0-1,0.4-1,1v2c0,0.6,0.4,1,1,1s1-0.4,1-1v-2
			C51,45.4,50.6,45,50,45z M55,45c-0.6,0-1,0.4-1,1v2c0,0.6,0.4,1,1,1s1-0.4,1-1v-2C56,45.4,55.6,45,55,45z"/>
	</g>
</g>
</svg>
