<?xml version="1.0" encoding="utf-8"?>
<!-- Generator: Adobe Illustrator 21.0.0, SVG Export Plug-In . SVG Version: 6.00 Build 0)  -->
<svg version="1.1" id="Слой_1" xmlns="http://www.w3.org/2000/svg" xmlns:xlink="http://www.w3.org/1999/xlink" x="0px" y="0px"
	 viewBox="0 0 64 54" style="enable-background:new 0 0 64 54;" xml:space="preserve">
<style type="text/css">
	.st0{fill:#FFFFFF;}
</style>
<title>Shape</title>
<desc>Created with Sketch.</desc>
<g id="Page-1">
	<g id="icons8-property_time">
		<path id="Shape" class="st0" d="M3,0C1.3,0,0,1.3,0,3v42c0,1.7,1.3,3,3,3h37.1c2.3,3.6,6.3,6,10.9,6c7.2,0,13-5.8,13-13
			c0-5.4-3.3-10-8-12V3c0-1.7-1.3-3-3-3H3z M3,2h50c0.6,0,1,0.4,1,1v3H2V3C2,2.4,2.4,2,3,2z M2,8h52v20.4c-1-0.2-2-0.4-3-0.4
			c-7.2,0-13,5.8-13,13c0,1.8,0.4,3.5,1,5H3c-0.6,0-1-0.4-1-1V8z M15,12c-0.3,0-0.5,0.1-0.7,0.3L11,15.6l-1.3-1.3
			c-0.4-0.4-1-0.4-1.4,0c-0.4,0.4-0.4,1,0,1.4l2,2c0.2,0.2,0.4,0.3,0.7,0.3c0.3,0,0.5-0.1,0.7-0.3l4-4c0.4-0.4,0.4-1,0-1.4
			C15.5,12.1,15.3,12,15,12z M19,14c-0.6,0-1,0.4-1,1s0.4,1,1,1h4c0.6,0,1-0.4,1-1s-0.4-1-1-1H19z M27,14c-0.6,0-1,0.4-1,1
			s0.4,1,1,1h17c0.6,0,1-0.4,1-1s-0.4-1-1-1H27z M15,20c-0.3,0-0.5,0.1-0.7,0.3L11,23.6l-1.3-1.3c-0.4-0.4-1-0.4-1.4,0
			c-0.4,0.4-0.4,1,0,1.4l2,2c0.2,0.2,0.4,0.3,0.7,0.3c0.3,0,0.5-0.1,0.7-0.3l4-4c0.4-0.4,0.4-1,0-1.4C15.5,20.1,15.3,20,15,20z
			 M19,22c-0.6,0-1,0.4-1,1s0.4,1,1,1h25c0.6,0,1-0.4,1-1s-0.4-1-1-1H19z M15,28c-0.3,0-0.5,0.1-0.7,0.3L11,31.6l-1.3-1.3
			c-0.4-0.4-1-0.4-1.4,0c-0.4,0.4-0.4,1,0,1.4l2,2c0.2,0.2,0.4,0.3,0.7,0.3c0.3,0,0.5-0.1,0.7-0.3l4-4c0.4-0.4,0.4-1,0-1.4
			C15.5,28.1,15.3,28,15,28z M19,30c-0.6,0-1,0.4-1,1s0.4,1,1,1h15c0.6,0,1-0.4,1-1s-0.4-1-1-1H19z M51,30c6.1,0,11,4.9,11,11
			s-4.9,11-11,11s-11-4.9-11-11S44.9,30,51,30z M51,33c-0.6,0-1,0.4-1,1v7c0,0.1,0,0.3,0.1,0.4s0.1,0.2,0.2,0.3l5,5
			c0.2,0.2,0.4,0.3,0.7,0.3s0.5-0.1,0.7-0.3c0.4-0.4,0.4-1,0-1.4L52,40.6V34C52,33.4,51.6,33,51,33z M6,40c-0.6,0-1,0.4-1,1v2
			c0,0.6,0.4,1,1,1c0.6,0,1-0.4,1-1v-2C7,40.4,6.6,40,6,40z M11,40c-0.6,0-1,0.4-1,1v2c0,0.6,0.4,1,1,1c0.6,0,1-0.4,1-1v-2
			C12,40.4,11.6,40,11,40z M16,40c-0.6,0-1,0.4-1,1v2c0,0.6,0.4,1,1,1c0.6,0,1-0.4,1-1v-2C17,40.4,16.6,40,16,40z M21,40
			c-0.6,0-1,0.4-1,1v2c0,0.6,0.4,1,1,1s1-0.4,1-1v-2C22,40.4,21.6,40,21,40z M26,40c-0.6,0-1,0.4-1,1v2c0,0.6,0.4,1,1,1s1-0.4,1-1
			v-2C27,40.4,26.6,40,26,40z M31,40c-0.6,0-1,0.4-1,1v2c0,0.6,0.4,1,1,1s1-0.4,1-1v-2C32,40.4,31.6,40,31,40z M36,40
			c-0.6,0-1,0.4-1,1v2c0,0.6,0.4,1,1,1s1-0.4,1-1v-2C37,40.4,36.6,40,36,40z"/>
	</g>
</g>
</svg>
