<?xml version="1.0" encoding="utf-8"?>
<!-- Generator: Adobe Illustrator 21.0.0, SVG Export Plug-In . SVG Version: 6.00 Build 0)  -->
<svg version="1.1" id="Слой_1" xmlns="http://www.w3.org/2000/svg" xmlns:xlink="http://www.w3.org/1999/xlink" x="0px" y="0px"
	 viewBox="0 0 56 48" style="enable-background:new 0 0 56 48;" xml:space="preserve">
<style type="text/css">
	.st0{fill:#FFFFFF;}
</style>
<title>Shape</title>
<desc>Created with Sketch.</desc>
<g id="Page-1">
	<g id="icons8-web_design">
		<path id="Shape" class="st0" d="M3,0C1.3,0,0,1.3,0,3v42c0,1.7,1.3,3,3,3h50c1.7,0,3-1.3,3-3V3c0-1.7-1.3-3-3-3H3z M3,2h50
			c0.6,0,1,0.4,1,1v42c0,0.6-0.4,1-1,1H3c-0.6,0-1-0.4-1-1V12h41c0.6,0,1-0.4,1-1s-0.4-1-1-1H2V3C2,2.4,2.4,2,3,2z M6,4
			C5.4,4,5,4.4,5,5v2c0,0.6,0.4,1,1,1c0.6,0,1-0.4,1-1V5C7,4.4,6.6,4,6,4z M11,4c-0.6,0-1,0.4-1,1v2c0,0.6,0.4,1,1,1
			c0.6,0,1-0.4,1-1V5C12,4.4,11.6,4,11,4z M16,4c-0.6,0-1,0.4-1,1v2c0,0.6,0.4,1,1,1c0.6,0,1-0.4,1-1V5C17,4.4,16.6,4,16,4z M21,4
			c-0.6,0-1,0.4-1,1v2c0,0.6,0.4,1,1,1s1-0.4,1-1V5C22,4.4,21.6,4,21,4z M26,4c-0.6,0-1,0.4-1,1v2c0,0.6,0.4,1,1,1s1-0.4,1-1V5
			C27,4.4,26.6,4,26,4z M31,4c-0.6,0-1,0.4-1,1v2c0,0.6,0.4,1,1,1s1-0.4,1-1V5C32,4.4,31.6,4,31,4z M36,4c-0.6,0-1,0.4-1,1v2
			c0,0.6,0.4,1,1,1s1-0.4,1-1V5C37,4.4,36.6,4,36,4z M41,4c-0.6,0-1,0.4-1,1v2c0,0.6,0.4,1,1,1s1-0.4,1-1V5C42,4.4,41.6,4,41,4z
			 M46,4c-0.6,0-1,0.4-1,1v2c0,0.6,0.4,1,1,1s1-0.4,1-1V5C47,4.4,46.6,4,46,4z M51,4c-0.6,0-1,0.4-1,1v2c0,0.6,0.4,1,1,1s1-0.4,1-1
			V5C52,4.4,51.6,4,51,4z M47,10c-0.6,0-1,0.4-1,1s0.4,1,1,1h4c0.6,0,1-0.4,1-1s-0.4-1-1-1H47z M9,16c-0.6,0-1,0.4-1,1v4
			c0,0.6,0.4,1,1,1h38c0.6,0,1-0.4,1-1v-4c0-0.6-0.4-1-1-1H9z M10,18h36v2H10V18z M9,26c-0.6,0-1,0.4-1,1s0.4,1,1,1h16
			c0.6,0,1-0.4,1-1s-0.4-1-1-1H9z M31,26c-0.6,0-1,0.4-1,1v12c0,0.6,0.4,1,1,1h16c0.6,0,1-0.4,1-1V27c0-0.6-0.4-1-1-1H31z M32,28h14
			v10H32V28z M9,30c-0.6,0-1,0.4-1,1s0.4,1,1,1h8c0.6,0,1-0.4,1-1s-0.4-1-1-1H9z M21,30c-0.6,0-1,0.4-1,1s0.4,1,1,1h2
			c0.6,0,1-0.4,1-1s-0.4-1-1-1H21z M9,34c-0.6,0-1,0.4-1,1s0.4,1,1,1h16c0.6,0,1-0.4,1-1s-0.4-1-1-1H9z M9,38c-0.6,0-1,0.4-1,1
			s0.4,1,1,1h6c0.6,0,1-0.4,1-1s-0.4-1-1-1H9z"/>
	</g>
</g>
</svg>
