<?xml version="1.0" encoding="utf-8"?>
<!-- Generator: Adobe Illustrator 21.0.0, SVG Export Plug-In . SVG Version: 6.00 Build 0)  -->
<svg version="1.1" id="Слой_1" xmlns="http://www.w3.org/2000/svg" xmlns:xlink="http://www.w3.org/1999/xlink" x="0px" y="0px"
	 viewBox="0 0 54 60" style="enable-background:new 0 0 54 60;" xml:space="preserve">
<style type="text/css">
	.st0{fill:#FFFFFF;}
</style>
<title>Shape</title>
<desc>Created with Sketch.</desc>
<g id="Page-1">
	<g id="icons8-low_price">
		<path id="Shape" class="st0" d="M14,0c-1.7,0-3,1.3-3,3v31H2.6c-0.8,0-1.6,0.5-1.9,1.3c-0.3,0.8-0.1,1.6,0.5,2.2l24.4,21.7
			c0.4,0.3,0.9,0.5,1.3,0.5s0.9-0.2,1.3-0.5l24.4-21.7c0.6-0.6,0.8-1.4,0.5-2.2s-1-1.3-1.9-1.3H43V3c0-1.7-1.3-3-3-3H14z M14,2h26
			c0.6,0,1,0.4,1,1v7H13V3C13,2.4,13.4,2,14,2z M17,4c-0.6,0-1,0.4-1,1v2c0,0.6,0.4,1,1,1s1-0.4,1-1V5C18,4.4,17.6,4,17,4z M22,4
			c-0.6,0-1,0.4-1,1v2c0,0.6,0.4,1,1,1s1-0.4,1-1V5C23,4.4,22.6,4,22,4z M27,4c-0.6,0-1,0.4-1,1v2c0,0.6,0.4,1,1,1s1-0.4,1-1V5
			C28,4.4,27.6,4,27,4z M32,4c-0.6,0-1,0.4-1,1v2c0,0.6,0.4,1,1,1s1-0.4,1-1V5C33,4.4,32.6,4,32,4z M37,4c-0.6,0-1,0.4-1,1v2
			c0,0.6,0.4,1,1,1s1-0.4,1-1V5C38,4.4,37.6,4,37,4z M13,12h28v23c0,0.6,0.4,1,1,1h9.4L27,57.7L2.6,36H12c0.6,0,1-0.4,1-1V12z
			 M27,15c-0.6,0-1,0.4-1,1v3h-1c-2.8,0-5,2.2-5,5v2c0,2.8,2.2,5,5,5h4c1.7,0,3,1.3,3,3v2c0,1.7-1.3,3-3,3h-1v-6c0-0.6-0.4-1-1-1
			s-1,0.4-1,1v6h-1c-1.7,0-3-1.3-3-3c0-0.6-0.4-1-1-1s-1,0.4-1,1c0,2.8,2.2,5,5,5h1v3c0,0.6,0.4,1,1,1s1-0.4,1-1v-3h1
			c2.8,0,5-2.2,5-5v-2c0-2.8-2.2-5-5-5h-1v-6c0-0.6-0.4-1-1-1s-1,0.4-1,1v6h-1c-1.7,0-3-1.3-3-3v-2c0-1.7,1.3-3,3-3h4
			c1.7,0,3,1.3,3,3c0,0.6,0.4,1,1,1s1-0.4,1-1c0-2.8-2.2-5-5-5h-1v-3C28,15.4,27.6,15,27,15z"/>
	</g>
</g>
</svg>
