<?xml version="1.0" encoding="utf-8"?>
<!-- Generator: Adobe Illustrator 21.0.0, SVG Export Plug-In . SVG Version: 6.00 Build 0)  -->
<svg version="1.1" id="Слой_1" xmlns="http://www.w3.org/2000/svg" xmlns:xlink="http://www.w3.org/1999/xlink" x="0px" y="0px"
	 viewBox="0 0 52 60" style="enable-background:new 0 0 52 60;" xml:space="preserve">
<style type="text/css">
	.st0{fill:#FFFFFF;}
</style>
<title>Shape</title>
<desc>Created with Sketch.</desc>
<g id="Page-1">
	<g id="icons8-security_checked">
		<path id="Shape" class="st0" d="M25.9,0c-0.7,0-1.3,0.2-1.9,0.7l-1.4,1.1C18,5.5,12.4,7.7,6.4,8.1L2.8,8.3C1.2,8.4-0.1,9.8,0,11.5
			L0.7,23c0.8,10.9,5.8,20.8,14,28l9.2,8c0.6,0.5,1.3,0.7,2,0.7c0.7,0,1.4-0.2,2-0.7l9.2-8c8.2-7.2,13.2-17.1,14-28l0.7-11.5
			c0.1-1.6-1.2-3.1-2.8-3.2l-3.6-0.2c-5.9-0.4-11.5-2.6-16.2-6.3l-1.4-1.1C27.2,0.2,26.5,0,25.9,0z M25.9,2c0.2,0,0.4,0.1,0.6,0.2
			l1.4,1.1c5,4,11,6.3,17.3,6.7l3.6,0.2c0.5,0,1,0.5,0.9,1.1l-0.7,11.5c-0.7,9.9-5,18.9-12.2,25.6v-0.1c0-0.6-0.4-1-1-1
			c-0.6,0-1,0.4-1,1v1.9l-8.3,7.3c-0.4,0.3-0.9,0.3-1.3,0l-8.3-7.3v-1.9c0-0.6-0.4-1-1-1c-0.6,0-1,0.4-1,1v0.1
			C7.7,41.8,3.4,32.8,2.7,22.9L2,11.4c0-0.5,0.4-1,0.9-1.1l3.6-0.2c6.4-0.4,12.3-2.7,17.3-6.7l1.4-1.1C25.4,2.1,25.7,2,25.9,2z
			 M25.9,4.9c-0.4,0-0.8,0.1-1.1,0.4L22.2,7c-4.3,3-9.4,4.8-14.7,5.2l-0.7,0c-0.6,0-1,0.5-0.9,1.1c0,0.5,0.5,0.9,1,0.9
			c0,0,0,0,0.1,0l0.6,0c5.6-0.4,11.1-2.3,15.7-5.5l2.6-1.8l2.6,1.8c2.8,1.9,5.8,3.4,9.1,4.4c0.5,0.2,1.1-0.1,1.2-0.7
			c0.2-0.5-0.1-1.1-0.7-1.2c-3-0.9-5.9-2.3-8.5-4.1L27,5.2C26.7,5,26.3,4.9,25.9,4.9z M42,12c-0.6-0.1-1.1,0.3-1.1,0.8
			c-0.1,0.5,0.3,1.1,0.8,1.1c0.8,0.1,1.6,0.2,2.4,0.3l0.6,0c0,0,0,0,0.1,0c0.5,0,1-0.4,1-0.9c0-0.6-0.4-1-0.9-1.1l-0.6,0
			C43.5,12.1,42.8,12.1,42,12z M38.9,20.4c-0.3,0-0.5,0.1-0.7,0.3L23.9,35l-7.3-7.3c-0.4-0.4-1-0.4-1.4,0c-0.4,0.4-0.4,1,0,1.4l8,8
			c0.2,0.2,0.5,0.3,0.7,0.3c0.3,0,0.5-0.1,0.7-0.3l15-15c0.4-0.4,0.4-1,0-1.4C39.4,20.5,39.1,20.4,38.9,20.4z M20.9,47.4
			c-0.6,0-1,0.4-1,1v2c0,0.6,0.4,1,1,1c0.6,0,1-0.4,1-1v-2C21.9,47.9,21.4,47.4,20.9,47.4z M25.9,47.4c-0.6,0-1,0.4-1,1v2
			c0,0.6,0.4,1,1,1c0.6,0,1-0.4,1-1v-2C26.9,47.9,26.4,47.4,25.9,47.4z M30.9,47.4c-0.6,0-1,0.4-1,1v2c0,0.6,0.4,1,1,1
			c0.6,0,1-0.4,1-1v-2C31.9,47.9,31.4,47.4,30.9,47.4z"/>
	</g>
</g>
</svg>
