<?xml version="1.0" encoding="utf-8"?>
<!-- Generator: Adobe Illustrator 21.0.0, SVG Export Plug-In . SVG Version: 6.00 Build 0)  -->
<svg version="1.1" id="Слой_1" xmlns="http://www.w3.org/2000/svg" xmlns:xlink="http://www.w3.org/1999/xlink" x="0px" y="0px"
	 viewBox="0 0 58 58" style="enable-background:new 0 0 58 58;" xml:space="preserve">
<style type="text/css">
	.st0{fill:#FFFFFF;}
</style>
<title>Shape</title>
<desc>Created with Sketch.</desc>
<g id="Page-1">
	<g id="icons8-process">
		<path id="Shape" class="st0" d="M29,0C13,0,0,13,0,29s13,29,29,29s29-13,29-29S45,0,29,0z M29,2c14.9,0,27,12.1,27,27
			S43.9,56,29,56S2,43.9,2,29S14.1,2,29,2z M28.5,9c-0.9,0-1.8,0.1-2.7,0.2c-0.5,0.1-0.9,0.6-0.8,1.1c0.1,0.5,0.5,0.8,1,0.8
			c0.1,0,0.1,0,0.2,0c0.8-0.1,1.6-0.2,2.4-0.2c0.6,0,1-0.5,1-1C29.6,9.4,29.1,9,28.5,9L28.5,9z M32.6,9.4c-0.4,0.1-0.7,0.4-0.8,0.8
			c-0.1,0.5,0.2,1.1,0.8,1.2c5,1,9.4,4.2,11.9,8.6H40c-0.6,0-1,0.4-1,1s0.4,1,1,1h7c0.6,0,1-0.4,1-1v-7.1c0-0.6-0.4-1-1-1
			s-1,0.4-1,1v4.6c-2.9-4.6-7.6-8-13-9.1C32.9,9.4,32.8,9.4,32.6,9.4z M13.9,10c-0.6,0-1,0.4-1,1s0.4,1,1,1h4.6
			C12.7,15.6,9,22.1,9,29c0,1.1,0.1,2.2,0.3,3.2c0.1,0.5,0.5,0.8,1,0.8c0.1,0,0.1,0,0.2,0c0.5-0.1,0.9-0.6,0.8-1.1
			C11.1,31,11,30,11,29c0-6.4,3.5-12.4,9-15.6V18c0,0.6,0.4,1,1,1s1-0.4,1-1v-7c0-0.6-0.4-1-1-1H13.9z M29,19c-0.6,0-1,0.4-1,1v2
			c0,0.6,0.4,1,1,1s1-0.4,1-1v-2C30,19.4,29.6,19,29,19z M22.6,21.6c-0.3,0-0.5,0.1-0.7,0.3c-0.4,0.4-0.4,1,0,1.4l1.4,1.4
			c0.2,0.2,0.4,0.3,0.7,0.3s0.5-0.1,0.7-0.3c0.4-0.4,0.4-1,0-1.4l-1.4-1.4C23.1,21.7,22.9,21.6,22.6,21.6z M35.4,21.6
			c-0.3,0-0.5,0.1-0.7,0.3l-1.4,1.4c-0.4,0.4-0.4,1,0,1.4c0.2,0.2,0.4,0.3,0.7,0.3s0.5-0.1,0.7-0.3l1.4-1.4c0.4-0.4,0.4-1,0-1.4
			C35.9,21.7,35.6,21.6,35.4,21.6z M47.6,25c-0.5,0.1-0.9,0.6-0.8,1.2C46.9,27.1,47,28,47,29c0,6.4-3.5,12.4-9,15.6V40
			c0-0.6-0.4-1-1-1s-1,0.4-1,1v7c0,0.6,0.4,1,1,1h7.1c0.6,0,1-0.4,1-1s-0.4-1-1-1h-4.6c5.8-3.6,9.5-10.1,9.5-17
			c0-1.1-0.1-2.2-0.3-3.2C48.7,25.2,48.1,24.9,47.6,25z M20,28c-0.6,0-1,0.4-1,1s0.4,1,1,1h2c0.6,0,1-0.4,1-1s-0.4-1-1-1H20z M36,28
			c-0.6,0-1,0.4-1,1s0.4,1,1,1h2c0.6,0,1-0.4,1-1s-0.4-1-1-1H36z M24.1,32.9c-0.3,0-0.5,0.1-0.7,0.3l-1.4,1.4c-0.4,0.4-0.4,1,0,1.4
			c0.2,0.2,0.4,0.3,0.7,0.3s0.5-0.1,0.7-0.3l1.4-1.4c0.4-0.4,0.4-1,0-1.4C24.6,33,24.3,32.9,24.1,32.9z M33.9,32.9
			c-0.3,0-0.5,0.1-0.7,0.3c-0.4,0.4-0.4,1,0,1.4l1.4,1.4c0.2,0.2,0.4,0.3,0.7,0.3s0.5-0.1,0.7-0.3c0.4-0.4,0.4-1,0-1.4l-1.4-1.4
			C34.5,33,34.2,32.9,33.9,32.9z M29,35c-0.6,0-1,0.4-1,1v2c0,0.6,0.4,1,1,1s1-0.4,1-1v-2C30,35.4,29.6,35,29,35z M11,36
			c-0.6,0-1,0.4-1,1v7.1c0,0.6,0.4,1,1,1s1-0.4,1-1v-4.6c3.6,5.8,10.1,9.5,17,9.5c1.1,0,2.1-0.1,3.2-0.2c0.5-0.1,0.9-0.6,0.8-1.1
			c-0.1-0.5-0.6-0.9-1.1-0.8C30.9,46.9,30,47,29,47c-6.4,0-12.4-3.5-15.6-9H18c0.6,0,1-0.4,1-1s-0.4-1-1-1h-6.2c0,0,0,0,0,0H11z"/>
	</g>
</g>
</svg>
