<?xml version="1.0" encoding="utf-8"?>
<!-- Generator: Adobe Illustrator 21.0.0, SVG Export Plug-In . SVG Version: 6.00 Build 0)  -->
<svg version="1.1" id="Слой_1" xmlns="http://www.w3.org/2000/svg" xmlns:xlink="http://www.w3.org/1999/xlink" x="0px" y="0px"
	 viewBox="0 0 57 59" style="enable-background:new 0 0 57 59;" xml:space="preserve">
<style type="text/css">
	.st0{fill:#FFFFFF;}
</style>
<title>Shape</title>
<desc>Created with Sketch.</desc>
<g id="Page-1">
	<g id="icons8-goal">
		<path id="Shape" class="st0" d="M9.8,0.5c-0.2,0-0.4,0.1-0.6,0.1C8.4,0.9,8,1.6,8,2.4v4.2L6.7,5.3c-0.4-0.4-1-0.4-1.4,0
			c-0.4,0.4-0.4,1,0,1.4L6.6,8H2.4C1.6,8,0.9,8.5,0.6,9.2C0.3,9.9,0.4,10.8,1,11.4l5.4,5.4C4.2,20.8,3,25.4,3,30
			c0,9,4.5,17.1,11.3,22l-3.1,4.5c-0.3,0.5-0.2,1.1,0.2,1.4c0.2,0.1,0.4,0.2,0.6,0.2c0.3,0,0.6-0.1,0.8-0.4l3.2-4.5
			c4.1,2.5,8.9,3.9,14,3.9s9.9-1.4,14-3.9l3.2,4.5c0.2,0.3,0.5,0.4,0.8,0.4c0.2,0,0.4-0.1,0.6-0.2c0.5-0.3,0.6-0.9,0.2-1.4L45.7,52
			C52.5,47.1,57,39,57,30C57,15.1,44.9,3,30,3c-4.6,0-9.2,1.2-13.2,3.4L11.4,1C10.9,0.6,10.4,0.4,9.8,0.5z M10,2.4l6.4,6.4
			c0.4,0.4,0.6,0.9,0.6,1.4v5.3l-7-7V2.4z M30,5c13.8,0,25,11.2,25,25S43.8,55,30,55S5,43.8,5,30c0-4.1,1-8.1,2.9-11.7
			c0.7,0.5,1.5,0.7,2.3,0.7h7.3l11.7,11.7c0.2,0.2,0.5,0.3,0.7,0.3c0.2,0,0.5-0.1,0.7-0.3c0.4-0.4,0.4-1,0-1.4L19,17.6v-7.3
			c0-0.8-0.3-1.6-0.7-2.3C21.9,6,25.9,5,30,5z M30,9c-3.3,0-6.5,0.8-9.5,2.2c-0.5,0.2-0.7,0.8-0.4,1.3c0.2,0.5,0.8,0.7,1.3,0.4
			c2.7-1.3,5.5-2,8.5-2c10.5,0,19,8.5,19,19s-8.5,19-19,19s-19-8.5-19-19c0-1,0.1-1.9,0.2-2.9c0.1-0.5-0.3-1.1-0.8-1.1
			c-0.5-0.1-1.1,0.3-1.1,0.8C9,27.7,9,28.8,9,29.8c0,11.6,9.4,21,21,21s21-9.4,21-21S41.6,9,30,9z M2.4,10h6.2l7,7h-5.3
			c-0.5,0-1-0.2-1.4-0.6L2.4,10z M30,16c-2.2,0-4.5,0.5-6.5,1.6c-0.5,0.3-0.7,0.9-0.4,1.3c0.3,0.5,0.9,0.7,1.3,0.4
			c1.7-0.9,3.6-1.4,5.5-1.4C36.6,18,42,23.4,42,30c0,4.5-2.5,8.6-6.5,10.6c-0.5,0.3-0.7,0.9-0.4,1.3c0.2,0.3,0.5,0.5,0.9,0.5
			c0.2,0,0.3,0,0.5-0.1C41.1,40,44,35.2,44,30C44,22.3,37.7,16,30,16z M12.2,20.1c-0.4,0-0.8,0.2-0.9,0.5c-0.3,0.7-0.7,1.4-0.9,2.1
			c-0.3,0.5,0,1,0.5,1.2c0.1,0,0.2,0.1,0.4,0.1c0.4,0,0.8-0.2,0.9-0.6c0.2-0.6,0.5-1.3,0.8-1.9c0.2-0.5,0-1.1-0.4-1.3
			C12.5,20.1,12.3,20.1,12.2,20.1z M18.8,22.5c-0.4,0-0.8,0.2-1,0.5c-0.2,0.5,0,1.1,0.4,1.4l1.7,1c0.2,0.1,0.3,0.1,0.5,0.1
			c0.3,0,0.7-0.2,0.9-0.5c0.3-0.5,0.1-1.1-0.4-1.4l-1.7-1C19.1,22.5,18.9,22.5,18.8,22.5z M30,23c-0.4,0-0.8,0-1.2,0.1
			c-0.5,0.1-0.9,0.6-0.8,1.2c0.1,0.5,0.6,0.9,1.2,0.8c0.3,0,0.6-0.1,0.8-0.1c2.8,0,5,2.2,5,5s-2.2,5-5,5s-5-2.2-5-5
			c0-0.3,0-0.6,0.1-0.8c0.1-0.5-0.3-1.1-0.8-1.2c-0.6-0.1-1.1,0.3-1.2,0.8C23,29.2,23,29.6,23,30c0,3.9,3.1,7,7,7s7-3.1,7-7
			S33.9,23,30,23z M17,29c-0.6,0-1,0.4-1,1s0.4,1,1,1h2c0.6,0,1-0.4,1-1s-0.4-1-1-1H17z M20.3,34.5c-0.1,0-0.2,0-0.3,0.1l-1.7,1
			c-0.5,0.3-0.6,0.9-0.4,1.4c0.2,0.3,0.5,0.5,0.9,0.5c0.2,0,0.3,0,0.5-0.1l1.7-1c0.5-0.3,0.6-0.9,0.4-1.4
			C21.2,34.6,20.7,34.5,20.3,34.5z M24.6,38.5c-0.4,0-0.8,0.2-1,0.5l-1,1.7c-0.2,0.5-0.1,1.1,0.4,1.4c0.2,0.1,0.3,0.1,0.5,0.1
			c0.3,0,0.7-0.2,0.9-0.5l1-1.7c0.3-0.5,0.1-1.1-0.4-1.4C24.9,38.5,24.7,38.5,24.6,38.5z M30,40c-0.6,0-1,0.4-1,1v2c0,0.6,0.4,1,1,1
			s1-0.4,1-1v-2C31,40.4,30.6,40,30,40z"/>
	</g>
</g>
</svg>
