<svg width="32" height="28" viewBox="0 0 32 28" fill="none" xmlns="http://www.w3.org/2000/svg">
<path d="M31.6502 19.734L30.6703 18.8142C30.4857 18.6409 30.1957 18.6501 30.0224 18.8347C29.8492 19.0192 29.8584 19.3093 30.0429 19.4826L31.0227 20.4024C31.0898 20.4653 31.1041 20.5682 31.0567 20.647L30.8296 21.0244C30.7875 21.0944 30.7229 21.1129 30.6882 21.1177C30.6535 21.1226 30.5863 21.1222 30.5267 21.0663L29.8585 20.4391C29.7252 20.3139 29.5302 20.2799 29.3626 20.3526C29.1949 20.4252 29.0863 20.5906 29.0864 20.7734L29.089 27.0127L26.882 27.0135V22.5329C26.882 21.9824 26.4342 21.5346 25.8837 21.5346H23.7812C23.2307 21.5346 22.7829 21.9824 22.7829 22.5329V27.0151L20.2407 27.016L20.2382 20.7768C20.2381 20.5941 20.1294 20.4287 19.9616 20.3562C19.7938 20.2837 19.599 20.3178 19.4659 20.4431L18.7982 21.0707C18.7387 21.1267 18.6717 21.1271 18.6367 21.1222C18.602 21.1174 18.5374 21.0989 18.4952 21.0289L18.2681 20.6519C18.2207 20.5731 18.2349 20.4702 18.3019 20.4072L20.0934 18.723C20.1856 18.6363 20.2379 18.5154 20.2378 18.3889L20.2368 15.7101C20.2368 15.6742 20.2535 15.6499 20.2675 15.6359C20.2815 15.6219 20.3057 15.6052 20.3416 15.6052L21.0827 15.6049C21.1404 15.6049 21.1875 15.6519 21.1875 15.7097L21.1879 16.6342C21.1879 16.817 21.2966 16.9823 21.4644 17.0548C21.632 17.1272 21.8269 17.0932 21.9602 16.968L22.2335 16.711C22.5769 16.9797 22.9207 17.1715 23.2567 17.2812C23.4194 17.9056 23.9879 18.3679 24.6625 18.3679C25.4635 18.3679 26.1151 17.7162 26.1151 16.9152C26.1151 16.1142 25.4634 15.4626 24.6625 15.4626C24.071 15.4626 23.5612 15.8182 23.3349 16.3267C23.1976 16.2627 23.0557 16.1785 22.911 16.0742L24.5149 14.5664C24.5962 14.4898 24.7239 14.4897 24.8054 14.5663L27.9351 17.5041C28.1197 17.6774 28.4097 17.6682 28.583 17.4836C28.7562 17.2991 28.7471 17.009 28.5625 16.8357L26.0479 14.4753C26.1181 13.3116 25.8997 11.9459 25.4228 10.5932C25.2404 10.0758 25.0265 9.58163 24.789 9.11919C25.365 6.7195 24.7185 4.08357 22.8493 2.21432C21.4649 0.829881 19.6242 0.0674438 17.6664 0.0674438C15.7085 0.0674438 13.8678 0.829881 12.4834 2.21432C11.0989 3.59875 10.3365 5.43938 10.3365 7.39725C10.3365 8.48407 10.5718 9.53463 11.0176 10.4913L5.15891 16.3501C4.97991 16.5291 4.97991 16.8192 5.15891 16.9982C5.33791 17.1772 5.6281 17.1772 5.8071 16.9982L11.4771 11.3283C11.6184 11.5499 11.7725 11.7644 11.9385 11.9714C11.9427 11.9766 11.9469 11.9819 11.9512 11.9872C11.9862 12.0306 12.0218 12.0738 12.0579 12.1165C12.066 12.1261 12.0741 12.1358 12.0823 12.1454C12.115 12.1839 12.1484 12.2219 12.182 12.2598C12.1927 12.2719 12.2034 12.2841 12.2142 12.2962C12.2472 12.3328 12.2807 12.3689 12.3144 12.4048C12.3255 12.4168 12.3365 12.4289 12.3478 12.4408C12.3924 12.4878 12.4375 12.5343 12.4835 12.5803C12.5294 12.6261 12.5759 12.6713 12.6228 12.7158C12.635 12.7274 12.6475 12.7388 12.6599 12.7503C12.6955 12.7836 12.7312 12.8168 12.7673 12.8493C12.7797 12.8605 12.7924 12.8715 12.8049 12.8826C12.8422 12.9158 12.8797 12.9486 12.9176 12.9809C12.9279 12.9896 12.9382 12.9983 12.9485 13.0069C12.9905 13.0424 13.0328 13.0773 13.0754 13.1117C13.0814 13.1166 13.0875 13.1214 13.0935 13.1263C13.3002 13.2918 13.5143 13.4456 13.7354 13.5867L8.68448 18.6376L7.03004 18.9226C6.67591 18.9836 6.39698 19.2626 6.33598 19.6167L6.08123 21.0954L4.60229 21.3502C4.2481 21.4112 3.96923 21.6901 3.90829 22.0442L3.62329 23.6987L3.22198 24.1001L0.918039 24.1457L0.963664 21.8417L3.77698 19.0285C3.95598 18.8495 3.95598 18.5593 3.77698 18.3803C3.59798 18.2013 3.30779 18.2013 3.12879 18.3803L0.296602 21.2123C0.140414 21.3686 0.0519766 21.5762 0.0476641 21.797L0.000164121 24.196C-0.00439838 24.4262 0.0863516 24.6516 0.249164 24.8144C0.408102 24.9733 0.626602 25.0636 0.851039 25.0636C0.856539 25.0636 0.862102 25.0636 0.867602 25.0635L3.2666 25.016C3.48741 25.0116 3.6951 24.9232 3.85141 24.767L4.28623 24.3322C4.41123 24.2072 4.49316 24.0491 4.52316 23.8749L4.80379 22.2457L6.28266 21.9909C6.63679 21.9299 6.91573 21.651 6.97673 21.2969L7.23148 19.8179L8.86073 19.5373C9.03485 19.5073 9.19298 19.4254 9.31791 19.3004L14.5725 14.0458C15.5292 14.4917 16.5797 14.7269 17.6665 14.7269C18.5787 14.7269 19.4655 14.5612 20.2926 14.2444C20.3729 14.3961 20.4556 14.5444 20.5409 14.6882L20.3414 14.6883C20.0685 14.6884 19.812 14.7947 19.6192 14.9877C19.4264 15.1807 19.3202 15.4373 19.3203 15.7102L19.3212 18.1907L17.6742 19.7391C17.2947 20.0959 17.2143 20.6786 17.483 21.1247L17.7102 21.5018C17.8847 21.7914 18.1768 21.9839 18.5117 22.0301C18.8015 22.0702 19.09 21.9959 19.322 21.8252L19.3242 27.141C19.3242 27.3526 19.4067 27.5514 19.5563 27.7009C19.7059 27.8504 19.9046 27.9326 20.1161 27.9326C20.1162 27.9326 20.1163 27.9326 20.1164 27.9326L26.4237 27.9314C26.4318 27.9314 29.2142 27.9292 26.4476 27.9302L29.2142 27.9292C29.6509 27.929 30.006 27.5736 30.0058 27.137L30.0036 21.8213C30.2359 21.9918 30.5244 22.0659 30.8141 22.0256C31.149 21.9792 31.4409 21.7865 31.6152 21.4969L31.8422 21.1195C32.1107 20.6732 32.03 20.0906 31.6502 19.734ZM24.5089 17.2917C24.7668 17.2008 24.9962 17.0525 25.1945 16.8519C25.1969 16.8727 25.1985 16.8937 25.1985 16.9152C25.1985 17.2107 24.9581 17.4512 24.6626 17.4512C24.5409 17.4512 24.4289 17.4099 24.3388 17.3412C24.396 17.3274 24.4529 17.3115 24.5089 17.2917ZM24.5583 10.8979C24.9177 11.9174 25.0977 12.8745 25.136 13.6984C24.7284 13.5094 24.2306 13.5754 23.887 13.8984L22.23 15.4562C21.8295 15.0184 21.4559 14.4764 21.1272 13.8624C21.753 13.5264 22.3329 13.0966 22.8494 12.5802C23.5029 11.9266 24.0065 11.1793 24.3611 10.3811C24.4302 10.5502 24.4964 10.7223 24.5583 10.8979ZM20.4602 12.3428C19.7965 10.4603 19.7439 8.78975 20.0674 7.77994C20.6682 7.73594 21.2564 7.4855 21.7148 7.02713C22.7289 6.01307 22.7289 4.36294 21.7148 3.34888C20.7007 2.33476 19.0505 2.33476 18.0365 3.34888C17.0225 4.363 17.0225 6.01307 18.0365 7.02713C18.3543 7.34488 18.7344 7.56294 19.1379 7.68157C19.0715 7.9285 19.0227 8.1975 18.9927 8.48713C18.8661 9.708 19.0802 11.1856 19.5957 12.6476C19.688 12.9092 19.7883 13.1648 19.8954 13.4137C19.1914 13.6741 18.4394 13.8103 17.6664 13.8103C16.6195 13.8103 15.611 13.5607 14.7084 13.0904C14.7037 13.0877 14.6993 13.0845 14.6945 13.082C14.3375 12.8953 13.9994 12.675 13.6835 12.4241C13.6792 12.4206 13.6749 12.4171 13.6705 12.4137C13.552 12.3191 13.4368 12.2199 13.3247 12.1167C13.3132 12.106 13.3016 12.0953 13.2901 12.0845C13.2366 12.0345 13.1836 11.9839 13.1317 11.9319C13.0797 11.8799 13.0289 11.8269 12.9789 11.7733C12.9682 11.7619 12.9576 11.7505 12.9471 11.7391C12.8437 11.6268 12.7444 11.5113 12.6495 11.3926C12.6463 11.3885 12.643 11.3845 12.6399 11.3804C12.3888 11.0644 12.1685 10.7262 11.9817 10.3691C11.9791 10.3643 11.9759 10.3598 11.9732 10.355C11.5029 9.45244 11.2534 8.44407 11.2534 7.39713C11.2534 5.68413 11.9204 4.07363 13.1317 2.86238C14.343 1.65113 15.9535 0.984006 17.6665 0.984006C19.3795 0.984006 20.99 1.65107 22.2012 2.86238C24.7017 5.36288 24.7017 9.43138 22.2012 11.9319C21.7592 12.3739 21.2639 12.7431 20.7299 13.0342C20.6339 12.8099 20.5436 12.5792 20.4602 12.3428ZM19.4886 6.82638C19.1938 6.75725 18.9141 6.60832 18.6847 6.37894C18.0281 5.72225 18.0281 4.65375 18.6847 3.99707C19.3414 3.34038 20.4099 3.34044 21.0666 3.99707C21.5734 4.50382 21.6886 5.25569 21.4133 5.87444C21.0999 5.82419 20.7964 5.848 20.5098 5.94907C20.0901 6.097 19.7455 6.39638 19.4886 6.82638ZM25.9653 27.0138L23.6996 27.0146V22.5329C23.6996 22.4879 23.7362 22.4512 23.7812 22.4512H25.8837C25.9287 22.4512 25.9653 22.4879 25.9653 22.5329V27.0138Z" fill="white"/>
</svg>
