<svg width="32" height="26" viewBox="0 0 32 26" fill="none" xmlns="http://www.w3.org/2000/svg">
<path d="M30.1561 1.74764H28.8295V0.491761C28.8295 0.232885 28.6196 0.0230103 28.3608 0.0230103H25.5345C25.2756 0.0230103 25.0658 0.232885 25.0658 0.491761V1.74764H9.57952V0.491761C9.57952 0.232885 9.36964 0.0230103 9.11077 0.0230103H6.28452C6.02564 0.0230103 5.81577 0.232885 5.81577 0.491761V1.74764H4.72064C3.57608 1.74764 2.64502 2.67876 2.64502 3.82326V15.229C2.64502 15.4878 2.85489 15.6977 3.11377 15.6977C3.37264 15.6977 3.58252 15.4878 3.58252 15.229V3.82332C3.58252 3.19576 4.09308 2.6852 4.72064 2.6852H30.1561C30.656 2.6852 31.0626 3.09189 31.0626 3.59176V19.0937C31.0626 19.5936 30.656 20.0003 30.1561 20.0003H29.1571V18.2261C29.1571 17.9673 28.9472 17.7574 28.6883 17.7574H23.6516C23.3928 17.7574 23.1829 17.9673 23.1829 18.2261V20.0003H15.6699L17.4435 19.5153C18.3621 19.2646 19.1672 18.743 19.7718 18.0067L22.7843 14.3367C22.8443 14.2638 22.8826 14.1694 22.8898 14.0752L23.1554 10.5762C23.1816 10.2303 22.9718 9.8907 22.6528 9.7572C22.7948 9.67664 22.8908 9.52439 22.8908 9.34945C22.8908 9.09058 22.681 8.8807 22.4221 8.8807H20.368C20.1091 8.8807 19.8993 9.09058 19.8993 9.34945C19.8993 9.60833 20.1091 9.8182 20.368 9.8182H21.9012C21.8499 9.8507 21.8013 9.88914 21.7568 9.93377L20.0366 11.654C19.7043 11.9861 19.4308 12.4032 19.1364 12.7693C18.9741 12.9711 19.0061 13.2661 19.2079 13.4284C19.4096 13.5906 19.7047 13.5586 19.867 13.3569L20.4062 12.6865L21.7901 14.0704L19.0473 17.412C18.5668 17.9971 17.9269 18.4118 17.1965 18.611L9.79452 20.741C9.22127 20.9248 9.50689 21.8176 10.0807 21.6338L11.7088 21.1118V25.0395H11.0576C10.7987 25.0395 10.5888 25.2494 10.5888 25.5083C10.5888 25.7671 10.7987 25.977 11.0576 25.977H13.9231C14.182 25.977 14.3918 25.7671 14.3918 25.5083C14.3918 25.2494 14.182 25.0395 13.9231 25.0395H12.6464V20.9377H30.1561C31.1729 20.9377 32.0001 20.1105 32.0001 19.0936V3.5917C32.0001 2.57489 31.1729 1.74764 30.1561 1.74764ZM26.0033 0.960511H27.892V1.74739H26.0033V0.960511ZM6.75327 0.960511H8.64202V1.74739H6.75327V0.960511ZM22.1968 10.8195L22.0323 12.9866L21.031 11.9853L22.1968 10.8195ZM24.1204 20.0002V18.6948H28.2196V20.0002H24.1204Z" fill="white"/>
<path d="M8.81913 25.0395H2.80063V22.5505C2.80063 20.9694 3.16525 19.3917 3.86094 17.9717C4.24144 17.1953 5.04575 16.6936 5.91 16.6936H13.8088C15.4597 16.6936 17.0656 16.1102 18.3309 15.0507C18.5294 14.8846 18.5556 14.5889 18.3894 14.3904C18.2231 14.1919 17.9275 14.1657 17.7291 14.3319C16.6323 15.2503 15.2401 15.7561 13.8088 15.7561H10.4143C10.9402 15.2087 11.2644 14.4664 11.2644 13.6492V11.9279C12.4694 11.8484 13.4257 10.8434 13.4257 9.61862C13.4257 8.34181 12.3872 7.303 11.1107 7.303C10.3303 7.28468 9.58744 7.46631 9.0405 8.06137C8.77319 8.35112 8.39394 8.51731 8.00006 8.51731H6.71194C5.636 8.51731 4.76069 9.39293 4.76069 10.4692V13.9823C4.76069 14.3812 4.85656 14.7726 5.09756 15.0964C5.20625 15.2424 5.34 15.3695 5.49119 15.4709C5.65425 15.5802 5.89206 15.6199 6.023 15.7561C4.76806 15.7351 3.57619 16.4225 3.01912 17.5592C2.26069 19.1073 1.86319 20.8267 1.86319 22.5505V25.0395H0.46875C0.209875 25.0395 0 25.2494 0 25.5082C0 25.7671 0.209875 25.977 0.46875 25.977H8.81913C9.078 25.977 9.28788 25.7671 9.28788 25.5082C9.28788 25.2494 9.078 25.0395 8.81913 25.0395ZM8.08687 15.752C7.82531 15.7359 7.57113 15.6705 7.33669 15.5622C7.44544 15.5064 7.55087 15.4376 7.64519 15.3597C8.03481 15.0382 8.24944 14.5624 8.24944 14.0199V11.9336H10.3269V13.6492C10.3269 14.811 9.3815 15.7561 8.21944 15.7561C8.16969 15.7561 8.12775 15.7549 8.08687 15.752ZM5.69812 13.9824V10.4692C5.69812 9.90993 6.15287 9.45487 6.71187 9.45487H8C8.65494 9.45487 9.28531 9.17868 9.73013 8.69643C10.0984 8.29568 10.5983 8.2215 11.1106 8.2405C11.8702 8.2405 12.4881 8.85874 12.4881 9.61862C12.4881 10.3782 11.8702 10.9961 11.1106 10.9961H7.78062C7.52175 10.9961 7.31187 11.206 7.31187 11.4649V14.0199C7.31187 14.5667 6.82937 14.91 6.3065 14.8102C5.88775 14.7304 5.69812 14.3895 5.69812 13.9824Z" fill="white"/>
<path d="M16.0459 7.18206H18.5988C18.8576 7.18206 19.0675 6.97218 19.0675 6.71331V4.98843C19.0675 4.72956 18.8576 4.51968 18.5988 4.51968H16.0459C15.787 4.51968 15.5771 4.72956 15.5771 4.98843V6.71331C15.5771 6.97218 15.787 7.18206 16.0459 7.18206ZM16.5146 5.45718H18.13V6.24456H16.5146V5.45718Z" fill="white"/>
<path d="M15.5771 10.2118C15.5771 10.4707 15.787 10.6806 16.0459 10.6806H18.5988C18.8576 10.6806 19.0675 10.4707 19.0675 10.2118V8.48688C19.0675 8.228 18.8576 8.01813 18.5988 8.01813H16.0459C15.787 8.01813 15.5771 8.228 15.5771 8.48688V10.2118ZM16.5146 8.95563H18.13V9.74307H16.5146V8.95563Z" fill="white"/>
<path d="M20.3677 6.31964H28.688C28.9469 6.31964 29.1567 6.10977 29.1567 5.85089C29.1567 5.59202 28.9469 5.38214 28.688 5.38214H20.3677C20.1088 5.38214 19.8989 5.59202 19.8989 5.85089C19.8989 6.10977 20.1088 6.31964 20.3677 6.31964Z" fill="white"/>
</svg>
