<svg width="32" height="32" viewBox="0 0 32 32" fill="none" xmlns="http://www.w3.org/2000/svg">
<path d="M30 25.2882C31.1046 25.2882 32 24.3928 32 23.2882V5.61261C32 4.50804 31.1046 3.61261 30 3.61261H2C0.895431 3.61261 0 4.50804 0 5.61261V23.2882C0 24.3928 0.89543 25.2882 2 25.2882H12.3843V27.3543H7.2252C6.93992 27.3543 6.70866 27.5856 6.70866 27.8709C6.70866 28.1561 6.93992 28.3874 7.2252 28.3874H12.3843H19.6094H24.7685C25.0538 28.3874 25.285 28.1561 25.285 27.8709C25.285 27.5856 25.0538 27.3543 24.7685 27.3543H19.6094V25.2882H30ZM1.03307 6.63938C1.03307 5.53481 1.9285 4.63938 3.03307 4.63938H28.9669C30.0715 4.63938 30.9669 5.53481 30.9669 6.63938V20.1228H1.03307V6.63938ZM18.5827 27.3543H13.4173V25.2882H18.5827V27.3543ZM12.3843 24.2551H3.03307C1.9285 24.2551 1.03307 23.3597 1.03307 22.2551V21.1559H30.9669V22.2551C30.9669 23.3597 30.0715 24.2551 28.9669 24.2551H19.6157H12.3843Z" fill="white"/>
<path d="M16.5165 22.189H15.4834V23.222H16.5165V22.189Z" fill="white"/>
<path d="M18.5829 22.189H17.5498V23.222H18.5829V22.189Z" fill="white"/>
<path d="M14.4506 22.189H13.4175V23.222H14.4506V22.189Z" fill="white"/>
<path d="M25.2852 6.70551C24.2899 6.70551 23.4773 7.5181 23.4773 8.51338C23.4773 8.89133 23.597 9.24409 23.7923 9.53385L18.8033 14.5228C18.6458 14.4787 18.4883 14.4472 18.3182 14.4472C18.1482 14.4472 17.9907 14.4787 17.8332 14.5228L14.0159 10.7055C14.2804 10.3905 14.4505 9.9874 14.4505 9.54645C14.4505 8.55117 13.6379 7.73858 12.6426 7.73858C11.6474 7.73858 10.8348 8.55117 10.8348 9.54645C10.8348 9.9874 10.9985 10.3905 11.2694 10.7055L7.81745 14.1575C7.55918 14.0189 7.27572 13.9307 6.96705 13.9307C5.97178 13.9307 5.15918 14.7433 5.15918 15.7386C5.15918 16.7339 5.97178 17.5464 6.96705 17.5464C7.96233 17.5464 8.77493 16.7339 8.77493 15.7386C8.77493 15.4299 8.68674 15.1402 8.54816 14.8882L12.1576 11.2787C12.3151 11.3228 12.4726 11.3543 12.6426 11.3543C12.8127 11.3543 12.9702 11.3228 13.1277 11.2787L16.945 15.0961C16.6804 15.411 16.5104 15.8142 16.5104 16.2551C16.5104 17.2504 17.323 18.063 18.3182 18.063C19.3135 18.063 20.1261 17.2504 20.1261 16.2551C20.1261 15.8142 19.9623 15.411 19.6915 15.0961L24.6049 10.1827C24.8127 10.2709 25.0458 10.3213 25.2852 10.3213C26.2804 10.3213 27.093 9.50865 27.093 8.51338C27.093 7.5181 26.2804 6.70551 25.2852 6.70551ZM6.96705 16.5134C6.53871 16.5134 6.19225 16.1669 6.19225 15.7386C6.19225 15.3102 6.53871 14.9638 6.96705 14.9638C7.3954 14.9638 7.74186 15.3102 7.74186 15.7386C7.74186 16.1669 7.3954 16.5134 6.96705 16.5134ZM12.6426 10.3213C12.2143 10.3213 11.8678 9.9748 11.8678 9.54645C11.8741 9.1181 12.2206 8.77165 12.6426 8.77165C13.071 8.77165 13.4174 9.1181 13.4174 9.54645C13.4174 9.9748 13.071 10.3213 12.6426 10.3213ZM18.3245 17.0299C17.8962 17.0299 17.5497 16.6835 17.5497 16.2551C17.5497 15.8268 17.8962 15.4803 18.3245 15.4803C18.7529 15.4803 19.0993 15.8268 19.0993 16.2551C19.0993 16.6835 18.7529 17.0299 18.3245 17.0299ZM25.2915 9.28818C24.8631 9.28818 24.5167 8.94173 24.5167 8.51338C24.5167 8.08503 24.8631 7.73858 25.2915 7.73858C25.7198 7.73858 26.0663 8.08503 26.0663 8.51338C26.0663 8.94173 25.7198 9.28818 25.2915 9.28818Z" fill="white"/>
</svg>
