<svg version="1.1" id="Слой_1" xmlns="http://www.w3.org/2000/svg" x="0" y="0" viewBox="0 0 512 512" xml:space="preserve"><style/><path class="st0" d="M290 384c-2 0-4.1-.8-5.7-2.3-3.1-3.1-3.1-8.2 0-11.3l5.7-5.7c3.1-3.1 8.2-3.1 11.3 0 3.1 3.1 3.1 8.2 0 11.3l-5.7 5.7c-1.5 1.5-3.6 2.3-5.6 2.3z"/><path class="st0" d="M295.7 378.4c-.7 0-1.5-.1-2.2-.3-4.3-1.2-6.7-5.6-5.5-9.9l9-31.6c1.2-4.3 5.6-6.7 9.9-5.5 4.2 1.2 6.7 5.6 5.5 9.9l-9 31.6c-1 3.5-4.3 5.8-7.7 5.8z"/><path class="st0" d="M295.6 378.4c-3.5 0-6.7-2.3-7.7-5.8-1.2-4.3 1.3-8.7 5.5-9.9l31.6-9c4.3-1.2 8.7 1.3 9.9 5.5 1.2 4.3-1.3 8.7-5.5 9.9l-31.6 9c-.7.2-1.4.3-2.2.3z"/><path class="st0" d="M335.3 361.4c-2.1 0-4.1-.8-5.7-2.3L307 336.4c-3.1-3.1-3.1-8.2 0-11.3 3.1-3.1 8.2-3.1 11.3 0l22.6 22.6c3.1 3.1 3.1 8.2 0 11.3-1.5 1.6-3.6 2.4-5.6 2.4zm93.8-93.8c-2 0-4.1-.8-5.7-2.3l-22.6-22.6c-3.1-3.1-3.1-8.2 0-11.3 3.1-3.1 8.2-3.1 11.3 0l22.6 22.6c3.1 3.1 3.1 8.2 0 11.3-1.5 1.5-3.6 2.3-5.6 2.3z"/><path class="st0" d="M304.6 346.8c-2 0-4.1-.8-5.7-2.3-3.1-3.1-3.1-8.2 0-11.3l170.7-170.7c3.1-3.1 8.2-3.1 11.3 0 3.1 3.1 3.1 8.2 0 11.3L310.3 344.4c-1.6 1.6-3.6 2.4-5.7 2.4zm22.7 22.6c-2.1 0-4.1-.8-5.7-2.3-3.1-3.1-3.1-8.2 0-11.3l170.7-170.7c3.1-3.1 8.2-3.1 11.3 0 3.1 3.1 3.1 8.2 0 11.3L332.9 367.1c-1.5 1.5-3.6 2.3-5.6 2.3z"/><path class="st0" d="M497.9 198.7c-2.1 0-4.1-.8-5.7-2.3-3.1-3.1-3.1-8.2 0-11.3 3.1-3.1 3.1-8.2 0-11.3-3.1-3.1-8.2-3.1-11.3 0-3.1 3.1-8.2 3.1-11.3 0-3.1-3.1-3.1-8.2 0-11.3 9.4-9.3 24.6-9.3 33.9 0 9.4 9.4 9.4 24.6 0 33.9-1.5 1.5-3.5 2.3-5.6 2.3z"/><path class="st0" d="M497.9 232.7c-2.1 0-4.1-.8-5.7-2.3-3.1-3.1-3.1-8.2 0-11.3 1.5-1.5 2.3-3.5 2.3-5.7 0-2.1-.8-4.1-2.3-5.6-3.1-3.1-3.1-8.2 0-11.3 3.1-3.1 8.2-3.1 11.3 0 4.5 4.5 7 10.6 7 17s-2.5 12.4-7 17c-1.5 1.4-3.5 2.2-5.6 2.2z"/><path class="st0" d="M443.7 286.9c-2 0-4.1-.8-5.7-2.3-3.1-3.1-3.1-8.2 0-11.3l54.2-54.2c3.1-3.1 8.2-3.1 11.3 0 3.1 3.1 3.1 8.2 0 11.3l-54.2 54.2c-1.5 1.5-3.5 2.3-5.6 2.3zm54.2-76.9c-2.1 0-4.1-.8-5.7-2.3L464 179.4c-3.1-3.1-3.1-8.2 0-11.3 3.1-3.1 8.2-3.1 11.3 0l28.3 28.3c3.1 3.1 3.1 8.2 0 11.3-1.6 1.6-3.6 2.3-5.7 2.3zM370 488H34c-4.4 0-8-3.6-8-8V8c0-4.4 3.6-8 8-8h288c2.1 0 4.2.8 5.7 2.3l48 48c1.5 1.5 2.3 3.5 2.3 5.7v217.4c0 4.4-3.6 8-8 8s-8-3.6-8-8V59.3L318.7 16H42v456h320V318.7c0-4.4 3.6-8 8-8s8 3.6 8 8V480c0 4.4-3.6 8-8 8z"/><path class="st0" d="M322 64c-4.4 0-8-3.6-8-8V8c0-4.4 3.6-8 8-8s8 3.6 8 8v48c0 4.4-3.6 8-8 8z"/><path class="st0" d="M370 64h-48c-4.4 0-8-3.6-8-8s3.6-8 8-8h48c4.4 0 8 3.6 8 8s-3.6 8-8 8zm-64 160.1H98c-4.4 0-8-3.6-8-8s3.6-8 8-8h208c4.4 0 8 3.6 8 8s-3.6 8-8 8zm0 39.9H98c-4.4 0-8-3.6-8-8s3.6-8 8-8h208c4.4 0 8 3.6 8 8 0 4.5-3.6 8-8 8zm0 40H98c-4.4 0-8-3.6-8-8s3.6-8 8-8h208c4.4 0 8 3.6 8 8 0 4.5-3.6 8-8 8zm-104 40H98c-4.4 0-8-3.6-8-8s3.6-8 8-8h104c4.4 0 8 3.6 8 8 0 4.5-3.6 8-8 8zm104 80h-56c-4.4 0-8-3.6-8-8s3.6-8 8-8h56c4.4 0 8 3.6 8 8s-3.6 8-8 8z"/><path class="st0" d="M290 440c-4.4 0-8-3.6-8-8v-32c0-4.4 3.6-8 8-8s8 3.6 8 8v32c0 4.4-3.6 8-8 8z"/><path class="st0" d="M290 440c-2.4 0-4.8-1.1-6.4-3.2l-24-32c-2.7-3.5-1.9-8.5 1.6-11.2 3.5-2.6 8.5-1.9 11.2 1.6l24 32c2.7 3.5 1.9 8.5-1.6 11.2-1.4 1.1-3.1 1.6-4.8 1.6z"/><path class="st0" d="M266 440c-4.4 0-8-3.6-8-8v-32c0-4.4 3.6-8 8-8s8 3.6 8 8v32c0 4.4-3.6 8-8 8zm80 72c-4.4 0-8-3.6-8-8v-24c0-4.4 3.6-8 8-8s8 3.6 8 8v24c0 4.4-3.6 8-8 8z"/><path class="st0" d="M346 512H10c-4.4 0-8-3.6-8-8s3.6-8 8-8h336c4.4 0 8 3.6 8 8s-3.6 8-8 8z"/><path class="st0" d="M10 512c-4.4 0-8-3.6-8-8V32c0-4.4 3.6-8 8-8s8 3.6 8 8v472c0 4.4-3.6 8-8 8z"/><path class="st0" d="M34 40H10c-4.4 0-8-3.6-8-8s3.6-8 8-8h24c4.4 0 8 3.6 8 8s-3.6 8-8 8zm120 128.1c-25.7 0-49.2-13.4-62.8-35.8-1.5-2.5-1.5-5.8 0-8.3 13.6-22.4 37.1-35.8 62.8-35.8 25.7 0 49.2 13.4 62.8 35.8 1.6 2.5 1.6 5.8 0 8.3-13.6 22.4-37.1 35.8-62.8 35.8zm-46.4-40c10.9 15.1 27.9 24 46.4 24s35.5-8.9 46.4-24c-10.9-15.1-28-24-46.4-24-18.5 0-35.5 8.9-46.4 24z"/><path class="st0" d="M154 152c-13.2 0-24-10.8-24-24s10.8-24 24-24 24 10.8 24 24-10.8 24-24 24zm0-32c-4.4 0-8 3.6-8 8s3.6 8 8 8 8-3.6 8-8-3.6-8-8-8z"/></svg>