<svg xmlns="http://www.w3.org/2000/svg" viewBox="0 0 463 463"><path d="M398.901 333.619l-29.255-7.314a7.498 7.498 0 00-5.108-6.587l-45.817-15.272a23.352 23.352 0 00-6.81-7.018l-11.384-7.59C326.38 265.001 343 226.566 343 183.5c0-6.277-.73-12.874-1.922-19.518a7.55 7.55 0 00.358-1.502c.049-.374 4.969-37.94 7.714-83.077 1.1-18.076-4.562-35.747-15.941-49.758-11.414-14.053-27.565-23.164-45.479-25.654C268.671 1.343 249.753 0 231.5 0c-14.523 0-50.229 2.388-74.907 24h-2.794c-13.158 0-25.843 5.521-34.804 15.146-8.933 9.596-13.519 22.593-12.583 35.659 2.09 29.176 6 70.601 12.753 102.26.177.828.494 1.589.905 2.277-.034 1.384-.07 2.767-.07 4.158 0 43.066 16.62 81.501 42.473 106.338l-11.385 7.59a23.352 23.352 0 00-6.81 7.018l-45.817 15.272a7.499 7.499 0 00-5.108 6.588l-29.255 7.314A63.406 63.406 0 0016 395.223V439.5c0 12.958 10.542 23.5 23.5 23.5h384c12.958 0 23.5-10.542 23.5-23.5v-44.277a63.409 63.409 0 00-48.099-61.604zM313.26 371.66l13.568 20.353L298.391 448h-19.372c-.138-10.893.52-34.566 7.733-53.876.107-.285.189-.574.259-.863l.187-.371 11.644-23.273c7.012-14.026 15.429-30.869 21.06-42.14a23.383 23.383 0 002.068-6.138l30.755 10.251-7.065 21.639-27.977 6.994a7.5 7.5 0 00-4.423 11.437zM254.235 448l-6.524-51.377c4.37-2.744 7.289-7.593 7.289-13.123v-2.83c4.982 3.528 10.409 7.852 16.021 13.095-6.489 20.421-7.16 43.055-7.016 54.235h-9.77zm-55.015 0c.144-11.21-.531-33.933-7.068-54.397 5.551-5.17 10.917-9.442 15.848-12.934v2.831c0 5.53 2.92 10.379 7.289 13.123L208.765 448h-9.545zm32.279-80.512c1.853.738 4.781 2.007 8.501 3.951V383.5a.5.5 0 01-.5.5h-16a.5.5 0 01-.5-.5v-12.062c3.722-1.945 6.651-3.214 8.499-3.95zM230.108 399h2.784l6.222 49h-15.228l6.222-49zm76.375-78.227a129908.793 129908.793 0 01-29.199 58.414c-12.864-11.311-24.587-18.251-32.629-22.236l51.8-51.8 7.135 4.757c3.559 2.372 4.803 7.043 2.893 10.865zM327.5 184H303v-8.5a7.5 7.5 0 00-7.5-7.5h-48a7.5 7.5 0 00-7.5 7.5v2.097c-2.638-1.027-5.503-1.597-8.5-1.597s-5.862.57-8.5 1.597V175.5a7.5 7.5 0 00-7.5-7.5h-48a7.5 7.5 0 00-7.5 7.5v8.5h-24.5c-.167 0-.33.014-.495.025-.001-.175-.005-.349-.005-.525 0-25.885 6.443-50.337 18.682-71.092 47.21 14.692 100.167 14.648 156.125 14.597l4.643-.002C320.211 141.57 328 164.738 328 183.5c0 .175-.005.35-.005.525-.165-.011-.328-.025-.495-.025zM121.374 73.732c-.649-9.058 2.405-17.711 8.6-24.366C136.197 42.682 144.658 39 153.799 39h5.701a7.498 7.498 0 005.172-2.069C185.456 17.137 218.331 15 231.5 15c17.564 0 35.789 1.295 54.166 3.849 14.139 1.965 26.888 9.158 35.899 20.253 9.004 11.087 13.483 25.076 12.612 39.391-1.085 17.836-2.512 34.462-3.838 48.025a314.174 314.174 0 00-3.914-9.897A7.502 7.502 0 00319.5 112l-9.706.005c-56.922.053-110.697.095-156.966-15.648a7.499 7.499 0 00-8.697 3.002c-7.143 10.948-12.746 22.907-16.758 35.57-2.814-21.547-4.74-43.618-5.999-61.197zM135.796 199H160v.5a7.5 7.5 0 0015 0V183h9v8.5a7.5 7.5 0 0015 0V183h9v16.5a7.5 7.5 0 0015 0c0-4.687 3.813-8.5 8.5-8.5s8.5 3.813 8.5 8.5a7.5 7.5 0 0015 0V183h9v8.5a7.5 7.5 0 0015 0V183h9v16.5a7.5 7.5 0 0015 0v-.5h24.204c-6.11 59.15-46.699 105-95.704 105s-89.594-45.85-95.704-105zM231.5 319c13.339 0 26.136-2.865 38.002-8.109L231.5 348.894l-38.002-38.002C205.364 316.135 218.161 319 231.5 319zm-72.091-9.092l7.136-4.757 51.8 51.8c-8.042 3.985-19.766 10.925-32.629 22.236-5.413-10.818-15.547-31.093-29.198-58.414-1.911-3.822-.667-8.493 2.891-10.865zm-18.378 11.431a23.37 23.37 0 002.068 6.138c5.631 11.271 14.047 28.114 21.06 42.14l11.644 23.273c.253.504.5.994.755 1.466 7.111 19.214 7.776 42.78 7.645 53.644h-19.59l-28.439-55.988 13.568-20.352a7.499 7.499 0 00-4.422-11.436l-27.977-6.994-7.066-21.639 30.754-10.252zM31 439.5v-44.277a48.43 48.43 0 0136.737-47.052l29.746-7.437 6.888 21.093a7.5 7.5 0 005.311 4.948l21.675 5.419-10.097 15.146a7.503 7.503 0 00-.447 7.557L147.788 448H103v-24.5a7.5 7.5 0 00-15 0V448H39.5c-4.687 0-8.5-3.813-8.5-8.5zm401 0c0 4.687-3.813 8.5-8.5 8.5H375v-24.5a7.5 7.5 0 00-15 0V448h-44.785l26.972-53.104a7.498 7.498 0 00-.447-7.557l-10.096-15.145 21.675-5.419a7.498 7.498 0 005.311-4.948l6.888-21.094 29.746 7.436a48.43 48.43 0 0136.737 47.052V439.5z"/><path d="M195.281 261.481C204.17 267.53 217.372 271 231.5 271s27.33-3.47 36.219-9.519a7.5 7.5 0 00-8.439-12.401c-6.368 4.333-16.753 6.92-27.781 6.92s-21.413-2.587-27.781-6.92a7.5 7.5 0 00-10.42 1.981 7.501 7.501 0 001.983 10.42z"/></svg>