<svg xmlns="http://www.w3.org/2000/svg" xmlns:xlink="http://www.w3.org/1999/xlink" width="50" height="50" viewBox="0 0 50 50"><defs><path id="zxyza" d="M1116 2061a25 25 0 1 1 0 50 25 25 0 0 1 0-50z"/><path id="zxyzb" d="M1121.25 2086l-7.5 5.4v-10.8zm-9.18-8.62a3.59 3.59 0 0 0-2.07 3.22v10.8c0 1.36.8 2.6 2.07 3.22a3.87 3.87 0 0 0 3.93-.34l7.5-5.4a3.55 3.55 0 0 0 1.5-2.88c0-1.13-.56-2.2-1.5-2.88l-7.5-5.4a3.85 3.85 0 0 0-3.93-.34z"/></defs><g><g transform="translate(-1091 -2061)"><use fill="#3e34ff" xlink:href="#zxyza"/></g><g transform="translate(-1091 -2061)"><use xlink:href="#zxyzb"/><use fill="#fff" xlink:href="#zxyzb"/></g></g></svg>