<svg width="32" height="32" viewBox="0 0 32 32" fill="none" xmlns="http://www.w3.org/2000/svg">
<path d="M31.375 0H6.125C5.77987 0 5.5 0.279813 5.5 0.625V3.375H3.375C3.02988 3.375 2.75 3.65488 2.75 4V7.375H0.625C0.279813 7.375 0 7.65487 0 8V28.625C0 30.4859 1.51406 32 3.375 32H28.625C30.4859 32 32 30.4859 32 28.625V0.625C32 0.279813 31.7201 0 31.375 0ZM30.75 28.625C30.75 29.7967 29.7967 30.75 28.625 30.75H5.9945C6.46638 30.1694 6.75 29.4298 6.75 28.625V20.1877C6.75 19.8426 6.47013 19.5627 6.125 19.5627C5.77987 19.5627 5.5 19.8426 5.5 20.1877V28.625C5.5 29.7967 4.54675 30.75 3.375 30.75C2.20325 30.75 1.25 29.7967 1.25 28.625V8.625H2.75V28C2.75 28.3451 3.02988 28.625 3.375 28.625C3.72012 28.625 4 28.3451 4 28V4.625H5.5V14.5627C5.5 14.9079 5.77987 15.1877 6.125 15.1877C6.47013 15.1877 6.75 14.9079 6.75 14.5627V1.25H30.75V28.625Z" fill="white"/>
<path d="M9.125 9.875H28.375C28.7201 9.875 29 9.59519 29 9.25V4.75C29 4.40488 28.7201 4.125 28.375 4.125H9.125C8.77981 4.125 8.5 4.40488 8.5 4.75V9.25C8.5 9.59519 8.77981 9.875 9.125 9.875ZM9.75 5.375H27.75V8.625H9.75V5.375Z" fill="white"/>
<path d="M9.125 24.875H18.75C19.0951 24.875 19.375 24.5951 19.375 24.25V12.25C19.375 11.9048 19.0951 11.625 18.75 11.625H9.125C8.77981 11.625 8.5 11.9048 8.5 12.25V24.25C8.5 24.5951 8.77981 24.875 9.125 24.875ZM9.75 12.875H18.125V23.625H9.75V12.875Z" fill="white"/>
<path d="M28.375 11.625H21.75C21.4049 11.625 21.125 11.9048 21.125 12.25C21.125 12.5952 21.4049 12.875 21.75 12.875H28.375C28.7201 12.875 29 12.5952 29 12.25C29 11.9048 28.7201 11.625 28.375 11.625Z" fill="white"/>
<path d="M28.375 14.625H21.75C21.4049 14.625 21.125 14.9048 21.125 15.25C21.125 15.5952 21.4049 15.875 21.75 15.875H28.375C28.7201 15.875 29 15.5952 29 15.25C29 14.9048 28.7201 14.625 28.375 14.625Z" fill="white"/>
<path d="M28.375 17.625H21.75C21.4049 17.625 21.125 17.9049 21.125 18.25C21.125 18.5951 21.4049 18.875 21.75 18.875H28.375C28.7201 18.875 29 18.5951 29 18.25C29 17.9049 28.7201 17.625 28.375 17.625Z" fill="white"/>
<path d="M28.375 20.625H21.75C21.4049 20.625 21.125 20.9049 21.125 21.25C21.125 21.5951 21.4049 21.875 21.75 21.875H28.375C28.7201 21.875 29 21.5951 29 21.25C29 20.9049 28.7201 20.625 28.375 20.625Z" fill="white"/>
<path d="M28.375 23.625H21.75C21.4049 23.625 21.125 23.9049 21.125 24.25C21.125 24.5951 21.4049 24.875 21.75 24.875H28.375C28.7201 24.875 29 24.5951 29 24.25C29 23.9049 28.7201 23.625 28.375 23.625Z" fill="white"/>
<path d="M9.125 27.875H28.375C28.7201 27.875 29 27.5951 29 27.25C29 26.9049 28.7201 26.625 28.375 26.625H9.125C8.77981 26.625 8.5 26.9049 8.5 27.25C8.5 27.5951 8.77981 27.875 9.125 27.875Z" fill="white"/>
<path d="M6.15625 16.75C5.99187 16.75 5.83063 16.8168 5.71438 16.9331C5.59813 17.0494 5.53125 17.2106 5.53125 17.375C5.53125 17.54 5.59806 17.7006 5.71438 17.8168C5.83063 17.9337 5.99187 18 6.15625 18C6.32063 18 6.48188 17.9338 6.59806 17.8168C6.71431 17.7006 6.78125 17.5394 6.78125 17.375C6.78125 17.2106 6.71438 17.0494 6.59806 16.9331C6.48188 16.8168 6.32063 16.75 6.15625 16.75Z" fill="white"/>
</svg>
