<svg width="32" height="24" viewBox="0 0 32 24" fill="none" xmlns="http://www.w3.org/2000/svg">
<path d="M31.2355 8.059L16.2355 0.0589971C16.088 -0.0195029 15.9125 -0.0195029 15.765 0.0589971L0.765 8.059C0.6015 8.146 0.5 8.3155 0.5 8.5C0.5 8.6845 0.6015 8.854 0.7645 8.941L5 11.2V17.5H6V11.7335L7.5 12.5335V15.571C6.6395 15.7945 6 16.5705 6 17.5C6 17.957 6.16 18.3735 6.419 18.711C6.146 19.6445 6 20.607 6 21.581V23C6 23.1895 6.107 23.3625 6.2765 23.4475L6.829 23.724C7.191 23.9045 7.5955 24 8 24C8.4045 24 8.809 23.9045 9.171 23.7235L9.7235 23.447C9.893 23.3625 10 23.1895 10 23V21.581C10 20.607 9.854 19.6445 9.581 18.711C9.84 18.3735 10 17.957 10 17.5C10 16.5705 9.3605 15.7945 8.5 15.571V13.067L15.7645 16.9415C15.8385 16.9805 15.919 17 16 17C16.081 17 16.1615 16.9805 16.2355 16.9415L26 11.7335V17.253C23.219 19.3485 19.784 20.5 16.2995 20.5H15.701C13.9845 20.5 12.2875 20.2275 10.6565 19.69L10.344 20.64C12.075 21.2105 13.878 21.5 15.7005 21.5H16.299C20.086 21.5 23.8175 20.2195 26.807 17.8945C26.9285 17.8 27 17.6545 27 17.5V11.2L31.2355 8.941C31.3985 8.854 31.5 8.6845 31.5 8.5C31.5 8.3155 31.3985 8.146 31.2355 8.059ZM9 22.691L8.7235 22.829C8.276 23.0525 7.7235 23.0525 7.276 22.829L7 22.691V21.581C7 20.8295 7.0915 20.085 7.272 19.358C7.498 19.447 7.7425 19.5 8 19.5C8.2575 19.5 8.502 19.447 8.728 19.358C8.9085 20.085 9 20.8295 9 21.581V22.691ZM9 17.5C9 18.0515 8.5515 18.5 8 18.5C7.4485 18.5 7 18.0515 7 17.5C7 16.9485 7.4485 16.5 8 16.5C8.5515 16.5 9 16.9485 9 17.5ZM16 15.933L8.844 12.1165L15.0385 8.813C15.323 8.929 15.647 9 16 9C17.1215 9 18 8.341 18 7.5C18 6.659 17.1215 6 16 6C14.8785 6 14 6.659 14 7.5C14 7.7285 14.0695 7.9415 14.1865 8.134L7.7815 11.55L2.0625 8.5L16 1.0665L29.9375 8.5L16 15.933ZM15 7.5C15 7.296 15.3895 7 16 7C16.6105 7 17 7.296 17 7.5C17 7.704 16.6105 8 16 8C15.3895 8 15 7.704 15 7.5Z" fill="white"/>
</svg>
